<svg width="86" height="91" viewBox="0 0 86 91" fill="none" xmlns="http://www.w3.org/2000/svg">
<path d="M12.1035 7.0954H7.10428V39.4569" stroke="#F8FAFC" stroke-width="1.58346" stroke-miterlimit="10" stroke-linecap="round" stroke-linejoin="round"/>
<path d="M53.3981 0.803737V10.8014H63.3973" stroke="#F8FAFC" stroke-width="1.58346" stroke-miterlimit="10" stroke-linecap="round" stroke-linejoin="round"/>
<path d="M48.3956 10.8001H28.3974" stroke="#F8FAFC" stroke-width="1.58346" stroke-miterlimit="10" stroke-linecap="round" stroke-linejoin="round"/>
<path d="M53.3964 15.7983H23.3992" stroke="#F8FAFC" stroke-width="1.58346" stroke-miterlimit="10" stroke-linecap="round" stroke-linejoin="round"/>
<path d="M53.3964 20.7984H23.3992" stroke="#F8FAFC" stroke-width="1.58346" stroke-miterlimit="10" stroke-linecap="round" stroke-linejoin="round"/>
<path d="M53.3964 25.7986H23.3992" stroke="#F8FAFC" stroke-width="1.58346" stroke-miterlimit="10" stroke-linecap="round" stroke-linejoin="round"/>
<path d="M53.3964 30.7967H23.3992" stroke="#F8FAFC" stroke-width="1.58346" stroke-miterlimit="10" stroke-linecap="round" stroke-linejoin="round"/>
<path d="M53.3964 35.7949H23.3992" stroke="#F8FAFC" stroke-width="1.58346" stroke-miterlimit="10" stroke-linecap="round" stroke-linejoin="round"/>
<path d="M53.3964 40.7931H23.3992" stroke="#F8FAFC" stroke-width="1.58346" stroke-miterlimit="10" stroke-linecap="round" stroke-linejoin="round"/>
<path d="M51.8886 45.7913H23.3992" stroke="#F8FAFC" stroke-width="1.58346" stroke-miterlimit="10" stroke-linecap="round" stroke-linejoin="round"/>
<path d="M38.3979 55.7896H23.3992" stroke="#F8FAFC" stroke-width="1.58346" stroke-miterlimit="10" stroke-linecap="round" stroke-linejoin="round"/>
<path fill-rule="evenodd" clip-rule="evenodd" d="M13.3951 0C12.953 0 12.5946 0.358399 12.5946 0.800507V70.7843C12.5946 71.2264 12.953 71.5848 13.3951 71.5848H41.0144C41.4565 71.5848 41.8149 71.2264 41.8149 70.7843C41.8149 70.3422 41.4565 69.9838 41.0144 69.9838H14.1956V1.60101H53.0603L62.5897 11.1291V38.9974C62.5897 39.4395 62.9481 39.7979 63.3902 39.7979C63.8324 39.7979 64.1908 39.4395 64.1908 38.9974V10.7975C64.1908 10.5852 64.1064 10.3816 63.9563 10.2314L53.9579 0.234424C53.8077 0.0843237 53.6042 0 53.3919 0H13.3951ZM0.800507 11.2903C0.358399 11.2903 0 11.6487 0 12.0908V82.0763C0 82.5184 0.358399 82.8768 0.800507 82.8768H25.0947L25.1098 82.8766H37.1353C37.2 82.302 37.2735 81.7708 37.3574 81.2756H10.9429L10.9275 81.2758H1.60101V12.8913H5.7997C6.24181 12.8913 6.60021 12.5329 6.60021 12.0908C6.60021 11.6487 6.24181 11.2903 5.7997 11.2903H0.800507ZM7.90558 76.2751H39.1322C39.1175 76.298 39.1033 76.3206 39.0895 76.3429C39.0781 76.3613 39.0671 76.3795 39.0563 76.3975C38.7715 76.8737 38.5215 77.3588 38.3019 77.8761H7.10507C6.66296 77.8761 6.30456 77.5177 6.30456 77.0756V34.3577C6.30456 33.9156 6.66296 33.5572 7.10507 33.5572C7.54718 33.5572 7.90558 33.9156 7.90558 34.3577V76.2751Z" fill="#F8FAFC"/>
<path fill-rule="evenodd" clip-rule="evenodd" d="M52.1597 66.7315C48.3377 68.027 44.7864 69.6532 42.861 70.9896C41.5971 71.8667 39.8272 73.6875 39.1695 74.7871C37.6783 77.2804 37.1437 80.0168 36.9118 86.3444C36.776 90.0469 36.8101 90.4422 37.2867 90.6977C37.4569 90.789 39.3194 90.8367 42.7075 90.8367C46.7192 90.8367 47.8818 90.8731 47.926 91.0004L74.8439 90.8367H80.1189H85.3938L85.6783 90.5335C85.9433 90.2509 85.9625 90.1013 85.9615 88.339C85.9591 84.4788 85.5827 80.2915 85.0509 78.2089C83.9274 73.8092 81.2792 70.9833 76.1049 68.6624C74.6628 68.0156 71.3168 66.8335 69.7105 66.4033L68.8285 66.1671L68.0754 66.6292C66.2331 67.7597 64.5599 68.3515 62.6579 68.5454C60.0018 68.8164 57.396 68.2331 55.1729 66.8703C54.6999 66.5803 54.179 66.3116 54.0155 66.2732C53.845 66.2331 53.0531 66.4287 52.1597 66.7315ZM52.459 68.6983C50.134 69.5036 48.1478 70.3282 46.4765 71.1823C41.0423 73.9597 39.4714 76.5725 38.9977 83.6226C38.9226 84.7395 38.8526 86.3609 38.8421 87.2256L38.8232 88.7978H43.3609H47.8987L74.8565 88.8633H79.4202H83.984L83.9838 87.8479C83.9831 85.8227 83.699 81.8202 83.4532 80.3743C82.6795 75.8233 80.9107 73.3878 76.7895 71.1991C75.0513 70.2759 72.2906 69.1999 70.0081 68.5562L69.1786 68.3222L68.0937 68.9002C65.8983 70.0698 63.8514 70.5791 61.354 70.5766C58.8397 70.5742 56.3728 69.9211 54.404 68.7367C53.9989 68.493 53.6457 68.2981 53.6191 68.3035C53.5926 68.309 53.0705 68.4866 52.459 68.6983Z" fill="#17FFA6"/>
<path fill-rule="evenodd" clip-rule="evenodd" d="M60.0412 40.1244C56.5175 40.6545 54.4897 41.6434 52.1814 43.9576C50.2259 45.918 49.133 47.9556 48.5856 50.6612C48.257 52.2861 48.3785 55.1686 48.841 56.715C50.2504 61.4274 54.0142 64.9342 58.7352 65.9333C60.0555 66.2128 62.6052 66.2463 63.7693 65.9995C66.5089 65.4186 68.7339 64.227 70.6386 62.3203C74.0789 58.8764 75.2925 53.8431 73.8148 49.1484C72.5757 45.2125 69.2753 41.8892 65.412 40.6877C63.7746 40.1784 61.3633 39.9255 60.0412 40.1244ZM59.845 42.1418C56.0035 42.737 52.6959 45.282 51.2317 48.7691C50.5247 50.4529 50.3225 51.5919 50.3979 53.4644C50.5227 56.5558 51.5234 58.9165 53.5719 60.9515C55.9815 63.3455 59.214 64.4942 62.5266 64.1339C68.4138 63.4937 72.7634 58.4035 72.424 52.5517C72.2734 49.954 71.4797 47.9819 69.7445 45.8932C68.4439 44.3276 66.1984 42.9195 64.1765 42.4016C62.9904 42.0978 60.9277 41.9741 59.845 42.1418Z" fill="#17FFA6"/>
<path fill-rule="evenodd" clip-rule="evenodd" d="M60.0412 40.1244C56.5175 40.6545 54.4897 41.6434 52.1814 43.9576C50.2259 45.918 49.133 47.9556 48.5856 50.6612C48.257 52.2861 48.3785 55.1686 48.841 56.715C50.2504 61.4274 54.0142 64.9342 58.7352 65.9333C60.0555 66.2128 62.6052 66.2463 63.7693 65.9995C66.5089 65.4186 68.7339 64.227 70.6386 62.3203C74.0789 58.8764 75.2925 53.8431 73.8148 49.1484C72.5757 45.2125 69.2753 41.8892 65.412 40.6877C63.7746 40.1784 61.3633 39.9255 60.0412 40.1244ZM59.845 42.1418C56.0035 42.737 52.6959 45.282 51.2317 48.7691C50.5247 50.4529 50.3225 51.5919 50.3979 53.4644C50.5227 56.5558 51.5234 58.9165 53.5719 60.9515C55.9815 63.3455 59.214 64.4942 62.5266 64.1339C68.4138 63.4937 72.7634 58.4035 72.424 52.5517C72.2734 49.954 71.4797 47.9819 69.7445 45.8932C68.4439 44.3276 66.1984 42.9195 64.1765 42.4016C62.9904 42.0978 60.9277 41.9741 59.845 42.1418Z" fill="#17FFA6"/>
</svg>
