<svg width="24" height="24" viewBox="0 0 24 24" fill="none" xmlns="http://www.w3.org/2000/svg">
<g clip-path="url(#clip0_0_695)">
<path d="M12 1.6875C17.6863 1.6875 22.3125 6.31373 22.3125 12C22.3125 17.6863 17.6863 22.3125 12 22.3125C6.31373 22.3125 1.6875 17.6863 1.6875 12C1.6875 6.31373 6.31373 1.6875 12 1.6875ZM12 1C5.92452 1 1 5.92452 1 12C1 18.0755 5.92452 23 12 23C18.0755 23 23 18.0755 23 12C23 5.92452 18.0755 1 12 1Z" fill="#4E4E4E" stroke="#4E4E4E" stroke-width="0.3"/>
<path d="M16.397 20C16.3176 20 16.2499 19.9857 16.1994 19.9699C15.9983 19.9076 15.3862 19.7164 14.7631 17.1374C14.5433 16.2262 14.3754 16.1767 14.0715 16.0879C13.8697 16.0292 13.5934 15.9482 13.2935 15.6846C12.9701 15.4002 12.8029 15.125 12.6551 14.8822C12.4561 14.5548 12.3124 14.3191 11.8053 14.1035C11.5041 13.9753 11.3273 13.9344 11.2202 13.9093C10.8843 13.8305 10.7724 13.6737 10.7932 13.3097C10.798 13.2338 10.8042 13.1227 10.8001 12.9615C10.7855 12.3655 10.6937 12.0481 10.6508 11.988C10.201 11.6527 10.1513 11.4578 10.0677 10.8969C10.0532 10.8002 10.0366 10.6877 10.0146 10.5552C9.91919 9.99208 10.3096 9.44122 10.6868 8.90891C10.9576 8.5264 11.2644 8.09364 11.2526 7.80783C11.2104 6.69884 11.7466 6.34781 11.8074 6.31132L11.9546 6.22394L12.1108 6.29058C12.1529 6.30849 13.1423 6.73908 13.8111 7.84299C13.8124 7.84515 13.8138 7.84731 13.8152 7.85015C13.8442 7.72978 13.8698 7.59366 13.8864 7.50703C13.921 7.3236 13.9479 7.1789 13.9921 7.07144C14.0453 6.91667 14.0219 6.19029 13.9659 5.61001L13.9389 5.33278L14.1911 5.23748C14.8129 5.00323 15.0879 5.08062 15.3532 5.29696C15.4036 5.33494 15.4789 5.35785 15.7629 5.24039L16.0323 5.13219C16.2714 5.03764 16.5678 4.9201 16.5962 4.84846C16.6113 4.8098 16.6203 4.65719 16.3668 4.08192C15.7187 2.60899 16.4034 2.05808 16.4835 2L16.8787 2.58744L16.6811 2.29372L16.8932 2.57668C16.8897 2.57952 16.5919 2.86824 16.9954 3.78522C17.2518 4.36691 17.3733 4.77243 17.2359 5.12053C17.0942 5.47873 16.7523 5.6141 16.279 5.80185L16.0178 5.90647C15.438 6.14355 15.179 6.06833 14.9247 5.85916C14.8819 5.82476 14.839 5.7911 14.6781 5.82909C14.716 6.32414 14.7471 7.0641 14.6262 7.35425C14.6034 7.41373 14.5869 7.52044 14.5641 7.64155C14.4763 8.11362 14.3768 8.64809 13.9643 8.72831C13.5816 8.80278 13.3218 8.38161 13.2258 8.2225C12.8465 7.59567 12.3428 7.23247 12.0609 7.06477C11.9987 7.18872 11.9304 7.41147 11.9442 7.77757C11.9649 8.31345 11.5987 8.83066 11.2437 9.33072C10.9666 9.72258 10.6516 10.1675 10.6951 10.4296C10.7186 10.5672 10.7366 10.6847 10.7511 10.7857C10.8175 11.2298 10.8175 11.2298 11.0828 11.4304C11.3342 11.621 11.471 12.1296 11.4911 12.9412C11.4938 13.063 11.4925 13.1598 11.489 13.2371C11.6396 13.2773 11.8186 13.3331 12.0673 13.4385C12.7789 13.7408 13.0131 14.1254 13.2397 14.498C13.3724 14.7172 13.4988 14.9235 13.742 15.1377C13.9264 15.3003 14.0805 15.3455 14.2588 15.397C14.7611 15.5439 15.1389 15.7416 15.434 16.9631C15.8755 18.7899 16.2894 19.2628 16.3999 19.2834C16.5471 19.1495 16.6465 19.0628 16.7461 18.9761C17.2172 18.5664 17.6242 18.2124 17.9261 16.9624C18.1071 16.2138 18.1983 16.0447 18.3151 15.8728C18.3821 15.7753 18.465 15.6542 18.7151 14.5116C19.2091 12.2515 19.6844 11.4598 19.7052 11.4267L19.8938 11.1187L20.1874 11.3207C20.3905 11.4604 21.413 12.1925 21.5685 12.8817C21.5934 12.9382 21.7447 13.1066 21.8331 13.1876C22.1447 13.1711 22.3292 12.5128 22.3306 12.5056L22.5 12C22.3708 12.5172 22.4446 14.0379 21.6535 13.889C21.4186 13.8438 20.9605 13.3309 20.8956 13.0444C20.8445 12.8151 20.4749 12.4448 20.1252 12.1589C19.9567 12.5622 19.6789 13.3481 19.3894 14.6691C19.1276 15.8655 19.0225 16.079 18.8803 16.2867C18.8236 16.3691 18.7601 16.4622 18.5977 17.1364C18.2405 18.6122 17.7072 19.0764 17.191 19.5255C17.0991 19.6051 17.0066 19.686 16.9147 19.7734C16.7265 19.9519 16.5421 20 16.397 20Z" fill="#4E4E4E" stroke="#4E4E4E" stroke-width="0.3"/>
<path d="M7.2846 4.99996C7.21306 4.99996 7.14037 4.97278 7.07395 4.89702C6.74768 4.52536 7.58797 3.32599 7.90505 2.87472C7.91876 2.8132 7.99031 2.2809 8.03384 1.85028L8.60276 1.92279C8.48602 3.08714 8.40017 3.21018 8.35378 3.27621C8.29428 3.36039 8.13455 3.6149 7.97254 3.8862C8.50599 3.66408 9.1076 3.59932 9.65888 3.54044C9.79626 3.52553 9.93191 3.51129 10.0618 3.49443C10.1609 3.48215 10.1912 3.45753 10.1912 3.45753C10.1833 3.40957 10.0647 3.15573 10.0018 3.01974C9.87525 2.74709 9.75565 2.48874 9.81974 2.24334C9.9239 1.84704 10.393 1.63795 10.5 1.50001L11 1.42673C10.7316 1.77317 10.4144 2.25434 10.3686 2.42654C10.3801 2.44016 10.4574 2.60718 10.5089 2.71862C10.6657 3.05663 10.8437 3.43997 10.6841 3.78063C10.589 3.98265 10.4019 4.10374 10.126 4.13874C9.99261 4.1556 9.85411 4.17044 9.71327 4.18535C8.98918 4.26306 8.16888 4.35115 7.65098 4.81221C7.5892 4.86726 7.44028 4.99996 7.2846 4.99996Z" fill="#4E4E4E" stroke="#4E4E4E" stroke-width="0.3"/>
<path d="M1.62606 13.0002L1.26953 12.7659C1.44511 12.5072 1.45876 12.1867 1.73272 12.066C2.17699 11.8706 2.35942 11.7593 2.37904 11.4379C2.40474 11.0113 2.8453 10.5136 3.11848 10.2969C3.33569 9.80002 3.91925 8.33081 3.90482 7.95087C3.89954 7.80435 3.87305 7.64328 3.84427 7.46471C3.75582 6.92044 3.6355 6.17479 3.91933 5.20843L4.39397 4.21802L5.00085 4.21777L4.64513 5.42596C4.4105 6.22433 4.5059 6.81811 4.58986 7.34243C4.62471 7.55534 4.65419 7.74773 4.66097 7.92327C4.67083 8.19341 4.18117 9.87561 3.808 10.5923L3.76937 10.6953L3.75424 10.69C3.68769 10.8052 3.62486 10.8823 3.57188 10.9067L3.5666 10.909C3.41601 11.0365 3.14354 11.357 3.13369 11.4845C3.0845 12.3041 2.45331 12.582 2.03476 12.7659C1.86825 12.8392 1.67904 12.9223 1.62606 13.0002Z" fill="#4E4E4E" stroke="#4E4E4E" stroke-width="0.3"/>
<path d="M9.97862 22L9.26867 21.9348C9.44255 20.2239 8.30429 19.5569 7.55165 19.1167C7.15325 18.8834 6.83963 18.7002 6.80185 18.3841C6.74557 17.899 5.36133 17.1378 4.70709 17.1324C3.95015 17.1263 3.90307 16.3027 3.86884 15.7016C3.8482 15.3428 3.82036 14.8515 3.66214 14.7226C3.5994 14.6718 3.48395 14.6759 3.42054 14.6806C3.1269 14.7098 2.17819 15.2795 2 15.5V14.7207C2.29579 14.3543 2.86244 14.0545 3.34712 14.0063C3.65501 13.9778 3.9266 14.0463 4.12618 14.2078C4.51605 14.5259 4.54885 15.1053 4.58094 15.6657C4.59594 15.9146 4.62229 16.3793 4.71354 16.4594C5.56388 16.4615 7.39638 17.3237 7.51194 18.3094C7.53614 18.3115 7.76215 18.443 7.92608 18.5401C8.71784 19.0034 10.1947 19.8671 9.97862 22Z" fill="#4E4E4E" stroke="#4E4E4E" stroke-width="0.3"/>
</g>
<defs>
<clipPath id="clip0_0_695">
<rect width="24" height="24" fill="white"/>
</clipPath>
</defs>
</svg>
