<svg width="227" height="169" viewBox="0 0 227 169" fill="none" xmlns="http://www.w3.org/2000/svg">
<rect width="227" height="169" rx="8" fill="#232323"/>
<rect x="20" y="40" width="88" height="88" rx="44" fill="#1C1C1C"/>
<g clip-path="url(#clip0_542_60004)">
<path d="M89.1887 84.0053C89.1887 80.7496 85.025 77.6643 78.6415 75.7509C80.1146 69.3798 79.4599 64.311 76.575 62.6882C75.9101 62.3075 75.1326 62.1272 74.2835 62.1272V64.3611C74.7541 64.3611 75.1326 64.4513 75.4497 64.6215C76.841 65.4029 77.4446 68.3781 76.974 72.2048C76.8615 73.1464 76.6773 74.1381 76.4523 75.1499C74.4472 74.6691 72.2579 74.2984 69.9562 74.058C68.5751 72.2048 67.1429 70.5218 65.7005 69.0493C69.0355 66.014 72.1659 64.3511 74.2937 64.3511V62.1172C71.4804 62.1172 67.7976 64.0806 64.0739 67.4865C60.3501 64.1006 56.6673 62.1573 53.854 62.1573V64.3911C55.9717 64.3911 59.1123 66.044 62.4473 69.0593C61.0151 70.5318 59.5829 72.2048 58.2223 74.058C55.9103 74.2984 53.7211 74.669 51.716 75.1599C51.4807 74.1582 51.3068 73.1865 51.184 72.2548C50.7032 68.4282 51.2965 65.453 52.6776 64.6616C52.9845 64.4813 53.3835 64.4012 53.854 64.4012V62.1673C52.9947 62.1673 52.2172 62.3476 51.5421 62.7283C48.6674 64.3511 48.0229 69.4099 49.5063 75.761C43.1432 77.6843 39 80.7597 39 84.0053C39 87.261 43.1636 90.3464 49.5472 92.2597C48.0741 98.6308 48.7288 103.7 51.6137 105.322C52.2786 105.703 53.0561 105.883 53.9154 105.883C56.7287 105.883 60.4115 103.92 64.1353 100.514C67.859 103.9 71.5418 105.843 74.3551 105.843C75.2144 105.843 75.9919 105.663 76.6671 105.282C79.5417 103.66 80.1862 98.6007 78.7029 92.2497C85.0455 90.3363 89.1887 87.251 89.1887 84.0053ZM75.8691 77.3237C75.4906 78.6159 75.02 79.9482 74.4881 81.2806C74.0686 80.4792 73.6288 79.6778 73.1479 78.8764C72.6774 78.075 72.1761 77.2936 71.6748 76.5323C73.1275 76.7427 74.529 77.0031 75.8691 77.3237ZM71.1838 87.9923C70.3858 89.3446 69.5674 90.6268 68.7183 91.8189C67.194 91.9491 65.6493 92.0193 64.0943 92.0193C62.5496 92.0193 61.0049 91.9491 59.4908 91.8289C58.6417 90.6369 57.8131 89.3646 57.0151 88.0223C56.2377 86.71 55.5318 85.3777 54.8873 84.0354C55.5215 82.693 56.2377 81.3507 57.0049 80.0384C57.8029 78.686 58.6213 77.4038 59.4704 76.2117C60.9946 76.0815 62.5394 76.0114 64.0943 76.0114C65.6391 76.0114 67.1838 76.0815 68.6979 76.2017C69.547 77.3938 70.3756 78.666 71.1735 80.0084C71.951 81.3206 72.6569 82.653 73.3014 83.9953C72.6569 85.3376 71.951 86.68 71.1838 87.9923ZM74.4881 86.69C75.0405 88.0323 75.5111 89.3747 75.8998 90.6769C74.5597 90.9975 73.1479 91.268 71.685 91.4783C72.1863 90.707 72.6876 89.9156 73.1582 89.1042C73.6288 88.3028 74.0686 87.4914 74.4881 86.69ZM64.1148 97.3786C63.1634 96.4169 62.212 95.3451 61.2708 94.173C62.1915 94.2131 63.1327 94.2431 64.0841 94.2431C65.0457 94.2431 65.9971 94.2231 66.9281 94.173C66.0074 95.3451 65.056 96.4169 64.1148 97.3786ZM56.5036 91.4783C55.051 91.268 53.6494 91.0075 52.3093 90.687C52.6878 89.3947 53.1584 88.0624 53.6904 86.7301C54.1098 87.5315 54.5497 88.3328 55.0305 89.1342C55.5113 89.9356 56.0024 90.717 56.5036 91.4783ZM64.0637 70.632C65.015 71.5937 65.9664 72.6656 66.9076 73.8376C65.9869 73.7975 65.0457 73.7675 64.0943 73.7675C63.1327 73.7675 62.1813 73.7875 61.2504 73.8376C62.1711 72.6656 63.1225 71.5937 64.0637 70.632ZM56.4934 76.5323C55.9921 77.3036 55.4909 78.095 55.0203 78.9064C54.5497 79.7078 54.1098 80.5092 53.6904 81.3106C53.1379 79.9683 52.6674 78.6259 52.2786 77.3237C53.6188 77.0131 55.0305 76.7427 56.4934 76.5323ZM47.2352 89.0741C43.6138 87.5615 41.2711 85.5781 41.2711 84.0053C41.2711 82.4326 43.6138 80.4391 47.2352 78.9365C48.115 78.5658 49.0766 78.2353 50.0689 77.9247C50.652 79.8881 51.4193 81.9317 52.3707 84.0253C51.4295 86.109 50.6725 88.1425 50.0996 90.0959C49.0868 89.7854 48.1252 89.4448 47.2352 89.0741ZM52.739 103.389C51.3477 102.608 50.7441 99.6325 51.2147 95.8059C51.3272 94.8642 51.5114 93.8725 51.7364 92.8607C53.7415 93.3416 55.9308 93.7122 58.2325 93.9526C59.6136 95.8059 61.0458 97.4888 62.4882 98.9614C59.1532 101.997 56.0228 103.66 53.895 103.66C53.4346 103.65 53.0459 103.559 52.739 103.389ZM77.0047 95.7558C77.4855 99.5824 76.8921 102.558 75.5111 103.349C75.2042 103.529 74.8052 103.609 74.3346 103.609C72.217 103.609 69.0764 101.957 65.7414 98.9413C67.1736 97.4688 68.6058 95.7958 69.9664 93.9426C72.2784 93.7022 74.4676 93.3316 76.4727 92.8407C76.708 93.8525 76.8921 94.8242 77.0047 95.7558ZM80.9433 89.0741C80.0635 89.4448 79.1018 89.7754 78.1095 90.0859C77.5264 88.1225 76.7592 86.0789 75.8078 83.9853C76.7489 81.9016 77.506 79.8681 78.0788 77.9147C79.0916 78.2252 80.0532 78.5658 80.9535 78.9365C84.5749 80.4491 86.9176 82.4326 86.9176 84.0053C86.9074 85.5781 84.5647 87.5715 80.9433 89.0741Z" fill="#61DAFB"/>
<path d="M64.0814 88.5837C66.6634 88.5837 68.7565 86.5341 68.7565 84.0057C68.7565 81.4774 66.6634 79.4277 64.0814 79.4277C61.4994 79.4277 59.4062 81.4774 59.4062 84.0057C59.4062 86.5341 61.4994 88.5837 64.0814 88.5837Z" fill="#61DAFB"/>
</g>
<rect x="119" y="40" width="88" height="88" rx="44" fill="#1C1C1C"/>
<path d="M160.647 56.7482C162.047 55.9555 163.832 55.952 165.197 56.7482L186.099 68.531C187.406 69.266 188.281 70.7237 188.269 72.2305V95.8555C188.278 97.4252 187.317 98.9145 185.938 99.6355L165.148 111.364C164.437 111.757 163.634 111.952 162.822 111.93C162.01 111.907 161.218 111.668 160.53 111.236L154.291 107.631C153.866 107.377 153.388 107.176 153.087 106.765C153.353 106.408 153.826 106.362 154.211 106.205C155.079 105.928 155.873 105.505 156.671 105.057C156.872 104.917 157.119 104.969 157.312 105.095L162.632 108.172C163.011 108.391 163.396 108.102 163.722 107.918L184.136 96.398C184.388 96.2755 184.528 96.0095 184.507 95.733V72.3355C184.535 72.0205 184.354 71.7335 184.069 71.6057L163.332 59.928C163.212 59.8453 163.07 59.8009 162.925 59.8006C162.78 59.8003 162.638 59.8441 162.518 59.9262L141.81 71.6285C141.53 71.7562 141.338 72.0397 141.373 72.3547V95.7522C141.348 96.0287 141.495 96.2895 141.749 96.4085L147.282 99.5322C148.322 100.092 149.598 100.407 150.742 99.996C151.243 99.8072 151.674 99.4699 151.978 99.0292C152.282 98.5885 152.443 98.0654 152.441 97.5302L152.447 74.2727C152.422 73.928 152.748 73.6427 153.082 73.6777H155.742C156.092 73.669 156.367 74.04 156.319 74.3865L156.314 97.791C156.316 99.87 155.462 102.131 153.539 103.151C151.169 104.376 148.24 104.119 145.898 102.941L139.948 99.6512C138.548 98.9512 137.608 97.4392 137.617 95.8712V72.2462C137.623 71.4784 137.834 70.726 138.229 70.0672C138.623 69.4085 139.187 68.8672 139.861 68.4995L160.647 56.7482ZM166.674 73.1247C169.696 72.9497 172.932 73.0092 175.652 74.4985C177.757 75.6395 178.924 78.0335 178.963 80.375C178.903 80.69 178.574 80.865 178.273 80.8422C177.398 80.8405 176.52 80.8545 175.641 80.837C175.268 80.851 175.053 80.508 175.006 80.179C174.754 79.059 174.143 77.9512 173.09 77.4105C171.473 76.6002 169.597 76.6405 167.833 76.658C166.545 76.728 165.16 76.8382 164.07 77.5942C163.23 78.1682 162.978 79.3442 163.278 80.2577C163.557 80.928 164.333 81.1432 164.964 81.3427C168.608 82.2947 172.467 82.2177 176.042 83.455C177.521 83.966 178.968 84.96 179.475 86.5087C180.137 88.5842 179.848 91.0657 178.373 92.7317C177.176 94.1037 175.433 94.8317 173.692 95.2552C171.376 95.7715 168.975 95.7837 166.625 95.5527C164.415 95.3007 162.115 94.7197 160.409 93.2147C158.95 91.9477 158.239 89.9737 158.309 88.0697C158.327 87.7477 158.647 87.5237 158.957 87.55H161.582C161.935 87.5255 162.194 87.83 162.212 88.1625C162.374 89.2125 162.775 90.35 163.706 90.9625C165.502 92.121 167.754 92.0405 169.808 92.0737C171.511 91.9985 173.422 91.9757 174.813 90.8487C175.548 90.2065 175.764 89.1337 175.566 88.2097C175.351 87.4292 174.516 87.067 173.816 86.8097C170.22 85.6722 166.317 86.0852 162.756 84.7972C161.31 84.2862 159.912 83.3202 159.357 81.8345C158.582 79.7345 158.938 77.1322 160.57 75.5222C162.145 73.921 164.455 73.3032 166.643 73.0827L166.674 73.1247Z" fill="#8CC84B"/>
<defs>
<clipPath id="clip0_542_60004">
<rect width="50.1887" height="56" fill="white" transform="translate(39 56)"/>
</clipPath>
</defs>
</svg>
