<svg width="90" height="90" viewBox="0 0 90 90" fill="none" xmlns="http://www.w3.org/2000/svg">
<path fill-rule="evenodd" clip-rule="evenodd" d="M82.8991 70.1052C78.0042 69.9689 74.2068 70.4706 71.024 71.8095C70.1075 72.1776 68.6369 72.1776 68.5161 73.331C69.0059 73.815 69.0649 74.6072 69.4943 75.278C70.2283 76.4955 71.5151 78.1356 72.6771 78.9864L76.5939 81.7854C78.981 83.2443 81.674 84.0964 83.9994 85.5566C85.3466 86.4087 86.6924 87.5035 88.0396 88.417C88.7256 88.9037 89.1413 89.6959 89.9987 89.9985V89.8145C89.5707 89.2691 89.4472 88.4783 89.0205 87.8675L87.1822 86.1047C85.4083 83.7324 83.2037 81.6627 80.8166 79.9612C78.8575 78.6224 74.5744 76.7981 73.7787 74.5485L73.658 74.4122C75.0025 74.2759 76.5939 73.8028 77.8807 73.4374C79.9633 72.892 81.8592 73.012 83.9994 72.4653L86.9394 71.6132V71.0678C85.8377 69.973 85.042 68.5128 83.88 67.4793C80.759 64.803 77.3292 62.1866 73.7787 59.997C71.8814 58.7809 69.4326 57.9888 67.4131 56.9567C66.6764 56.5913 65.4541 56.4086 65.026 55.8005C63.9217 54.4644 63.3112 52.6988 62.5155 51.1159L57.497 40.5319C56.3954 38.1595 55.7204 35.7872 54.376 33.5976C48.0707 23.2563 41.214 16.9915 30.686 10.8467C28.4224 9.56917 25.7294 9.01971 22.8662 8.35165L18.2758 8.10624C17.2949 7.68086 16.3168 6.5247 15.4593 5.97662C11.9706 3.78701 2.9723 -0.957608 0.399993 5.29492C-1.25315 9.24876 2.84883 13.1413 4.2413 15.1495C5.28395 16.5484 6.62841 18.1299 7.36512 19.7115C7.77669 20.7449 7.91388 21.8411 8.34329 22.9359C9.32145 25.6122 10.2406 28.594 11.5261 31.089C12.212 32.3665 12.9323 33.7067 13.7897 34.8615C14.2795 35.5432 15.1369 35.835 15.3194 36.9298C14.4619 38.1473 14.403 39.9701 13.9132 41.493C11.7086 48.3673 12.566 56.883 15.6871 61.944C16.668 63.4641 18.9796 66.8113 22.1158 65.5324C24.8706 64.4376 24.2559 60.9705 25.0516 57.9288C25.2369 57.1994 25.1134 56.7126 25.4797 56.2245V56.3609L27.9903 61.4095C29.8876 64.3899 33.1939 67.493 35.9473 69.5626C37.4152 70.6574 38.5786 72.5444 40.4142 73.2124V73.0284H40.2934C39.9258 72.483 39.3743 72.2376 38.8845 71.8122C37.7829 70.7174 36.5591 69.3785 35.7017 68.1624C33.1321 64.7566 30.8685 60.9841 28.8477 57.0916C27.8668 55.2061 27.0093 53.1378 26.2164 51.2522C25.846 50.5214 25.846 49.4253 25.2355 49.0626C24.3163 50.3987 22.9718 51.5576 22.2955 53.1992C21.1321 55.8141 21.0114 59.0386 20.5834 62.3843C20.3364 62.4457 20.4462 62.3843 20.3364 62.5207C18.3801 62.0353 17.7051 60.0257 16.9712 58.3242C15.1356 54.0049 14.8282 47.0707 16.4196 42.082C16.8477 40.8045 18.686 36.7893 17.9521 35.5732C17.5817 34.417 16.3607 33.749 15.6857 32.8355C14.89 31.6793 14.0353 30.2205 13.4838 28.943C12.0159 25.5345 11.2819 21.7647 9.68911 18.3576C8.9524 16.7761 7.66831 15.1332 6.62704 13.6743C5.46367 12.0315 4.18094 10.8753 3.26177 8.92973C2.95584 8.24803 2.5278 7.1655 3.01757 6.43472C3.1383 5.94799 3.38524 5.75302 3.87227 5.64395C4.66797 4.96225 6.93434 5.82665 7.73004 6.18931C9.99367 7.10278 11.891 7.95354 13.7883 9.22968C14.6458 9.83775 15.565 10.9939 16.6666 11.2993H17.9534C19.9125 11.7247 22.1144 11.4357 23.9486 11.981C27.1932 13.0172 30.1304 14.536 32.7645 16.1803C40.7818 21.2289 47.3944 28.4072 51.8613 36.9857C52.5953 38.3845 52.9012 39.662 53.5762 41.1222C54.863 44.1039 56.4544 47.1443 57.7371 50.0661C59.024 52.9251 60.2477 55.8469 62.0833 58.2192C63.0025 59.4967 66.6737 60.1647 68.3255 60.8342C69.5506 61.3795 71.4465 61.8703 72.5509 62.5384C74.6307 63.8159 76.7119 65.2761 78.6696 66.6749C79.6477 67.403 82.7098 68.9245 82.8923 70.138L82.8991 70.1052ZM20.4777 17.2437C19.632 17.2363 18.789 17.3385 17.9699 17.5478V17.6841H18.0906C18.5804 18.6576 19.4378 19.327 20.0497 20.1791L21.4586 23.0995L21.5794 22.9631C22.4368 22.3551 22.8662 21.3816 22.8662 19.9228C22.4985 19.4974 22.4382 19.0707 22.1322 18.6453C21.7646 18.0372 20.9689 17.7318 20.4777 17.2464V17.2437Z" fill="#00678C"/>
</svg>
