<svg width="22" height="22" viewBox="0 0 22 22" fill="none" xmlns="http://www.w3.org/2000/svg">
<path d="M21.1893 16.0886V19.1687C21.1905 19.4547 21.1319 19.7377 21.0173 19.9997C20.9028 20.2617 20.7348 20.4969 20.5241 20.6902C20.3134 20.8835 20.0646 21.0306 19.7937 21.1222C19.5229 21.2138 19.2359 21.2479 18.9511 21.2221C15.7917 20.8788 12.757 19.7993 10.0906 18.0701C7.60989 16.4938 5.50669 14.3906 3.93035 11.9099C2.1952 9.23143 1.11537 6.1819 0.778364 3.00835C0.752707 2.72443 0.786449 2.43828 0.877441 2.16812C0.968434 1.89796 1.11468 1.6497 1.30688 1.43915C1.49907 1.22861 1.733 1.06039 1.99377 0.945206C2.25454 0.830022 2.53644 0.770398 2.82151 0.77013H5.90163C6.3999 0.765226 6.88295 0.94167 7.26075 1.26658C7.63854 1.59148 7.88531 2.04268 7.95504 2.53607C8.08505 3.52177 8.32615 4.48961 8.67374 5.42111C8.81188 5.78859 8.84177 6.18797 8.75989 6.57193C8.678 6.95588 8.48776 7.30831 8.21172 7.58746L6.9078 8.89138C8.36938 11.4618 10.4976 13.59 13.068 15.0516L14.372 13.7477C14.6511 13.4717 15.0035 13.2814 15.3875 13.1995C15.7714 13.1177 16.1708 13.1475 16.5383 13.2857C17.4698 13.6333 18.4377 13.8744 19.4234 14.0044C19.9221 14.0747 20.3776 14.326 20.7032 14.7102C21.0288 15.0945 21.2018 15.5851 21.1893 16.0886Z" stroke="#3EFFB5" stroke-width="1.5" stroke-linecap="round" stroke-linejoin="round"/>
</svg>
