<svg width="90" height="90" viewBox="0 0 90 90" fill="none" xmlns="http://www.w3.org/2000/svg">
<path d="M77.2004 7.7475L44.9616 0L12.7754 7.7475V32.5425H29.8641C29.714 33.7303 29.714 34.9322 29.8641 36.12H12.7754V47.7675C12.7754 74.5013 44.9654 90 44.9654 90C44.9654 90 77.1479 74.5013 77.1479 47.7825V36.1313H60.1041C60.2621 34.944 60.2621 33.741 60.1041 32.5537H77.1966L77.2004 7.7475ZM44.9879 45.9825H44.9654C41.8743 45.9795 38.9109 44.7491 36.7267 42.5618C34.5425 40.3744 33.3164 37.4092 33.3179 34.3181C33.3194 31.227 34.5484 28.263 36.7346 26.0778C38.9209 23.8926 41.8855 22.665 44.9766 22.665C48.0678 22.665 51.0324 23.8926 53.2186 26.0778C55.4049 28.263 56.6339 31.227 56.6354 34.3181C56.6369 37.4092 55.4108 40.3744 53.2266 42.5618C51.0424 44.7491 48.079 45.9795 44.9879 45.9825ZM44.9654 28.8113C44.2871 28.8076 43.6273 29.0329 43.0928 29.4506C42.5583 29.8683 42.1803 30.454 42.0198 31.1131C41.8594 31.7722 41.9259 32.4662 42.2086 33.0828C42.4914 33.6994 42.9738 34.2027 43.5779 34.5112V35.2913L44.4704 36.18V36.7762L45.0666 37.3725V37.9688L44.5416 38.4938L45.1041 39.4162V40.0125L44.5041 40.7213L45.3404 41.5538L46.2629 40.6312V34.5675C46.8919 34.2796 47.4028 33.7842 47.7099 33.1643C48.017 32.5444 48.1016 31.8378 47.9495 31.163C47.7974 30.4881 47.4178 29.8861 46.8745 29.4579C46.3311 29.0297 45.6571 28.8014 44.9654 28.8113ZM44.9654 31.9463C44.7435 31.947 44.5263 31.8819 44.3414 31.7591C44.1566 31.6364 44.0123 31.4615 43.9268 31.2567C43.8414 31.0519 43.8186 30.8263 43.8615 30.6086C43.9043 30.3908 44.0108 30.1907 44.1675 30.0335C44.3241 29.8763 44.5239 29.7691 44.7415 29.7256C44.9591 29.682 45.1848 29.704 45.3899 29.7887C45.595 29.8735 45.7703 30.0172 45.8937 30.2017C46.017 30.3862 46.0829 30.6031 46.0829 30.825C46.0834 30.9722 46.0549 31.1181 45.999 31.2544C45.9431 31.3906 45.8609 31.5145 45.7571 31.6189C45.6534 31.7234 45.53 31.8064 45.3942 31.8632C45.2583 31.92 45.1126 31.9495 44.9654 31.95V31.9463Z" fill="#5DA831"/>
</svg>
