<svg width="90" height="90" viewBox="0 0 90 90" fill="none" xmlns="http://www.w3.org/2000/svg">
<path d="M82.9688 22.0419H65.8306L65.3501 18.0772C65.2194 17.0058 64.7013 16.0191 63.8934 15.3033C63.0856 14.5874 62.0438 14.1917 60.9645 14.1908H55.5345V12.3037C55.5345 -1.61816 34.4655 -1.61816 34.4655 12.3037V14.1906H29.0355C27.9562 14.1916 26.9144 14.5873 26.1066 15.3031C25.2987 16.019 24.7806 17.0056 24.6499 18.0771L24.1694 22.0417H7.03125C5.5399 22.0433 4.11009 22.6365 3.05554 23.691C2.001 24.7455 1.40785 26.1754 1.40625 27.6667V66.3386C1.40785 67.8299 2.001 69.2597 3.05554 70.3143C4.11009 71.3688 5.5399 71.962 7.03125 71.9636H35.5078V78.3H31.6956C25.1966 78.3 25.1935 88.1355 31.6956 88.1355H58.3044C64.8034 88.1355 64.8065 78.3 58.3044 78.3H54.4922V71.9637H82.9688C84.4601 71.9621 85.8899 71.369 86.9445 70.3144C87.999 69.2599 88.5921 67.8301 88.5938 66.3387V27.6669C88.5921 26.1755 87.999 24.7457 86.9445 23.6911C85.8899 22.6366 84.4601 22.0435 82.9688 22.0419ZM58.3044 85.3231H31.6956C31.1402 85.3186 30.6092 85.0948 30.2181 84.7004C29.827 84.3061 29.6075 83.7733 29.6075 83.2179C29.6075 82.6625 29.827 82.1296 30.2181 81.7353C30.6092 81.341 31.1402 81.1172 31.6956 81.1126H58.3044C58.8597 81.1172 59.3908 81.341 59.7819 81.7353C60.173 82.1296 60.3925 82.6625 60.3925 83.2179C60.3925 83.7733 60.173 84.3061 59.7819 84.7004C59.3908 85.0948 58.8597 85.3186 58.3044 85.3231ZM38.3203 78.3001V71.9692H51.6797V78.3001H38.3203ZM37.278 12.3037C37.278 2.09954 52.722 2.09729 52.722 12.3037V14.1906H37.278V12.3037ZM27.4418 18.4149C27.4894 18.0256 27.6777 17.6671 27.9713 17.4071C28.2648 17.1471 28.6434 17.0034 29.0355 17.0031H34.4655V20.6162C34.4655 20.9892 34.6137 21.3468 34.8774 21.6106C35.1411 21.8743 35.4988 22.0224 35.8717 22.0224C36.2447 22.0224 36.6024 21.8743 36.8661 21.6106C37.1298 21.3468 37.278 20.9892 37.278 20.6162V17.0033H52.722V20.6163C52.722 20.9893 52.8702 21.347 53.1339 21.6107C53.3976 21.8744 53.7553 22.0226 54.1283 22.0226C54.5012 22.0226 54.8589 21.8744 55.1226 21.6107C55.3863 21.347 55.5345 20.9893 55.5345 20.6163V17.0033H60.9645C61.3566 17.0035 61.7352 17.1472 62.0287 17.4072C62.3223 17.6673 62.5106 18.0257 62.5582 18.415L66.5249 51.4235C66.5158 51.4342 66.5045 51.4427 66.4916 51.4484C66.4788 51.4541 66.4648 51.4569 66.4508 51.4564H23.5492L23.4508 51.3451L27.4418 18.4149ZM7.03125 24.8544H23.8283L20.6578 51.0074C20.6085 51.4163 20.6465 51.831 20.7692 52.2241C20.892 52.6172 21.0967 52.9799 21.3699 53.2881C21.6431 53.5963 21.9785 53.8431 22.3541 54.0122C22.7296 54.1812 23.1368 54.2687 23.5486 54.2689H66.4508C66.8627 54.2688 67.2699 54.1814 67.6455 54.0123C68.0212 53.8433 68.3567 53.5965 68.6299 53.2883C68.9032 52.9801 69.1079 52.6174 69.2307 52.2242C69.3535 51.8311 69.3915 51.4163 69.3422 51.0074L66.1717 24.8544H82.9688C83.7144 24.8552 84.4293 25.1518 84.9565 25.6791C85.4838 26.2063 85.7804 26.9212 85.7812 27.6669V60.3622H4.21875V27.6669C4.21961 26.9212 4.5162 26.2063 5.04346 25.6791C5.57072 25.1518 6.28559 24.8552 7.03125 24.8544ZM82.9688 69.1512H7.03125C6.28559 69.1504 5.57072 68.8538 5.04346 68.3265C4.5162 67.7993 4.21961 67.0844 4.21875 66.3387V63.1747H85.7812V66.3387C85.7804 67.0844 85.4838 67.7993 84.9565 68.3265C84.4293 68.8538 83.7144 69.1504 82.9688 69.1512ZM36.2769 28.348C36.2769 27.9751 36.425 27.6174 36.6888 27.3537C36.9525 27.0899 37.3102 26.9418 37.6831 26.9418C38.0561 26.9418 38.4138 27.0899 38.6775 27.3537C38.9412 27.6174 39.0894 27.9751 39.0894 28.348C39.0894 38.0624 50.9108 38.0595 50.9108 28.348C50.9108 27.9751 51.0589 27.6174 51.3226 27.3537C51.5864 27.0899 51.944 26.9418 52.317 26.9418C52.69 26.9418 53.0476 27.0899 53.3114 27.3537C53.5751 27.6174 53.7233 27.9751 53.7233 28.348C53.7231 41.7803 36.2769 41.7669 36.2769 28.348Z" fill="#F8FAFC"/>
<path fill-rule="evenodd" clip-rule="evenodd" d="M65.8305 22.0438L65.35 18.0792C65.2192 17.0077 64.7011 16.0211 63.8933 15.3052C63.0854 14.5893 62.0437 14.1937 60.9643 14.1927H55.5343V12.3057C55.5343 -1.61621 34.4653 -1.61621 34.4653 12.3057V14.1926H29.0354C27.956 14.1935 26.9142 14.5892 26.1064 15.3051C25.2986 16.021 24.7805 17.0076 24.6497 18.079L24.1692 22.0437L23.8282 24.8563L20.6577 51.0093C20.6084 51.4182 20.6463 51.8329 20.7691 52.2261C20.8918 52.6192 21.0966 52.9818 21.3697 53.2901C21.6429 53.5983 21.9784 53.8451 22.3539 54.0141C22.7295 54.1832 23.1366 54.2707 23.5485 54.2708H66.4506C66.8625 54.2708 67.2697 54.1833 67.6454 54.0143C68.021 53.8453 68.3565 53.5985 68.6298 53.2903C68.903 52.982 69.1078 52.6194 69.2305 52.2262C69.3533 51.833 69.3913 51.4183 69.342 51.0093L66.1715 24.8563L65.8305 22.0438ZM52.7353 12.3177C52.7353 2.11128 37.2913 2.11353 37.2913 12.3177V14.2046H52.7353V12.3177ZM27.9846 17.4211C27.691 17.6811 27.5027 18.0396 27.4551 18.4288L23.464 51.3591L23.5625 51.4704H66.4641C66.4781 51.4708 66.4921 51.4681 66.5049 51.4624C66.5177 51.4567 66.5291 51.4482 66.5382 51.4375L62.5714 18.429C62.5239 18.0397 62.3355 17.6813 62.042 17.4212C61.7484 17.1612 61.3699 17.0175 60.9777 17.0172H55.5478V20.6303C55.5478 21.0033 55.3996 21.361 55.1359 21.6247C54.8722 21.8884 54.5145 22.0366 54.1415 22.0366C53.7686 22.0366 53.4109 21.8884 53.1472 21.6247C52.8834 21.361 52.7353 21.0033 52.7353 20.6303V17.0172H37.2913V20.6302C37.2913 21.0031 37.1431 21.3608 36.8794 21.6246C36.6157 21.8883 36.258 22.0364 35.885 22.0364C35.5121 22.0364 35.1544 21.8883 34.8907 21.6246C34.6269 21.3608 34.4788 21.0031 34.4788 20.6302V17.0171H29.0488C28.6567 17.0174 28.2781 17.1611 27.9846 17.4211ZM36.7044 27.3675C36.4406 27.6313 36.2925 27.9889 36.2925 28.3619C36.2925 41.7808 53.7387 41.7941 53.7389 28.3619C53.7389 27.9889 53.5907 27.6313 53.327 27.3675C53.0632 27.1038 52.7056 26.9557 52.3326 26.9557C51.9596 26.9557 51.602 27.1038 51.3382 27.3675C51.0745 27.6313 50.9264 27.9889 50.9264 28.3619C50.9264 38.0733 39.105 38.0763 39.105 28.3619C39.105 27.9889 38.9568 27.6313 38.6931 27.3675C38.4294 27.1038 38.0717 26.9557 37.6987 26.9557C37.3258 26.9557 36.9681 27.1038 36.7044 27.3675Z" fill="#17FFA6"/>
</svg>
