<svg width="454" height="413" viewBox="0 0 454 413" fill="none" xmlns="http://www.w3.org/2000/svg">
<g clip-path="url(#clip0_0_4)">
<path d="M441.165 0H13.8353C10.2977 0.002646 6.90579 1.40985 4.40522 3.91232C1.90465 6.41479 0.499999 9.80775 0.5 13.3455V315.18C0.5 318.717 1.90496 322.109 4.40582 324.61C6.90668 327.111 10.2986 328.516 13.8353 328.516H177.842C177.842 328.516 188.273 360.777 155.883 377.426H309.289C309.289 377.426 272.776 364.909 282.169 328.516H441.165C444.701 328.516 448.093 327.111 450.594 324.61C453.095 322.109 454.5 318.717 454.5 315.18V13.3455C454.5 9.80775 453.095 6.41479 450.595 3.91232C448.094 1.40985 444.702 0.002646 441.165 0Z" fill="#4E4E4E"/>
<path d="M231.054 296.774C236.873 305.079 227.77 314.182 219.465 308.363C219.185 308.171 218.942 307.931 218.746 307.654C212.947 299.35 222.04 290.256 230.345 296.056C230.622 296.251 230.862 296.495 231.054 296.774Z" fill="#232323"/>
<path d="M364.766 328.556C364.766 328.706 303.958 328.816 228.957 328.816C153.956 328.816 93.1484 328.706 93.1484 328.556C93.1484 328.406 153.936 328.307 228.957 328.307C303.978 328.307 364.766 328.416 364.766 328.556Z" fill="#232323"/>
<path d="M436.714 5.53027H18.2881C12.5274 5.53027 7.85742 10.2003 7.85742 15.9611V268.477C7.85742 274.237 12.5274 278.908 18.2881 278.908H436.714C442.475 278.908 447.145 274.237 447.145 268.477V15.9611C447.145 10.2003 442.475 5.53027 436.714 5.53027Z" fill="#191919"/>
<path d="M18.378 5.53027H436.604C439.394 5.53027 442.07 6.6387 444.043 8.6117C446.016 10.5847 447.125 13.2607 447.125 16.0509H7.85742C7.85742 13.2607 8.96583 10.5847 10.9388 8.6117C12.9118 6.6387 15.5877 5.53027 18.378 5.53027Z" fill="#2CFFA7"/>
<path d="M17.9282 10.7903C17.9282 11.1851 17.8111 11.5711 17.5918 11.8994C17.3724 12.2277 17.0606 12.4835 16.6958 12.6346C16.3311 12.7857 15.9297 12.8253 15.5424 12.7482C15.1552 12.6712 14.7995 12.4811 14.5203 12.2019C14.2411 11.9227 14.0509 11.567 13.9739 11.1797C13.8969 10.7925 13.9364 10.3911 14.0875 10.0263C14.2386 9.66153 14.4945 9.34974 14.8228 9.13039C15.1511 8.91103 15.537 8.79395 15.9319 8.79395C16.4613 8.79395 16.9691 9.00427 17.3435 9.37865C17.7179 9.75304 17.9282 10.2608 17.9282 10.7903Z" fill="#C7C7C7"/>
<path d="M26.2036 10.7903C26.2036 11.1851 26.0865 11.5711 25.8671 11.8994C25.6478 12.2277 25.336 12.4835 24.9712 12.6346C24.6064 12.7857 24.2051 12.8253 23.8178 12.7482C23.4306 12.6712 23.0748 12.4811 22.7956 12.2019C22.5165 11.9227 22.3263 11.567 22.2493 11.1797C22.1723 10.7925 22.2118 10.3911 22.3629 10.0263C22.514 9.66153 22.7699 9.34974 23.0982 9.13039C23.4265 8.91103 23.8124 8.79395 24.2073 8.79395C24.7367 8.79395 25.2445 9.00427 25.6189 9.37865C25.9933 9.75304 26.2036 10.2608 26.2036 10.7903Z" fill="white"/>
<path d="M34.4673 10.7903C34.4673 11.1851 34.3502 11.5711 34.1308 11.8994C33.9115 12.2277 33.5997 12.4835 33.2349 12.6346C32.8701 12.7857 32.4687 12.8253 32.0815 12.7482C31.6942 12.6712 31.3385 12.4811 31.0593 12.2019C30.7801 11.9227 30.59 11.567 30.513 11.1797C30.4359 10.7925 30.4755 10.3911 30.6266 10.0263C30.7777 9.66153 31.0335 9.34974 31.3618 9.13039C31.6901 8.91103 32.0761 8.79395 32.4709 8.79395C33.0004 8.79395 33.5082 9.00427 33.8826 9.37865C34.2569 9.75304 34.4673 10.2608 34.4673 10.7903Z" fill="#644659"/>
<path d="M46.0153 72.7656H35.9238V74.712H46.0153V72.7656Z" fill="#EBEBE2"/>
<path d="M281.67 72.7656H57.9336V74.712H281.67V72.7656Z" fill="#EBEBE2"/>
<path d="M307.042 72.7656H287.867V74.712H307.042V72.7656Z" fill="#17FFA6"/>
<path d="M383.252 118.642H318.541V120.578H383.252V118.642Z" fill="#EBEBE2"/>
<path d="M406.199 72.7656H311.205V74.712H406.199V72.7656Z" fill="#A6A6A0"/>
<path d="M46.0153 81.9385H35.9238V83.8849H46.0153V81.9385Z" fill="#EBEBE2"/>
<path d="M143.746 81.9385H67.7656V83.8849H143.746V81.9385Z" fill="#A6A6A0"/>
<path d="M313.989 118.642H285.252V120.578H313.989V118.642Z" fill="#A6A6A0"/>
<path d="M130.51 109.468H57.9336V111.414H130.51V109.468Z" fill="#A6A6A0"/>
<path d="M118.682 91.1221H67.7656V93.0685H118.682V91.1221Z" fill="#17FFA6"/>
<path d="M397.135 100.295H300.684V102.231H397.135V100.295Z" fill="#A6A6A0"/>
<path d="M281.659 145.322H185.207V147.259H281.659V145.322Z" fill="#A6A6A0"/>
<path d="M313.59 91.1221H124.33V93.0685H313.59V91.1221Z" fill="#A6A6A0"/>
<path d="M278.685 118.642H57.9336V120.578H278.685V118.642Z" fill="#17FFA6"/>
<path d="M304.896 81.9385H148.516V83.8849H304.896V81.9385Z" fill="#EBEBE2"/>
<path d="M354.416 91.1221H321.676V93.0685H354.416V91.1221Z" fill="#EBEBE2"/>
<path d="M46.0153 91.1221H35.9238V93.0685H46.0153V91.1221Z" fill="#EBEBE2"/>
<path d="M46.0153 100.295H35.9238V102.231H46.0153V100.295Z" fill="#A6A6A0"/>
<path d="M117.584 100.295H57.9336V102.231H117.584V100.295Z" fill="#EBEBE2"/>
<path d="M127.416 127.814H67.7656V129.761H127.416V127.814Z" fill="#EBEBE2"/>
<path d="M370.226 136.987H286.949V138.934H370.226V136.987Z" fill="#17FFA6"/>
<path d="M281.739 136.987H121.715V138.934H281.739V136.987Z" fill="#EBEBE2"/>
<path d="M112.603 136.987H67.7656V138.934H112.603V136.987Z" fill="#A6A6A0"/>
<path d="M307.042 109.468H134.611V111.414H307.042V109.468Z" fill="#EBEBE2"/>
<path d="M414.075 109.468H311.205V111.414H414.075V109.468Z" fill="#17FFA6"/>
<path d="M295.992 100.295H123.641V102.231H295.992V100.295Z" fill="#17FFA6"/>
<path d="M46.0153 109.468H35.9238V111.414H46.0153V109.468Z" fill="#EBEBE2"/>
<path d="M46.0153 118.642H35.9238V120.578H46.0153V118.642Z" fill="#EBEBE2"/>
<path d="M46.0153 127.814H35.9238V129.761H46.0153V127.814Z" fill="#A6A6A0"/>
<path d="M46.0153 136.987H35.9238V138.934H46.0153V136.987Z" fill="#EBEBE2"/>
<path d="M46.0153 145.322H35.9238V147.259H46.0153V145.322Z" fill="#EBEBE2"/>
<path d="M176.285 145.322H57.9336V147.259H176.285V145.322Z" fill="#EBEBE2"/>
<path d="M46.0153 154.495H35.9238V156.442H46.0153V154.495Z" fill="#EBEBE2"/>
<path d="M143.746 154.495H67.7656V156.442H143.746V154.495Z" fill="#A6A6A0"/>
<path d="M130.51 182.015H57.9336V183.951H130.51V182.015Z" fill="#A6A6A0"/>
<path d="M118.682 163.668H67.7656V165.614H118.682V163.668Z" fill="#17FFA6"/>
<path d="M235.276 200.371H184.359V202.318H235.276V200.371Z" fill="#17FFA6"/>
<path d="M118.682 218.717H67.7656V220.663H118.682V218.717Z" fill="#17FFA6"/>
<path d="M313.59 163.668H124.33V165.614H313.59V163.668Z" fill="#A6A6A0"/>
<path d="M278.685 191.188H57.9336V193.124H278.685V191.188Z" fill="#17FFA6"/>
<path d="M304.896 154.495H148.516V156.442H304.896V154.495Z" fill="#EBEBE2"/>
<path d="M338.016 172.842H305.336V174.788H338.016V172.842Z" fill="#EBEBE2"/>
<path d="M46.0153 163.668H35.9238V165.614H46.0153V163.668Z" fill="#EBEBE2"/>
<path d="M46.0153 172.842H35.9238V174.788H46.0153V172.842Z" fill="#A6A6A0"/>
<path d="M117.584 172.842H57.9336V174.788H117.584V172.842Z" fill="#EBEBE2"/>
<path d="M307.042 182.015H134.611V183.951H307.042V182.015Z" fill="#EBEBE2"/>
<path d="M295.992 172.842H123.641V174.788H295.992V172.842Z" fill="#17FFA6"/>
<path d="M46.0153 182.015H35.9238V183.951H46.0153V182.015Z" fill="#EBEBE2"/>
<path d="M46.0153 200.371H35.9238V202.318H46.0153V200.371Z" fill="#EBEBE2"/>
<path d="M176.285 200.371H57.9336V202.318H176.285V200.371Z" fill="#EBEBE2"/>
<path d="M46.0153 209.544H35.9238V211.49H46.0153V209.544Z" fill="#EBEBE2"/>
<path d="M143.746 209.544H67.7656V211.49H143.746V209.544Z" fill="#A6A6A0"/>
<path d="M130.51 237.063H57.9336V239.01H130.51V237.063Z" fill="#A6A6A0"/>
<path d="M313.59 218.717H124.33V220.663H313.59V218.717Z" fill="#A6A6A0"/>
<path d="M338.016 227.891H305.336V229.837H338.016V227.891Z" fill="#EBEBE2"/>
<path d="M46.0153 218.717H35.9238V220.663H46.0153V218.717Z" fill="#EBEBE2"/>
<path d="M46.0153 227.891H35.9238V229.837H46.0153V227.891Z" fill="#A6A6A0"/>
<path d="M117.584 227.891H57.9336V229.837H117.584V227.891Z" fill="#EBEBE2"/>
<path d="M307.042 237.063H134.611V239.01H307.042V237.063Z" fill="#EBEBE2"/>
<path d="M295.992 227.891H123.641V229.837H295.992V227.891Z" fill="#17FFA6"/>
<path d="M46.0153 237.063H35.9238V239.01H46.0153V237.063Z" fill="#EBEBE2"/>
<path d="M40.8153 55.3178C40.8856 55.3805 40.9419 55.4574 40.9804 55.5434C41.0189 55.6294 41.0389 55.7226 41.0389 55.8169C41.0389 55.9111 41.0189 56.0043 40.9804 56.0903C40.9419 56.1763 40.8856 56.2532 40.8153 56.316C40.6897 56.4382 40.5213 56.5063 40.3461 56.5056C40.1585 56.5094 39.9765 56.4415 39.8371 56.316L36.7827 53.3215C36.7827 53.3215 36.7827 53.3215 36.7328 53.2516C36.7271 53.2219 36.7271 53.1914 36.7328 53.1618C36.7328 53.1618 36.7328 53.1618 36.7328 53.1019C36.7328 53.042 36.7328 53.1019 36.7328 53.042V52.8523C36.7313 52.8291 36.7313 52.8057 36.7328 52.7825V52.7126C36.7328 52.7126 36.7328 52.7126 36.7328 52.6627C36.7328 52.6128 36.7328 52.6627 36.7328 52.5828C36.7453 52.5476 36.762 52.5141 36.7827 52.483C36.7959 52.452 36.8165 52.4246 36.8426 52.4032L39.8969 49.4087C40.0297 49.277 40.2091 49.2031 40.396 49.2031C40.583 49.2031 40.7624 49.277 40.8951 49.4087C40.9684 49.4695 41.0274 49.5458 41.0679 49.6321C41.1084 49.7183 41.1293 49.8125 41.1293 49.9077C41.1293 50.003 41.1084 50.0971 41.0679 50.1834C41.0274 50.2697 40.9684 50.3459 40.8951 50.4068L38.3198 52.9621L40.8153 55.3178Z" fill="#17FFA6"/>
<path d="M43.621 55.6673L46.2861 49.4288C46.3176 49.3567 46.3629 49.2915 46.4196 49.2369C46.4762 49.1823 46.5431 49.1395 46.6163 49.1107C46.6895 49.082 46.7677 49.068 46.8463 49.0694C46.925 49.0709 47.0026 49.0879 47.0747 49.1194C47.1457 49.1477 47.2103 49.1901 47.2646 49.2439C47.3188 49.2978 47.3617 49.3621 47.3906 49.4329C47.4195 49.5037 47.4338 49.5796 47.4327 49.6561C47.4315 49.7326 47.415 49.808 47.3841 49.878L44.719 56.1265C44.6682 56.2314 44.5888 56.3199 44.4899 56.3818C44.391 56.4436 44.2766 56.4762 44.16 56.4758C44.0909 56.4901 44.0195 56.4901 43.9504 56.4758C43.8711 56.4505 43.7983 56.408 43.7372 56.3515C43.6761 56.2949 43.6282 56.2257 43.5967 56.1485C43.5653 56.0714 43.5512 55.9884 43.5554 55.9052C43.5596 55.8221 43.582 55.7409 43.621 55.6673Z" fill="#17FFA6"/>
<path d="M52.6036 53.1522L52.5338 53.232L49.4694 56.2265C49.3378 56.3518 49.162 56.42 48.9803 56.4162C48.7988 56.4189 48.6234 56.3509 48.4912 56.2265C48.4222 56.163 48.3672 56.0858 48.3296 55.9999C48.2919 55.914 48.2725 55.8212 48.2725 55.7274C48.2725 55.6337 48.2919 55.5409 48.3296 55.455C48.3672 55.3691 48.4222 55.2919 48.4912 55.2284L51.0764 52.6731L48.4912 50.1178C48.4209 50.055 48.3646 49.9781 48.326 49.8921C48.2875 49.8061 48.2676 49.7129 48.2676 49.6187C48.2676 49.5244 48.2875 49.4312 48.326 49.3452C48.3646 49.2592 48.4209 49.1823 48.4912 49.1196C48.6239 48.9879 48.8033 48.9141 48.9903 48.9141C49.1772 48.9141 49.3566 48.9879 49.4894 49.1196L52.5537 52.1141C52.5798 52.1382 52.6032 52.1649 52.6236 52.1939C52.6236 52.1939 52.6735 52.2538 52.6835 52.2938C52.6806 52.3236 52.6806 52.3537 52.6835 52.3836V52.4535C52.6835 52.4535 52.6835 52.4535 52.6835 52.5134V52.5932C52.6835 52.5932 52.6835 52.6731 52.6835 52.693L52.6036 53.1522Z" fill="#17FFA6"/>
<path d="M440.136 389.463L445.965 411.033L427 412.76L423.018 392.228L440.136 389.463Z" fill="#0C8053"/>
<path d="M426.451 411.013C427.377 411.074 428.307 411.04 429.226 410.913C430.933 410.783 433.289 410.514 435.884 410.184L442.512 409.296C443.435 409.216 444.35 409.059 445.247 408.827C444.321 408.753 443.39 408.787 442.472 408.927C440.755 409.067 438.409 409.326 435.814 409.665L429.186 410.544C428.262 410.612 427.346 410.769 426.451 411.013Z" fill="#2E353A"/>
<g opacity="0.6">
<path d="M445.966 411.033L427.001 412.76L426.701 411.183L445.417 408.797L445.946 410.813" fill="white"/>
</g>
<path d="M436.542 410.075C436.087 407.291 435.488 404.532 434.746 401.81C434.137 399.056 433.391 396.335 432.51 393.655C432.96 396.44 433.56 399.199 434.306 401.92C434.91 404.675 435.656 407.397 436.542 410.075Z" fill="#2E353A"/>
<path d="M427.499 410.874C427.203 409.559 427.203 408.196 427.499 406.881C427.836 405.464 428.554 404.166 429.575 403.128C430.849 401.885 432.513 401.12 434.286 400.962C436.06 400.775 437.846 401.179 439.367 402.11C440.611 402.892 441.641 403.973 442.361 405.254C442.988 406.453 443.394 407.754 443.559 409.097C443.559 409.097 443.559 408.997 443.559 408.808C443.579 408.535 443.579 408.262 443.559 407.989C443.43 406.982 443.126 406.006 442.661 405.104C441.965 403.755 440.934 402.607 439.666 401.771C438.08 400.758 436.197 400.315 434.326 400.513C432.623 400.647 431.011 401.336 429.737 402.473C428.462 403.611 427.595 405.134 427.269 406.811C427.072 407.8 427.072 408.817 427.269 409.806C427.325 410.075 427.405 410.339 427.509 410.594C427.49 410.686 427.486 410.781 427.499 410.874Z" fill="#2E353A"/>
<path d="M361.831 383.673L363.099 402.838C363.099 402.838 344.064 409.156 343.914 412.74L381.186 413.009L380.437 383.064L361.831 383.673Z" fill="#0C8053"/>
<g opacity="0.6">
<path d="M374.568 400.882C374.93 400.977 375.244 401.203 375.449 401.517C375.654 401.83 375.735 402.209 375.676 402.579C375.594 402.946 375.374 403.266 375.061 403.475C374.749 403.683 374.368 403.763 373.999 403.697C373.615 403.591 373.284 403.347 373.07 403.011C372.856 402.676 372.775 402.273 372.841 401.88C372.958 401.502 373.22 401.185 373.569 400.998C373.919 400.812 374.327 400.77 374.707 400.882" fill="white"/>
</g>
<g opacity="0.6">
<path d="M381.186 413.009L381.116 410.015L345.112 411.013C344.735 411.206 344.411 411.49 344.169 411.838C343.927 412.186 343.774 412.588 343.725 413.009H381.186Z" fill="white"/>
</g>
<path d="M362.489 402.668C362.489 402.848 363.418 402.908 364.326 403.467C365.234 404.026 365.743 404.775 365.903 404.695C366.063 404.615 365.773 403.577 364.655 402.918C363.537 402.259 362.449 402.509 362.489 402.668Z" fill="#2E353A"/>
<path d="M358.637 404.405C358.637 404.585 359.395 404.864 360.034 405.623C360.673 406.382 360.883 407.18 361.032 407.16C361.182 407.14 361.292 406.162 360.483 405.164C359.675 404.166 358.637 404.236 358.637 404.405Z" fill="#2E353A"/>
<path d="M356.561 409.157C356.721 409.157 356.95 408.278 356.451 407.29C355.952 406.302 355.094 405.943 355.024 406.092C354.954 406.242 355.493 406.761 355.882 407.58C356.271 408.398 356.371 409.157 356.561 409.157Z" fill="#2E353A"/>
<path d="M362.69 398.266C362.769 398.436 363.598 398.157 364.626 398.196C365.654 398.236 366.473 398.536 366.562 398.376C366.652 398.216 365.854 397.588 364.646 397.558C363.438 397.528 362.59 398.176 362.69 398.266Z" fill="#2E353A"/>
<g opacity="0.3">
<path d="M362.092 387.466L362.311 390.88L380.618 390.162L380.548 387.077L362.092 387.466Z" fill="black"/>
</g>
<path d="M362.5 394.394C363.116 394.547 363.762 394.526 364.367 394.334C365.035 394.19 365.685 393.968 366.303 393.675C366.667 393.496 367.02 393.296 367.361 393.076C367.562 392.946 367.746 392.792 367.91 392.617C368.031 392.481 368.101 392.308 368.11 392.127C368.12 391.945 368.066 391.766 367.96 391.619C367.865 391.495 367.742 391.396 367.602 391.328C367.462 391.261 367.307 391.227 367.151 391.23C366.914 391.231 366.679 391.268 366.453 391.339C366.059 391.454 365.675 391.601 365.305 391.779C364.684 392.079 364.114 392.477 363.618 392.956C362.779 393.785 362.51 394.474 362.62 394.504C362.73 394.534 363.109 393.985 363.967 393.296C364.466 392.891 365.016 392.556 365.604 392.298C365.946 392.145 366.3 392.021 366.662 391.928C367.052 391.819 367.391 391.809 367.501 391.978C367.611 392.148 367.501 392.068 367.501 392.188C367.385 392.317 367.25 392.428 367.102 392.517C366.772 392.747 366.453 392.936 366.103 393.116C365.532 393.418 364.934 393.665 364.317 393.855C363.701 393.997 363.094 394.177 362.5 394.394Z" fill="#2E353A"/>
<path d="M362.749 394.653C363.085 394.11 363.239 393.473 363.188 392.836C363.194 392.157 363.086 391.483 362.869 390.84C362.737 390.451 362.566 390.077 362.36 389.722C362.252 389.478 362.083 389.267 361.87 389.108C361.657 388.949 361.406 388.847 361.142 388.813C360.975 388.823 360.814 388.88 360.679 388.977C360.543 389.074 360.437 389.208 360.373 389.362C360.287 389.584 360.23 389.815 360.204 390.051C360.143 390.468 360.143 390.892 360.204 391.309C360.327 392.003 360.622 392.655 361.062 393.205C361.811 394.154 362.579 394.343 362.599 394.283C362.619 394.224 362.01 393.854 361.421 392.946C361.082 392.422 360.864 391.828 360.782 391.209C360.728 390.852 360.728 390.488 360.782 390.131C360.782 389.732 360.962 389.412 361.112 389.452C361.262 389.492 361.621 389.732 361.791 390.041C361.983 390.359 362.147 390.693 362.28 391.039C362.506 391.632 362.647 392.254 362.699 392.886C362.819 393.944 362.649 394.623 362.749 394.653Z" fill="#2E353A"/>
<path d="M361.831 217.15L418.626 216.721L446.066 396.969L422.499 399.964L392.295 251.756L383.251 400.493L383.231 400.932L357.738 400.493L361.831 217.15Z" fill="#383838"/>
<path d="M387.663 231.763C387.272 231.713 386.879 231.686 386.485 231.683L383.071 231.563L370.794 231.214H370.564V231.483C370.564 235.047 370.564 239.029 370.564 243.262V243.372L370.654 243.451L372.79 245.448L379.089 251.217L379.258 251.367L379.428 251.217C382.552 248.442 385.417 245.897 387.823 243.731L387.893 243.671V243.581C387.893 239.998 387.813 237.063 387.783 234.947C387.783 233.949 387.783 233.21 387.783 232.621C387.801 232.359 387.801 232.095 387.783 231.833C387.747 232.117 387.73 232.404 387.733 232.691C387.733 233.3 387.733 234.089 387.683 235.067C387.683 237.153 387.623 240.058 387.583 243.581L387.653 243.431L379.179 250.848H379.518L373.23 245.058L371.093 243.062L371.173 243.262C371.173 239.029 371.173 235.047 371.173 231.483L370.944 231.713L383.071 231.833H387.473C387.538 231.814 387.602 231.791 387.663 231.763Z" fill="#2D2D2D"/>
<path d="M414.393 230.984C414.043 230.977 413.693 230.993 413.345 231.034L410.291 231.284L399.241 232.282H399.012V232.511C399.431 235.995 399.9 239.958 400.409 244.2V244.3L400.489 244.37L402.944 246.366L408.983 251.167L409.183 251.327L409.333 251.127L415.941 242.783L415.991 242.713V242.633C415.511 239.099 415.122 236.185 414.833 234.079C414.693 233.08 414.583 232.352 414.503 231.763C414.475 231.504 414.429 231.247 414.363 230.994C414.362 231.285 414.382 231.575 414.423 231.863C414.483 232.462 414.563 233.25 414.653 234.228C414.883 236.304 415.202 239.219 415.581 242.683V242.523C413.645 244.949 411.379 247.753 408.914 250.818H409.263L403.274 245.997L400.828 244L400.918 244.18C400.389 239.938 399.92 235.975 399.461 232.491L399.261 232.741L410.141 231.533L413.236 231.164C413.984 231.054 414.374 231.004 414.393 230.984Z" fill="#2D2D2D"/>
<path d="M379.648 258.344C380.538 257.991 381.399 257.571 382.224 257.087C383.781 256.278 385.947 255.15 388.352 253.942C390.758 252.735 392.954 251.697 394.551 250.948C395.431 250.579 396.281 250.146 397.096 249.65C396.165 249.885 395.261 250.22 394.401 250.649C392.764 251.317 390.528 252.315 388.113 253.523C385.697 254.731 383.561 255.909 382.044 256.807C381.196 257.237 380.393 257.752 379.648 258.344Z" fill="#2D2D2D"/>
<path d="M380.377 262.716C381.062 262.595 381.718 262.348 382.313 261.988C385.317 260.454 387.774 258.032 389.35 255.05C389.721 254.461 389.979 253.808 390.109 253.124C388.967 255.136 387.586 257.003 385.997 258.684C384.29 260.246 382.404 261.6 380.377 262.716Z" fill="#2D2D2D"/>
<path d="M364.346 314.801C364.377 315.125 364.462 315.442 364.595 315.739C364.908 316.573 365.306 317.372 365.783 318.125C367.356 320.651 369.672 322.628 372.414 323.785C375.156 324.941 378.188 325.22 381.095 324.583C381.962 324.402 382.809 324.131 383.62 323.774C383.932 323.665 384.222 323.503 384.479 323.295C383.344 323.665 382.192 323.974 381.025 324.223C378.187 324.754 375.255 324.44 372.594 323.32C369.932 322.201 367.658 320.325 366.053 317.925C365.429 316.914 364.859 315.871 364.346 314.801Z" fill="#2D2D2D"/>
<path d="M368.08 313.263C368.737 313.722 369.47 314.06 370.246 314.261C372.078 314.827 373.979 315.143 375.896 315.199C377.805 315.266 379.717 315.152 381.605 314.86C382.393 314.784 383.168 314.606 383.911 314.331C383.911 314.151 380.328 314.84 375.926 314.68C374.047 314.618 372.181 314.36 370.356 313.912C368.948 313.522 368.11 313.183 368.08 313.263Z" fill="#2D2D2D"/>
<path d="M410.301 314.331C410.877 315.019 411.549 315.621 412.297 316.118C415.788 318.705 419.942 320.249 424.275 320.57C425.162 320.675 426.059 320.654 426.94 320.51C426.072 320.357 425.195 320.254 424.315 320.2C420.099 319.686 416.064 318.184 412.537 315.818C411.823 315.277 411.076 314.78 410.301 314.331Z" fill="#2D2D2D"/>
<path d="M415.281 314.122C418.706 314.975 422.316 314.687 425.562 313.303C425.562 313.153 423.287 313.812 420.442 314.032C417.597 314.251 415.301 313.962 415.281 314.122Z" fill="#2D2D2D"/>
<path d="M392.623 253.004C393.422 253.498 394.281 253.887 395.178 254.162C397.304 254.938 399.501 255.506 401.736 255.859C403.97 256.217 406.233 256.364 408.494 256.298C409.432 256.315 410.368 256.211 411.279 255.988C410.349 255.914 409.416 255.894 408.484 255.929C404.009 255.865 399.568 255.152 395.298 253.812C394.424 253.488 393.531 253.218 392.623 253.004Z" fill="#2D2D2D"/>
<path d="M394.18 247.185C394.031 247.185 393.911 247.634 393.901 248.183C393.891 248.732 394.011 249.181 394.151 249.181C394.29 249.181 394.42 248.742 394.42 248.183C394.42 247.624 394.32 247.185 394.18 247.185Z" fill="#2D2D2D"/>
<path d="M394.17 243.192C394.03 243.192 393.911 243.642 393.921 244.191C393.93 244.74 394.04 245.189 394.18 245.189C394.32 245.189 394.44 244.74 394.44 244.191C394.44 243.642 394.32 243.192 394.17 243.192Z" fill="#2D2D2D"/>
<path d="M394.09 239.199C393.95 239.199 393.84 239.658 393.85 240.197C393.86 240.736 394 241.196 394.14 241.196C394.279 241.196 394.389 240.746 394.379 240.197C394.369 239.648 394.23 239.199 394.09 239.199Z" fill="#2D2D2D"/>
<path d="M393.97 235.217C393.83 235.217 393.731 235.666 393.751 236.215C393.771 236.764 393.92 237.213 394.06 237.213C394.2 237.213 394.3 236.764 394.27 236.215C394.24 235.666 394.07 235.207 393.97 235.217Z" fill="#2D2D2D"/>
<path d="M393.691 231.224C393.552 231.224 393.462 231.693 393.502 232.222C393.542 232.751 393.681 233.22 393.821 233.22C393.961 233.22 394.051 232.761 394.021 232.222C393.991 231.683 393.841 231.214 393.691 231.224Z" fill="#2D2D2D"/>
<path d="M393.382 227.241C393.232 227.241 393.163 227.711 393.202 228.24C393.242 228.769 393.402 229.238 393.542 229.238C393.682 229.238 393.771 228.769 393.722 228.24C393.672 227.711 393.522 227.231 393.382 227.241Z" fill="#2D2D2D"/>
<path d="M393.062 223.987C392.923 223.987 392.833 224.297 392.873 224.646C392.913 224.995 393.052 225.275 393.192 225.255C393.332 225.235 393.422 224.946 393.392 224.596C393.362 224.247 393.212 223.967 393.062 223.987Z" fill="#2D2D2D"/>
<path d="M425.173 396.01C425.034 396.01 425.004 396.5 425.114 397.009C425.223 397.518 425.423 397.957 425.563 397.937C425.702 397.917 425.732 397.448 425.623 396.939C425.513 396.43 425.313 395.99 425.173 396.01Z" fill="#2D2D2D"/>
<path d="M424.386 392.098C424.246 392.098 424.226 392.587 424.326 393.096C424.426 393.605 424.636 394.094 424.785 394.025C424.935 393.955 424.945 393.535 424.785 393.026C424.626 392.517 424.526 392.068 424.386 392.098Z" fill="#2D2D2D"/>
<path d="M423.607 388.195C423.467 388.195 423.437 388.684 423.547 389.193C423.657 389.703 423.857 390.192 423.996 390.122C424.136 390.052 424.166 389.633 424.056 389.124C423.946 388.615 423.747 388.195 423.607 388.195Z" fill="#2D2D2D"/>
<path d="M422.82 384.272C422.68 384.272 422.66 384.761 422.76 385.27C422.859 385.78 423.069 386.269 423.219 386.199C423.368 386.129 423.378 385.71 423.269 385.201C423.159 384.692 422.919 384.202 422.82 384.272Z" fill="#2D2D2D"/>
<path d="M422.041 380.349C421.901 380.349 421.871 380.838 421.981 381.347C422.091 381.857 422.29 382.296 422.43 382.276C422.57 382.256 422.6 381.787 422.49 381.278C422.38 380.769 422.18 380.329 422.041 380.349Z" fill="#2D2D2D"/>
<path d="M421.251 376.437C421.111 376.437 421.092 376.926 421.201 377.435C421.311 377.944 421.511 378.433 421.65 378.363C421.79 378.294 421.81 377.874 421.71 377.365C421.611 376.856 421.401 376.407 421.251 376.437Z" fill="#2D2D2D"/>
<path d="M420.472 372.524C420.332 372.524 420.303 373.013 420.412 373.522C420.522 374.031 420.722 374.52 420.862 374.45C421.001 374.38 421.031 373.961 420.921 373.452C420.812 372.943 420.612 372.494 420.472 372.524Z" fill="#2D2D2D"/>
<path d="M419.685 368.611C419.545 368.611 419.525 369.1 419.685 369.609C419.844 370.118 419.994 370.607 420.134 370.537C420.274 370.467 420.294 370.048 420.194 369.539C420.094 369.03 419.834 368.581 419.685 368.611Z" fill="#2D2D2D"/>
<path d="M418.925 364.698C418.786 364.698 418.756 365.187 418.865 365.696C418.975 366.205 419.175 366.644 419.315 366.624C419.454 366.604 419.484 366.135 419.375 365.626C419.265 365.117 419.045 364.668 418.925 364.698Z" fill="#2D2D2D"/>
<path d="M418.128 360.775C417.978 360.775 417.958 361.264 418.068 361.773C418.178 362.282 418.377 362.771 418.517 362.702C418.657 362.632 418.687 362.212 418.577 361.703C418.467 361.194 418.267 360.755 418.128 360.775Z" fill="#2D2D2D"/>
<path d="M417.339 356.863C417.2 356.863 417.17 357.352 417.28 357.861C417.389 358.37 417.589 358.859 417.729 358.789C417.868 358.719 417.898 358.3 417.789 357.791C417.679 357.282 417.479 356.833 417.339 356.863Z" fill="#2D2D2D"/>
<path d="M416.56 352.95C416.42 352.95 416.39 353.439 416.5 353.948C416.61 354.457 416.81 354.946 416.949 354.876C417.089 354.806 417.119 354.387 417.009 353.878C416.9 353.369 416.7 352.92 416.56 352.95Z" fill="#2D2D2D"/>
<path d="M415.771 349.037C415.631 349.037 415.601 349.526 415.711 350.035C415.821 350.544 416.021 351.033 416.16 350.963C416.3 350.893 416.33 350.474 416.22 349.965C416.11 349.456 415.931 349.007 415.771 349.037Z" fill="#2D2D2D"/>
<path d="M414.994 345.114C414.854 345.114 414.824 345.603 414.934 346.112C415.044 346.621 415.243 347.06 415.383 347.04C415.523 347.02 415.553 346.551 415.443 346.042C415.333 345.533 415.133 345.094 414.994 345.114Z" fill="#2D2D2D"/>
<path d="M414.205 341.202C414.065 341.202 414.035 341.691 414.145 342.2C414.255 342.709 414.454 343.198 414.594 343.128C414.734 343.058 414.764 342.639 414.654 342.13C414.544 341.621 414.344 341.172 414.205 341.202Z" fill="#2D2D2D"/>
<path d="M413.425 337.289C413.286 337.289 413.256 337.778 413.365 338.287C413.475 338.796 413.675 339.285 413.815 339.216C413.954 339.146 413.984 338.726 413.875 338.217C413.765 337.708 413.565 337.289 413.425 337.289Z" fill="#2D2D2D"/>
<path d="M412.638 333.375C412.498 333.375 412.478 333.865 412.578 334.374C412.678 334.883 412.887 335.372 413.037 335.302C413.187 335.232 413.197 334.813 413.037 334.304C412.877 333.795 412.778 333.345 412.638 333.375Z" fill="#2D2D2D"/>
<path d="M411.859 329.463C411.719 329.463 411.689 329.952 411.799 330.461C411.909 330.971 412.109 331.41 412.248 331.39C412.388 331.37 412.418 330.901 412.308 330.392C412.198 329.883 411.999 329.433 411.859 329.463Z" fill="#2D2D2D"/>
<path d="M411.07 325.54C410.93 325.54 410.91 326.03 411.01 326.539C411.109 327.048 411.329 327.537 411.469 327.467C411.609 327.397 411.629 326.978 411.529 326.469C411.429 325.96 411.209 325.511 411.07 325.54Z" fill="#2D2D2D"/>
<path d="M410.293 321.627C410.153 321.627 410.123 322.116 410.233 322.626C410.342 323.135 410.542 323.624 410.682 323.554C410.822 323.484 410.852 323.065 410.742 322.556C410.632 322.047 410.432 321.597 410.293 321.627Z" fill="#2D2D2D"/>
<path d="M409.503 317.714C409.363 317.714 409.343 318.203 409.453 318.712C409.563 319.222 409.763 319.711 409.902 319.641C410.042 319.571 410.062 319.152 409.962 318.643C409.863 318.134 409.653 317.684 409.503 317.714Z" fill="#2D2D2D"/>
<path d="M408.724 313.802C408.584 313.802 408.555 314.291 408.664 314.8C408.774 315.309 408.974 315.799 409.113 315.729C409.253 315.659 409.283 315.24 409.173 314.73C409.064 314.221 408.864 313.772 408.724 313.802Z" fill="#2D2D2D"/>
<path d="M407.946 309.879C407.796 309.879 407.776 310.368 407.886 310.877C407.996 311.386 408.196 311.825 408.335 311.795C408.475 311.765 408.505 311.306 408.395 310.797C408.285 310.288 408.086 309.859 407.946 309.879Z" fill="#2D2D2D"/>
<path d="M407.158 305.966C407.018 305.966 406.988 306.455 407.098 306.964C407.208 307.473 407.407 307.963 407.547 307.893C407.687 307.823 407.717 307.404 407.607 306.895C407.497 306.385 407.298 305.936 407.158 305.966Z" fill="#2D2D2D"/>
<path d="M406.38 302.053C406.23 302.053 406.21 302.542 406.32 303.051C406.429 303.56 406.629 304.049 406.769 303.98C406.909 303.91 406.939 303.491 406.829 302.981C406.719 302.472 406.519 302.023 406.38 302.053Z" fill="#2D2D2D"/>
<path d="M405.591 298.14C405.452 298.14 405.422 298.629 405.531 299.138C405.641 299.647 405.841 300.136 405.981 300.067C406.12 299.997 406.15 299.577 406.041 299.068C405.931 298.559 405.731 298.11 405.591 298.14Z" fill="#2D2D2D"/>
<path d="M404.812 294.217C404.672 294.217 404.642 294.707 404.752 295.216C404.862 295.725 405.062 296.164 405.201 296.144C405.341 296.124 405.371 295.655 405.261 295.146C405.151 294.637 404.952 294.197 404.812 294.217Z" fill="#2D2D2D"/>
<path d="M404.023 290.305C403.883 290.305 403.853 290.794 403.963 291.303C404.073 291.812 404.273 292.301 404.412 292.232C404.552 292.162 404.582 291.742 404.472 291.233C404.362 290.724 404.163 290.275 404.023 290.305Z" fill="#2D2D2D"/>
<path d="M403.246 286.382C403.106 286.382 403.076 286.871 403.186 287.38C403.296 287.889 403.495 288.378 403.635 288.308C403.775 288.238 403.805 287.819 403.695 287.31C403.585 286.801 403.385 286.382 403.246 286.382Z" fill="#2D2D2D"/>
<path d="M402.456 282.479C402.317 282.479 402.297 282.968 402.396 283.477C402.496 283.986 402.706 284.475 402.856 284.405C403.005 284.336 403.015 283.916 402.905 283.407C402.796 282.898 402.596 282.449 402.456 282.479Z" fill="#2D2D2D"/>
<path d="M401.677 278.567C401.538 278.567 401.508 279.056 401.617 279.565C401.727 280.074 401.927 280.513 402.067 280.493C402.206 280.473 402.236 280.004 402.126 279.495C402.017 278.986 401.817 278.537 401.677 278.567Z" fill="#2D2D2D"/>
<path d="M400.89 274.644C400.75 274.644 400.73 275.133 400.83 275.642C400.93 276.151 401.139 276.64 401.289 276.57C401.439 276.501 401.449 276.081 401.349 275.572C401.249 275.063 401.03 274.614 400.89 274.644Z" fill="#2D2D2D"/>
<path d="M400.111 270.731C399.971 270.731 399.941 271.22 400.051 271.729C400.161 272.238 400.36 272.727 400.5 272.657C400.64 272.587 400.67 272.168 400.56 271.659C400.45 271.15 400.251 270.701 400.111 270.731Z" fill="#2D2D2D"/>
<path d="M399.322 266.818C399.182 266.818 399.162 267.307 399.272 267.816C399.381 268.325 399.581 268.814 399.721 268.744C399.861 268.674 399.881 268.255 399.781 267.746C399.681 267.237 399.471 266.788 399.322 266.818Z" fill="#2D2D2D"/>
<path d="M398.543 262.906C398.403 262.906 398.373 263.395 398.483 263.904C398.592 264.413 398.792 264.902 398.932 264.832C399.072 264.762 399.102 264.343 398.992 263.834C398.882 263.325 398.682 262.876 398.543 262.906Z" fill="#2D2D2D"/>
<path d="M397.755 258.982C397.615 258.982 397.595 259.471 397.705 259.98C397.815 260.489 398.015 260.978 398.154 260.899C398.294 260.819 398.314 260.41 398.214 259.9C398.114 259.391 397.905 258.962 397.755 258.982Z" fill="#2D2D2D"/>
<path d="M396.966 255.07C396.827 255.07 396.797 255.559 396.906 256.068C397.016 256.577 397.216 257.066 397.356 256.996C397.495 256.926 397.525 256.507 397.416 255.998C397.306 255.489 397.116 255.04 396.966 255.07Z" fill="#2D2D2D"/>
<path d="M318.691 134.332C318.691 134.332 312.043 124.35 311.874 124.28C311.874 124.28 305.885 114.179 303.888 114.179C301.892 114.179 302.611 116.225 304.667 119.848C305.655 121.422 306.333 123.17 306.663 124.999L301.732 127.993C301.732 127.993 298.438 126.726 298.309 129.79C298.355 131.193 298.542 132.587 298.868 133.952C299.067 135.05 299.566 136.208 300.594 135.799C300.852 135.713 301.077 135.549 301.236 135.328C301.396 135.108 301.482 134.843 301.483 134.571C301.543 132.755 301.203 132.086 301.433 132.086C301.662 132.086 304.976 141.608 304.976 141.608L318.691 134.332Z" fill="#EEBD9D"/>
<path d="M305.276 126.517C304.78 126.134 304.249 125.8 303.689 125.518C303.132 125.258 302.512 125.161 301.902 125.239C301.679 125.264 301.464 125.34 301.275 125.462C301.086 125.584 300.927 125.749 300.812 125.942C300.697 126.135 300.629 126.353 300.612 126.577C300.595 126.801 300.63 127.027 300.714 127.235C300.903 127.731 301.177 128.19 301.523 128.593" fill="#EEBD9D"/>
<path d="M307.521 124.5C307.049 124.16 306.548 123.863 306.024 123.612C305.496 123.361 304.906 123.271 304.327 123.352C303.961 123.4 303.625 123.577 303.379 123.851C303.232 124.055 303.139 124.293 303.108 124.542C303.076 124.791 303.108 125.045 303.199 125.279C303.645 125.99 304.156 126.658 304.726 127.275" fill="#EEBD9D"/>
<path d="M316.376 128.672L325.979 149.204L315.398 160.024L309.878 144.722C309.878 144.722 306.884 145.311 305.716 143.345C304.368 141.159 302.602 134.831 302.602 134.831L316.376 128.672Z" fill="#EEBD9D"/>
<path d="M309.519 128.143C309.427 127.107 309.031 126.121 308.381 125.309C307.947 124.707 307.385 124.209 306.734 123.851C306.245 123.582 305.906 123.492 305.876 123.552C305.846 123.612 307.023 124.311 307.962 125.608C308.9 126.906 309.359 128.213 309.519 128.143Z" fill="#D79870"/>
<path d="M298.857 128.233C298.907 128.293 299.237 128.123 299.796 128.023C300.51 127.89 301.249 128.003 301.892 128.343C302.515 128.742 303.046 129.269 303.449 129.89C303.788 130.369 304.018 130.668 304.088 130.638C304.158 130.609 304.038 130.239 303.758 129.7C303.411 128.948 302.848 128.316 302.141 127.884C301.77 127.684 301.361 127.562 300.941 127.524C300.521 127.487 300.097 127.534 299.696 127.664C299.147 127.874 298.827 128.183 298.857 128.233Z" fill="#D79870"/>
<path d="M302.441 125.329C303.23 125.706 303.984 126.15 304.697 126.656C305.765 127.654 306.294 128.722 306.444 128.653C306.304 127.704 305.799 126.848 305.037 126.267C304.53 125.821 303.925 125.502 303.27 125.339C302.761 125.229 302.441 125.269 302.441 125.329Z" fill="#D79870"/>
<path d="M300.075 129.771C299.945 129.771 299.686 130.509 300.195 131.308C300.704 132.106 301.522 132.226 301.532 132.086C301.542 131.946 301.013 131.657 300.634 131.088C300.255 130.519 300.225 129.79 300.075 129.771Z" fill="#D79870"/>
<path d="M318.67 133.932C318.67 133.932 319 127.803 317.522 126.416C316.045 125.028 311.793 126.476 311.793 126.476" fill="#EEBD9D"/>
<path d="M311.195 123.552C312.511 125.972 314.127 128.216 316.006 130.229C314.691 127.809 313.074 125.566 311.195 123.552Z" fill="#D79870"/>
<path d="M396.207 77.087L396.357 124.909L375.834 125.907L375.245 114.279C375.245 114.279 367.959 115.726 366.072 108.958C364.874 104.636 365.174 71.2178 365.174 71.2178L396.207 77.087Z" fill="#EEBD9D"/>
<path d="M362.48 74.5715C365.704 75.4898 366.413 80.7801 366.413 80.7801L371.473 91.9695C374.059 89.9732 377.522 90.063 378.181 94.6047C378.66 97.8786 374.578 98.5474 374.578 98.5474C376.953 102.54 378.57 105.854 382.024 109.697C385.757 113.849 387.853 114.269 391.916 114.338H396.387C396.387 114.338 398.573 107.231 402.626 89.4542C407.128 69.7404 383.811 72.2757 379.489 67.245C372.451 59.0501 352.289 71.6569 362.48 74.5715Z" fill="#3F3F3F"/>
<path d="M402.196 91.3212C405.979 88.7759 406.318 81.6789 404.112 77.4167C402.982 75.2925 401.31 73.5046 399.266 72.2338C397.222 70.9631 394.879 70.2546 392.474 70.1801C391.834 70.2131 391.193 70.1388 390.577 69.9605C389.73 69.5151 389.022 68.8452 388.531 68.024C385.157 63.6321 381.833 59.32 375.555 59.32C374.155 59.2558 372.767 59.6028 371.562 60.3182C370.447 61.082 369.613 62.1898 369.187 63.4724C368.032 62.8486 366.791 62.4012 365.503 62.1448C364.86 62.0182 364.196 62.033 363.558 62.1881C362.92 62.3432 362.324 62.635 361.81 63.0432C361.31 63.4695 360.977 64.0597 360.87 64.7087C360.764 65.3577 360.892 66.0232 361.231 66.5867C360.164 66.5696 359.126 66.9359 358.305 67.619C357.485 68.3021 356.936 69.2569 356.76 70.3098C356.43 72.406 359.435 73.8833 359.754 74.043C359.754 74.043 358.107 77.4966 362.04 79.5728C363.627 80.4112 365.693 79.4031 365.923 79.2833" fill="#3F3F3F"/>
<path d="M387.224 95.9131C386.942 97.1129 386.98 98.3658 387.334 99.5464C387.523 100.765 388.026 101.914 388.791 102.88C388.931 102.81 388.272 101.343 387.843 99.4366C387.414 97.5301 387.374 95.9231 387.224 95.9131Z" fill="#303030"/>
<path d="M384.738 93.5674C384.564 94.7327 384.628 95.9214 384.928 97.061C385.065 98.2337 385.435 99.3672 386.016 100.395C385.928 99.2383 385.734 98.0923 385.437 96.9711C385.313 95.817 385.079 94.6772 384.738 93.5674Z" fill="#303030"/>
<path d="M377.632 85.6719C377.582 85.7417 378.161 86.171 378.9 87.0294C379.85 88.1683 380.6 89.4612 381.115 90.8524C381.622 92.2568 382.032 93.6941 382.343 95.1544C382.426 95.7778 382.597 96.3862 382.852 96.9611C382.89 96.3317 382.84 95.7001 382.703 95.0846C382.499 93.5739 382.128 92.0908 381.595 90.6627C381.063 89.2146 380.237 87.8924 379.169 86.7798C378.753 86.2925 378.226 85.9125 377.632 85.6719Z" fill="#303030"/>
<path d="M374.757 80.3018C374.697 80.3018 374.487 80.7609 374.357 81.5994C374.055 83.8001 374.617 86.0323 375.924 87.8279C376.423 88.4967 376.843 88.8261 376.923 88.7762C376.119 87.5203 375.475 86.169 375.006 84.7536C374.741 83.2855 374.657 81.7903 374.757 80.3018Z" fill="#303030"/>
<path d="M399.252 92.249C399.322 92.3688 399.951 92.1492 400.65 91.7599C401.349 91.3706 401.868 90.9414 401.798 90.8216C401.728 90.7019 401.099 90.9115 400.4 91.3108C399.702 91.71 399.183 92.1193 399.252 92.249Z" fill="#303030"/>
<path d="M389.33 87.1384C389.253 87.8835 389.464 88.6299 389.919 89.2246C390.548 90.2727 391.406 90.8217 391.486 90.7119C391.566 90.6021 390.947 89.9233 390.368 88.9551C389.789 87.9869 389.48 87.1085 389.33 87.1384Z" fill="#303030"/>
<path d="M386.285 85.502C386.306 86.4095 386.63 87.2841 387.203 87.9874C388.022 89.2351 389.06 89.9039 389.14 89.7941C388.673 89.0703 388.17 88.3707 387.633 87.6979C387.23 86.9387 386.779 86.2053 386.285 85.502Z" fill="#303030"/>
<path d="M371.133 65.4787C371.133 65.4787 371.523 65.1793 372.261 64.7601C373.319 64.1968 374.496 63.8923 375.695 63.8717C377.474 63.8257 379.229 64.2972 380.746 65.2292C382.569 66.4209 384.049 68.0693 385.038 70.0104C385.785 71.4347 386.371 72.9379 386.784 74.4922L386.864 74.8016L387.144 74.6519C388.556 73.9114 390.121 73.5114 391.715 73.484C392.983 73.45 394.247 73.6392 395.449 74.043C396.499 74.4429 397.503 74.955 398.443 75.5702C398.251 75.3325 398.021 75.127 397.764 74.9613C397.072 74.4558 396.313 74.0493 395.508 73.7535C394.115 73.2237 392.626 72.9909 391.138 73.07C389.649 73.149 388.194 73.5383 386.864 74.2127L387.224 74.3724C386.817 72.7745 386.224 71.2301 385.457 69.7708C384.433 67.729 382.874 66.0038 380.945 64.78C379.348 63.8261 377.503 63.3675 375.645 63.4624C374.396 63.5143 373.182 63.8892 372.121 64.5504C371.838 64.7293 371.574 64.9367 371.333 65.1693C371.193 65.3556 371.127 65.4588 371.133 65.4787Z" fill="#303030"/>
<path d="M360.344 68.0744C360.344 68.0744 359.775 67.9247 359.167 68.6134C358.818 69.0309 358.65 69.5692 358.697 70.1106C358.751 70.4685 358.887 70.8089 359.095 71.1052C359.303 71.4014 359.577 71.6452 359.895 71.8175C360.649 72.2459 361.539 72.3674 362.381 72.1569C363.314 71.9165 364.189 71.4924 364.956 70.9092C365.759 70.2837 366.599 69.707 367.471 69.1823C368.409 68.6786 369.419 68.3218 370.466 68.1243C372.528 67.7528 374.651 67.8968 376.644 68.5435C378.279 69.0789 379.821 69.8633 381.216 70.8692C382.485 71.8349 383.704 72.8643 384.869 73.9536C384.639 73.5908 384.368 73.2559 384.061 72.9554C383.256 72.0894 382.377 71.2946 381.436 70.5798C380.031 69.5092 378.464 68.6702 376.794 68.0943C374.725 67.4003 372.515 67.2356 370.366 67.6152C369.264 67.8412 368.204 68.2351 367.222 68.7831C366.335 69.3191 365.485 69.9126 364.676 70.5598C363.967 71.1158 363.157 71.5293 362.291 71.7776C361.548 71.9777 360.758 71.8922 360.075 71.538C359.795 71.4015 359.55 71.2013 359.361 70.9535C359.172 70.7056 359.044 70.417 358.987 70.1106C358.928 69.638 359.049 69.1605 359.326 68.7731C359.577 68.4314 359.936 68.185 360.344 68.0744Z" fill="#303030"/>
<path d="M417.06 127.245L442.133 172.083C442.823 174.073 443.007 176.203 442.669 178.281C442.331 180.36 441.481 182.322 440.197 183.991L440.716 183.252C439.714 184.496 438.446 185.5 437.006 186.191C435.565 186.881 433.989 187.242 432.391 187.245H431.902C429.817 187.245 427.777 186.636 426.034 185.492C424.29 184.349 422.92 182.72 422.09 180.807L416.201 171.873L417.06 127.245Z" fill="#0C8053"/>
<path d="M362.759 124.041C367.68 121.526 372.531 120.957 377.831 120.807C384.01 120.627 392.704 119.759 399.352 120.467C399.352 120.467 419.615 119.849 419.714 135.55L417.029 195.839L421.371 221.681L360.653 223.498L361.082 193.014C360.334 177.153 361.931 154.695 361.931 154.695C361.002 146.16 356.331 142.327 355.672 136.728C355.043 131.896 358.367 126.287 362.759 124.041Z" fill="#0C8053"/>
<path d="M379.879 196.718C380.137 197.037 380.436 197.322 380.767 197.566C381.634 198.275 382.559 198.91 383.532 199.463C386.769 201.315 390.42 202.321 394.149 202.387C397.877 202.453 401.563 201.578 404.863 199.842C405.855 199.32 406.803 198.719 407.698 198.045C408.038 197.813 408.347 197.538 408.616 197.227C408.556 197.147 407.219 198.285 404.693 199.513C401.421 201.12 397.813 201.924 394.168 201.86C390.523 201.796 386.945 200.865 383.732 199.143C381.236 197.826 379.939 196.638 379.879 196.718Z" fill="#2E353A"/>
<path d="M419.714 135.55C419.662 135.745 419.638 135.947 419.644 136.149C419.644 136.598 419.574 137.147 419.534 137.856C419.464 139.403 419.365 141.529 419.245 144.124C419.025 149.474 418.716 156.761 418.376 164.806C418.037 172.851 417.688 180.138 417.438 185.498C417.308 188.093 417.199 190.219 417.119 191.766C417.119 192.455 417.069 193.024 417.049 193.473C417.025 193.672 417.025 193.873 417.049 194.072C417.104 193.877 417.137 193.676 417.149 193.473C417.149 193.034 417.248 192.475 417.318 191.776C417.458 190.299 417.618 188.163 417.797 185.518C418.157 180.228 418.546 172.911 418.885 164.836C419.225 156.761 419.464 149.434 419.604 144.134C419.604 141.539 419.694 139.413 419.724 137.856C419.724 137.167 419.724 136.598 419.724 136.149C419.74 135.949 419.736 135.749 419.714 135.55Z" fill="#2E353A"/>
<path d="M311.824 155.523L325.878 146.329L334.742 161.691C334.742 161.691 347.059 144.643 352.619 134.591C357.76 125.378 364.408 122.903 367.592 122.234C367.811 122.188 368.038 122.195 368.254 122.254C368.47 122.314 368.669 122.423 368.835 122.574C369.001 122.725 369.128 122.913 369.207 123.123C369.286 123.333 369.314 123.558 369.289 123.781L364.447 157.01C363.839 158.747 353.697 173.45 348.028 180.846C338.565 193.193 324.631 185.288 320.808 176.644C317.793 169.786 313.122 159.365 311.824 155.523Z" fill="#0C8053"/>
<path d="M330.7 175.585C330.876 174.87 330.967 174.136 330.969 173.399C331.088 171.644 331.315 169.897 331.648 168.169C331.994 166.45 332.6 164.794 333.445 163.258C334.103 162.09 334.662 161.461 334.602 161.401C333.999 161.845 333.498 162.413 333.135 163.068C332.168 164.595 331.491 166.287 331.139 168.059C330.793 169.812 330.616 171.593 330.61 173.379C330.547 174.116 330.577 174.857 330.7 175.585Z" fill="#2E353A"/>
<path d="M326.587 168.699C326.677 168.699 326.737 167.98 327.086 166.892C327.547 165.487 328.314 164.201 329.332 163.129C330.28 162.003 331.616 161.273 333.075 161.083C333.682 161.078 334.285 161.186 334.852 161.402C334.624 161.162 334.345 160.976 334.036 160.857C333.727 160.738 333.395 160.689 333.065 160.713C332.277 160.758 331.507 160.963 330.801 161.317C330.096 161.67 329.47 162.165 328.963 162.769C327.886 163.884 327.119 165.26 326.737 166.762C326.532 167.386 326.481 168.05 326.587 168.699Z" fill="#2E353A"/>
<path d="M368.54 126.336C368.54 126.336 368.64 126.486 368.87 126.726L369.309 127.165L369.838 127.814C370.953 129.212 371.78 130.816 372.273 132.535C373.012 135.081 373.196 137.757 372.812 140.38C372.61 141.928 372.204 143.442 371.605 144.882C370.922 146.42 370.162 147.922 369.329 149.384C365.895 155.433 362.342 160.653 359.786 164.426C358.519 166.253 357.48 167.75 356.702 168.858C356.3 169.386 355.926 169.936 355.584 170.505C355.584 170.505 355.724 170.385 355.943 170.126C356.163 169.866 356.472 169.487 356.862 168.978C357.66 167.98 358.758 166.492 360.086 164.636C362.731 160.913 366.324 155.712 369.788 149.663C370.629 148.181 371.392 146.655 372.074 145.092C372.686 143.614 373.092 142.059 373.281 140.47C373.656 137.793 373.431 135.065 372.623 132.485C372.097 130.718 371.21 129.079 370.017 127.674L369.439 127.045L368.959 126.636C368.69 126.426 368.55 126.316 368.54 126.336Z" fill="#2E353A"/>
<g opacity="0.3">
<path d="M384.21 199.422C379.728 197.426 376.225 192.694 376.065 187.953C375.998 187.317 376.061 186.674 376.249 186.064C376.438 185.453 376.749 184.887 377.163 184.399C378.491 183.092 380.727 183.341 382.374 184.2C385.089 185.627 386.865 188.302 388.772 190.708C390.678 193.113 393.104 195.469 396.158 195.759C397.472 195.796 398.787 195.699 400.081 195.469C401.382 195.236 402.724 195.396 403.934 195.928C404.53 196.211 405.013 196.688 405.303 197.281C405.593 197.874 405.674 198.548 405.531 199.192C405.531 199.192 400.161 202.526 394.551 202.187C390.972 201.859 387.475 200.924 384.21 199.422Z" fill="black"/>
</g>
<path d="M368.5 214.624C368.634 214.704 368.778 214.764 368.929 214.804L370.187 215.243C370.736 215.433 371.415 215.652 372.183 215.862C372.952 216.071 373.88 216.351 374.888 216.57C377.256 217.136 379.651 217.575 382.065 217.888C387.982 218.657 393.972 218.673 399.892 217.938C402.306 217.642 404.702 217.215 407.069 216.66C408.067 216.451 408.986 216.181 409.784 215.972C410.583 215.762 411.261 215.542 411.78 215.363L413.048 214.933C413.2 214.891 413.344 214.827 413.477 214.744C413.322 214.758 413.168 214.788 413.018 214.834L411.721 215.163C411.172 215.323 410.483 215.512 409.724 215.692C408.966 215.872 408.017 216.111 406.999 216.301C405.003 216.74 402.557 217.139 399.842 217.459C396.902 217.787 393.947 217.953 390.989 217.958C388.03 217.933 385.074 217.75 382.135 217.409C379.42 217.08 376.994 216.66 374.978 216.211C373.98 216.021 373.062 215.772 372.263 215.582C371.465 215.393 370.786 215.213 370.267 215.053L368.979 214.704C368.825 214.65 368.663 214.623 368.5 214.624Z" fill="#2E353A"/>
</g>
<defs>
<clipPath id="clip0_0_4">
<rect width="454" height="413" fill="white"/>
</clipPath>
</defs>
</svg>
