<svg width="90" height="90" viewBox="0 0 90 90" fill="none" xmlns="http://www.w3.org/2000/svg">
<g clip-path="url(#clip0_0_4316)">
<path d="M35.1567 88.8049C34.0917 88.8049 32.529 88.3703 29.9954 87.431L29.7448 87.3383C27.5538 86.5494 25.4102 85.5806 23.3737 84.4614C22.3713 83.9121 21.3578 83.3037 20.3629 82.6494C20.0121 82.4201 19.7738 82.0541 19.7058 81.6387C19.6386 81.2233 19.7464 80.7983 20.0059 80.4701C24.5794 74.6415 26.997 69.9498 26.997 66.8999C26.997 62.1396 24.5691 57.7824 20.6616 55.5276C20.2929 55.3147 20.0313 54.9549 19.9434 54.5395C19.8548 54.1221 19.9475 53.6888 20.1995 53.3442C22.1557 50.665 23.1471 47.6219 23.1471 44.2981C23.1471 43.1308 22.7537 42.1874 21.9456 41.415C19.9626 39.522 15.4193 38.5985 9.46641 38.8725C6.50231 39.0118 3.72017 38.1034 1.64866 36.3258C1.22571 35.9626 1.03964 35.3941 1.16391 34.8517C3.84307 23.2452 11.2118 12.9838 21.3846 6.69923C22.28 6.14582 23.5522 6.29893 25.9176 7.24096C27.0107 7.67421 28.0035 8.29491 28.8659 9.08383C30.3318 10.4234 31.4414 12.2745 32.1658 14.5891C33.0213 17.3094 34.0931 22.9602 32.6862 26.8629C32.5695 27.187 32.415 27.4939 32.2578 27.8015L32.1177 28.0748C31.1592 30.0337 31.2794 32.2563 32.4466 34.176C33.6962 36.2345 35.9339 37.548 38.2828 37.6036C42.5487 37.7045 48.5229 39.6106 52.7524 48.1136C53.1109 48.8352 53.4185 49.5623 53.6656 50.2709C57.2957 60.6888 49.6599 67.3709 42.9202 73.2676C41.2648 74.7163 39.7 76.084 38.3412 77.4689C37.4596 78.367 36.9432 79.2356 36.808 80.0458C36.7002 80.7029 36.8114 81.4629 36.9295 82.267L36.981 82.6151C37.1815 84.0281 37.2941 85.4693 37.3195 86.8975C37.3305 87.5079 37.051 88.0599 36.558 88.4108C36.19 88.6689 35.7506 88.8049 35.1567 88.8049ZM23.3792 81.0043C23.8592 81.2934 24.3412 81.5707 24.8177 81.8337C26.7182 82.8774 28.7176 83.7816 30.7623 84.5184L31.0384 84.6186C32.6457 85.2146 33.6495 85.516 34.2702 85.6629C34.2194 84.7841 34.1322 83.9032 34.0093 83.0346L33.9613 82.7002C33.8219 81.7493 33.6646 80.6713 33.8487 79.5535C34.0862 78.1212 34.8779 76.7109 36.201 75.3645C37.6394 73.8985 39.2454 72.4951 40.9468 71.0072C47.2644 65.4786 53.7995 59.7619 50.834 51.2562C50.6288 50.665 50.3692 50.056 50.0678 49.4456C46.5036 42.2835 41.6527 40.6817 38.2121 40.602C34.8511 40.521 31.6604 38.6555 29.8828 35.7333C28.1745 32.9209 28.0083 29.6478 29.4241 26.7545L29.5924 26.4235C29.6899 26.234 29.7929 26.0452 29.8649 25.844C30.8097 23.2225 30.3003 18.649 29.3054 15.4858C28.7403 13.6827 27.9122 12.2745 26.8445 11.2981C26.2506 10.755 25.5661 10.3293 24.8101 10.0279C23.5776 9.53699 22.9762 9.41683 22.7393 9.38868C13.6314 15.0944 6.96578 24.2257 4.31546 34.5859C5.71065 35.5053 7.4519 35.964 9.32841 35.874C14.1821 35.6522 20.6719 36.0484 24.0171 39.2432C25.4301 40.5931 26.1469 42.2925 26.1469 44.2967C26.1469 47.683 25.2365 50.9383 23.498 53.7987C27.5415 56.747 29.9968 61.6295 29.9968 66.8985C29.9988 70.4209 27.7728 75.1605 23.3792 81.0043Z" fill="#F8FAFC"/>
<path d="M44.9998 90.0014C36.218 90.0014 27.6999 87.4609 20.3662 82.6532C20.0154 82.4239 19.7771 82.0579 19.7098 81.6425C19.6419 81.2271 19.7503 80.8028 20.0092 80.4739C24.5841 74.6453 27.0023 69.9523 27.0023 66.9031C27.0023 59.7905 21.6186 54.0037 15.0031 54.0037C11.0112 54.0037 7.29178 56.1322 5.05411 59.6957C4.74445 60.186 4.178 60.4544 3.60811 60.3871C3.03204 60.3185 2.5473 59.925 2.3626 59.3764C0.799872 54.7308 0.00683594 49.8964 0.00683594 45.0036C0.00683594 20.1922 20.1925 0.00585938 45.0046 0.00585938C52.2552 0.00585938 59.1907 1.68943 65.6194 5.00988C66.0245 5.21998 66.3108 5.60105 66.4008 6.04666C66.4907 6.49159 66.3719 6.95368 66.0815 7.30316C64.0965 9.6809 63.0034 12.7343 63.0034 15.9037C63.0034 21.3979 70.863 30.9212 74.9964 35.3327C76.7205 33.4802 80.2147 29.559 82.9941 25.3816C83.2928 24.9319 83.807 24.7012 84.3474 24.7156C84.8843 24.7534 85.3615 25.0775 85.595 25.5636C88.5199 31.6573 90.0023 38.1986 90.0023 45.0022C89.9975 69.8157 69.8118 90.0014 44.9998 90.0014ZM23.3811 81.0067C29.906 84.9335 37.3454 87.0015 44.9998 87.0015C68.1571 87.0015 86.9977 68.1609 86.9977 45.0036C86.9977 39.5354 85.9719 34.2478 83.9437 29.2548C80.2703 34.287 76.2564 38.3641 76.0648 38.5591C75.5025 39.1303 74.4959 39.1303 73.9315 38.5591C73.3637 37.9844 59.9988 24.3771 59.9988 15.9037C59.9988 12.6759 60.9319 9.53945 62.6539 6.89669C57.1054 4.31228 51.1765 3.00429 44.9998 3.00429C21.8424 3.00429 3.00183 21.8449 3.00183 45.0022C3.00183 48.6124 3.4653 52.1904 4.38055 55.6729C7.1675 52.706 10.9679 51.0018 15.001 51.0018C23.272 51.0018 30.0008 58.1344 30.0008 66.901C30.0008 70.422 27.7748 75.1616 23.3811 81.0067Z" fill="#F8FAFC"/>
<path d="M58.2585 87.9351C57.7429 87.9351 57.2492 87.6687 56.9732 87.208L53.3795 81.2187C52.2967 79.4246 52.5473 77.8859 52.949 76.9136C54.4952 73.1579 61.0022 71.291 62.2292 70.9683C62.7538 70.7252 65.6533 69.2346 65.6533 66.0288C65.6533 65.9327 65.6623 65.8352 65.6822 65.7411C65.7824 65.2268 68.2425 53.1699 76.085 53.1699C78.379 53.1699 81.2497 53.4013 83.1022 55.2057L86.8847 58.9883C87.2987 59.4009 87.434 60.0189 87.2315 60.5675C82.4732 73.4716 71.8136 83.6754 58.7179 87.8637C58.5648 87.9111 58.4116 87.9351 58.2585 87.9351ZM68.6504 66.197C68.5467 71.5594 63.507 73.6893 63.2893 73.7779C63.2248 73.806 63.1561 73.8273 63.0868 73.8452C60.6555 74.4604 56.5056 76.1487 55.7208 78.0568C55.5801 78.4001 55.4778 78.8938 55.9488 79.6724L58.9232 84.6311C70.3298 80.6158 79.6224 71.6762 84.0724 60.424L80.9902 57.3411C80.1621 56.5357 78.644 56.1697 76.0809 56.1697C71.0844 56.1684 68.9099 65.0462 68.6504 66.197Z" fill="#F8FAFC"/>
<path d="M74.993 22.5049C70.8576 22.5049 67.4932 19.1412 67.4932 15.0057C67.4932 10.8703 70.8576 7.50586 74.993 7.50586C79.1278 7.50586 82.4922 10.8703 82.4922 15.0057C82.4922 19.1412 79.1278 22.5049 74.993 22.5049ZM74.993 10.5057C72.5116 10.5057 70.493 12.525 70.493 15.0057C70.493 17.4864 72.5116 19.5051 74.993 19.5051C77.4737 19.5051 79.4924 17.4864 79.4924 15.0057C79.4924 12.525 77.4737 10.5057 74.993 10.5057Z" fill="#F8FAFC"/>
<path d="M74.9948 39.0044C74.5938 39.0044 74.21 38.8458 73.9278 38.5595C73.36 37.9848 59.9951 24.3775 59.9951 15.904C59.9951 7.1374 66.7239 0.00488281 74.9948 0.00488281C83.2651 0.00488281 89.9938 7.1374 89.9938 15.904C89.9938 24.3761 76.6296 37.9848 76.0611 38.5595C75.7789 38.8458 75.3951 39.0044 74.9948 39.0044ZM74.9948 3.00675C68.3786 3.00675 62.9949 8.79144 62.9949 15.9061C62.9949 21.4031 70.8621 30.9319 74.9948 35.3406C79.1268 30.9292 86.994 21.3969 86.994 15.9061C86.994 8.79144 81.611 3.00675 74.9948 3.00675Z" fill="#17FFA6"/>
<path d="M15.004 73.5026C10.8693 73.5026 7.50488 70.1382 7.50488 66.0028C7.50488 61.8673 10.8693 58.5029 15.004 58.5029C19.1395 58.5029 22.5039 61.8673 22.5039 66.0028C22.5039 70.1382 19.1395 73.5026 15.004 73.5026ZM15.004 61.5027C12.5233 61.5027 10.5047 63.5221 10.5047 66.0028C10.5047 68.4835 12.5233 70.5028 15.004 70.5028C17.4855 70.5028 19.5041 68.4835 19.5041 66.0028C19.5041 63.5221 17.4855 61.5027 15.004 61.5027Z" fill="#F8FAFC"/>
<path d="M14.999 90.0015C14.5987 90.0015 14.2149 89.8429 13.9327 89.5565C13.3642 88.9818 0 75.3746 0 66.9011C0 58.1345 6.72879 51.002 14.999 51.002C23.2699 51.002 29.9987 58.1345 29.9987 66.9011C29.9987 75.3732 16.6338 88.9818 16.066 89.5565C15.7838 89.8429 15.4 90.0015 14.999 90.0015ZM14.999 54.0038C8.38284 54.0038 2.9998 59.7885 2.9998 66.9032C2.9998 72.4002 10.867 81.929 14.999 86.3377C19.1317 81.9262 26.9989 72.394 26.9989 66.9032C26.9989 59.7885 21.6152 54.0038 14.999 54.0038Z" fill="#17FFA6"/>
<path d="M32.9971 61.5032C32.73 61.5032 32.4594 61.4311 32.215 61.2842C31.5085 60.8523 31.2853 59.9302 31.7172 59.2223C31.755 59.1605 32.6641 57.6788 34.3208 55.4061C34.8104 54.7387 35.7476 54.5891 36.4164 55.0779C37.0858 55.5654 37.2328 56.5026 36.7453 57.1714C35.1674 59.3342 34.2851 60.7699 34.2762 60.785C33.994 61.2485 33.5024 61.5032 32.9971 61.5032Z" fill="#17FFA6"/>
<path d="M40.4003 51.7105C40.0494 51.7105 39.6965 51.5869 39.4115 51.337C38.7895 50.7905 38.7277 49.8429 39.2735 49.2202C41.0766 47.1686 42.9394 45.2502 44.8097 43.5179C45.416 42.9569 46.3669 42.9878 46.9292 43.6017C47.4916 44.2093 47.4559 45.1582 46.8469 45.7212C45.0514 47.3801 43.2621 49.225 41.5263 51.2004C41.2311 51.5361 40.817 51.7105 40.4003 51.7105ZM51.8701 41.1971C51.3991 41.1971 50.9343 40.9767 50.6431 40.5613C50.1659 39.883 50.328 38.9471 51.0063 38.4706C53.3223 36.8385 55.6664 35.4749 57.9734 34.4175C58.7259 34.0742 59.6171 34.4011 59.9618 35.1556C60.3072 35.9082 59.9769 36.7994 59.2244 37.1448C57.0835 38.1252 54.9001 39.3975 52.7339 40.9225C52.4702 41.1072 52.1688 41.1971 51.8701 41.1971Z" fill="#17FFA6"/>
<path d="M66.0139 34.9073C65.2998 34.9073 64.6681 34.3979 64.539 33.6714C64.3942 32.8571 64.9366 32.0785 65.753 31.9316C67.3335 31.65 68.9299 31.5059 70.494 31.5059C71.3221 31.5059 71.9943 32.176 71.9943 33.0054C71.9943 33.8348 71.3221 34.5057 70.494 34.5057C69.105 34.5057 67.6878 34.6334 66.281 34.8854C66.191 34.8998 66.1025 34.9073 66.0139 34.9073Z" fill="#17FFA6"/>
</g>
<defs>
<clipPath id="clip0_0_4316">
<rect width="90" height="90" fill="white"/>
</clipPath>
</defs>
</svg>
