<svg width="34" height="34" viewBox="0 0 34 34" fill="none" xmlns="http://www.w3.org/2000/svg">
<path d="M6.49225 17.8652C6.16352 17.3283 6.16352 16.6717 6.49225 16.1348C7.75946 14.0653 11.43 9 17 9C22.57 9 26.2405 14.0653 27.5077 16.1348C27.8365 16.6717 27.8365 17.3283 27.5077 17.8652C26.2405 19.9347 22.57 25 17 25C11.43 25 7.75946 19.9347 6.49225 17.8652Z" stroke="#969696" stroke-width="1.5" stroke-linecap="round" stroke-linejoin="round"/>
<path d="M17 20C18.6569 20 20 18.6569 20 17C20 15.3431 18.6569 14 17 14C15.3431 14 14 15.3431 14 17C14 18.6569 15.3431 20 17 20Z" stroke="#969696" stroke-width="1.5" stroke-linecap="round" stroke-linejoin="round"/>
</svg>
