<svg width="472" height="56" viewBox="0 0 472 56" fill="none" xmlns="http://www.w3.org/2000/svg">
<rect x="0.5" y="0.5" width="55" height="55" rx="7.5" fill="#1C1C1C"/>
<rect x="0.5" y="0.5" width="55" height="55" rx="7.5" stroke="#4E4E4E"/>
<rect x="80.5" y="0.5" width="55" height="55" rx="7.5" fill="#1C1C1C"/>
<rect x="80.5" y="0.5" width="55" height="55" rx="7.5" stroke="#4E4E4E"/>
<rect x="160.5" y="0.5" width="55" height="55" rx="7.5" fill="#1C1C1C"/>
<rect x="160.5" y="0.5" width="55" height="55" rx="7.5" stroke="#4E4E4E"/>
<rect x="256.5" y="0.5" width="55" height="55" rx="7.5" fill="#1C1C1C"/>
<rect x="256.5" y="0.5" width="55" height="55" rx="7.5" stroke="#4E4E4E"/>
<rect x="336.5" y="0.5" width="55" height="55" rx="7.5" fill="#1C1C1C"/>
<rect x="336.5" y="0.5" width="55" height="55" rx="7.5" stroke="#4E4E4E"/>
<rect x="416.5" y="0.5" width="55" height="55" rx="7.5" fill="#1C1C1C"/>
<rect x="416.5" y="0.5" width="55" height="55" rx="7.5" stroke="#4E4E4E"/>
</svg>
