<svg width="165" height="90" viewBox="0 0 165 90" fill="none" xmlns="http://www.w3.org/2000/svg">
<g clip-path="url(#clip0_0_2764)">
<path d="M67.7129 72.4792C67.7375 73.0252 67.7212 73.5816 67.6687 74.1466C67.0266 80.9585 60.9831 86.481 54.1705 86.481C47.3578 86.481 42.3558 80.9585 42.9979 74.1466C43.0504 73.5816 43.1413 73.0252 43.2681 72.4792" stroke="#F8FAFC" stroke-width="2.54717" stroke-miterlimit="10" stroke-linecap="round" stroke-linejoin="round"/>
<path d="M59.7617 72.4832C59.9131 73.0012 59.9712 73.5634 59.9162 74.1505C59.6761 76.6967 57.4192 78.7607 54.8728 78.7607C52.3264 78.7607 50.4579 76.6967 50.6974 74.1505C50.7527 73.5607 50.9151 72.9984 51.166 72.4832" stroke="#F8FAFC" stroke-width="2.54717" stroke-miterlimit="10" stroke-linecap="round" stroke-linejoin="round"/>
<path d="M153.265 72.4792C153.29 73.0252 153.273 73.5816 153.22 74.1466C152.578 80.9585 146.535 86.481 139.722 86.481C132.91 86.481 127.908 80.9585 128.55 74.1466C128.602 73.5816 128.693 73.0252 128.82 72.4792" stroke="#F8FAFC" stroke-width="2.54717" stroke-miterlimit="10" stroke-linecap="round" stroke-linejoin="round"/>
<path d="M145.32 72.4832C145.472 73.0012 145.53 73.5634 145.475 74.1505C145.235 76.6967 142.978 78.7607 140.431 78.7607C137.885 78.7607 136.017 76.6967 136.256 74.1505C136.311 73.5607 136.477 72.9984 136.727 72.4832" stroke="#F8FAFC" stroke-width="2.54717" stroke-miterlimit="10" stroke-linecap="round" stroke-linejoin="round"/>
<path d="M20.7148 3.05234H114.027C119.681 3.05234 123.652 3.03559 123.119 8.68849L118.696 62.1143" stroke="#F8FAFC" stroke-width="2.54717" stroke-miterlimit="10" stroke-linecap="round" stroke-linejoin="round"/>
<path d="M161.596 52.292L160.671 62.1001H118.765L122.37 23.8576H137.955C138.924 23.8576 139.809 24.262 140.393 24.9757L156.055 44.0507L160.911 49.9657C161.433 50.5995 161.677 51.4289 161.596 52.292Z" stroke="#F8FAFC" stroke-width="2.54717" stroke-miterlimit="10" stroke-linecap="round" stroke-linejoin="round"/>
<path d="M156.039 44.0459H138.107C136.097 44.0459 134.62 42.4175 134.809 40.4054L136.37 23.8528H137.939C138.908 23.8528 139.792 24.2573 140.377 24.9709L156.039 44.0459Z" stroke="#F8FAFC" stroke-width="2.54717" stroke-miterlimit="10" stroke-linecap="round" stroke-linejoin="round"/>
<path d="M49.9111 62.1122H160.412C161.352 62.1122 162.043 62.8744 161.954 63.8148L161.297 70.7856C161.208 71.7258 160.374 72.4883 159.434 72.4883H36.5501C35.6097 72.4883 34.919 71.7258 35.0077 70.7856L35.6649 63.8148C35.7536 62.8744 36.588 62.1122 37.5284 62.1122H51.5485" stroke="#F8FAFC" stroke-width="2.54717" stroke-miterlimit="10" stroke-linecap="round" stroke-linejoin="round"/>
<path d="M160.56 62.1143H157.931C155.411 62.1143 153.56 60.0709 153.798 57.551C154.035 55.0308 156.271 52.988 158.792 52.988H161.421L160.56 62.1143Z" stroke="#F8FAFC" stroke-width="2.54717" stroke-miterlimit="10" stroke-linecap="round" stroke-linejoin="round"/>
<path d="M38.1721 14.8813H9.92791C9.22445 14.8813 8.6543 14.3112 8.6543 13.6078C8.6543 12.9044 9.22445 12.3342 9.92791 12.3342H38.1721C38.8756 12.3342 39.4457 12.9044 39.4457 13.6078C39.4457 14.3112 38.8756 14.8813 38.1721 14.8813Z" fill="#17FFA6"/>
<path d="M29.112 28.5347H0.866443C0.162954 28.5347 -0.407227 27.9645 -0.407227 27.2612C-0.407227 26.5577 0.162954 25.9875 0.866443 25.9875H29.112C29.8155 25.9875 30.3857 26.5577 30.3857 27.2612C30.3857 27.9645 29.8155 28.5347 29.112 28.5347Z" fill="#17FFA6"/>
<path d="M33.6823 42.1875H5.43676C4.73327 42.1875 4.16309 41.6173 4.16309 40.914C4.16309 40.2105 4.73327 39.6403 5.43676 39.6403H33.6823C34.3858 39.6403 34.956 40.2105 34.956 40.914C34.956 41.6173 34.3858 42.1875 33.6823 42.1875Z" fill="#17FFA6"/>
<path d="M41.6892 54.8633H13.4436C12.7401 54.8633 12.1699 54.2931 12.1699 53.5898C12.1699 52.8863 12.7401 52.3161 13.4436 52.3161H41.6892C42.3926 52.3161 42.9628 52.8863 42.9628 53.5898C42.9628 54.2931 42.3926 54.8633 41.6892 54.8633Z" fill="#17FFA6"/>
</g>
<defs>
<clipPath id="clip0_0_2764">
<rect width="164.717" height="90" fill="white"/>
</clipPath>
</defs>
</svg>
