<svg width="90" height="90" viewBox="0 0 90 90" fill="none" xmlns="http://www.w3.org/2000/svg">
<path d="M41.2196 1.20082C43.4696 -0.0732411 46.3384 -0.0788661 48.5321 1.20082L82.1246 20.1374C84.2256 21.3186 85.6318 23.6614 85.6121 26.083V64.0518C85.6262 66.5746 84.0821 68.968 81.8659 70.1268L48.4534 88.9761C47.3106 89.6077 46.0195 89.9217 44.7143 89.8856C43.4091 89.8495 42.1373 89.4646 41.0312 88.7708L31.0046 82.9771C30.3212 82.5693 29.5534 82.2458 29.0696 81.5849C29.4971 81.0111 30.2565 80.938 30.8753 80.6849C32.2703 80.2405 33.5471 79.5599 34.8296 78.8399C35.1531 78.6149 35.5496 78.6993 35.859 78.9018L44.409 83.8461C45.0193 84.1977 45.6381 83.7336 46.1612 83.4383L78.969 64.9236C79.374 64.7268 79.599 64.2993 79.5653 63.8549V26.2518C79.6103 25.7455 79.3206 25.2843 78.8621 25.0789L45.534 6.31113C45.3419 6.17829 45.1141 6.1069 44.8805 6.10639C44.647 6.10589 44.4188 6.17631 44.2262 6.30832L10.9459 25.1155C10.4959 25.3208 10.1865 25.7765 10.2428 26.2827V63.8858C10.2034 64.3302 10.4396 64.7493 10.8474 64.9405L19.7406 69.9608C21.4112 70.8608 23.4615 71.3671 25.3009 70.7061C26.1058 70.4028 26.7987 69.8606 27.2869 69.1524C27.775 68.4441 28.0349 67.6035 28.0318 66.7433L28.0403 29.3652C28.0009 28.8111 28.524 28.3527 29.0612 28.4089H33.3362C33.8987 28.3949 34.3403 28.9911 34.2643 29.548L34.2559 67.1624C34.2587 70.5036 32.8862 74.1374 29.7953 75.7771C25.9871 77.7458 21.279 77.3324 17.5159 75.4396L7.95338 70.1521C5.70338 69.0271 4.19307 66.5971 4.20713 64.0771V26.1083C4.21648 24.8743 4.55574 23.6652 5.18972 22.6064C5.82371 21.5476 6.72935 20.6777 7.81275 20.0868L41.2196 1.20082ZM50.9059 27.5202C55.7631 27.2389 60.9634 27.3346 65.334 29.728C68.7174 31.5618 70.5934 35.4093 70.6553 39.1724C70.5596 39.6786 70.0309 39.9599 69.5471 39.9233C68.1409 39.9205 66.729 39.943 65.3171 39.9149C64.7181 39.9374 64.3721 39.3861 64.2962 38.8574C63.8912 37.0574 62.9096 35.2771 61.2165 34.408C58.6178 33.1058 55.6027 33.1705 52.7677 33.1986C50.6978 33.3111 48.4731 33.4883 46.7209 34.7033C45.3709 35.6258 44.9659 37.5158 45.4468 38.984C45.8968 40.0611 47.1428 40.4071 48.1581 40.7277C54.0137 42.2577 60.2152 42.1339 65.9612 44.1224C68.3378 44.9436 70.6637 46.5411 71.4793 49.0302C72.5424 52.3658 72.0784 56.354 69.7074 59.0315C67.7837 61.2365 64.9824 62.4064 62.184 63.0871C58.4631 63.9168 54.6043 63.9365 50.8271 63.5652C47.2749 63.1602 43.5793 62.2264 40.8371 59.8077C38.4915 57.7714 37.3496 54.599 37.4621 51.539C37.4903 51.0215 38.0049 50.6614 38.5028 50.7036H42.7215C43.2896 50.6643 43.7059 51.1536 43.734 51.688C43.9956 53.3755 44.6396 55.2036 46.1359 56.188C49.0215 58.0499 52.6412 57.9205 55.9431 57.974C58.6796 57.853 61.7509 57.8164 63.9868 56.0052C65.1681 54.973 65.514 53.249 65.1962 51.764C64.8503 50.5096 63.5087 49.9274 62.3837 49.5139C56.604 47.6858 50.3321 48.3496 44.6087 46.2796C42.2856 45.4583 40.0384 43.9058 39.1468 41.518C37.9009 38.143 38.4718 33.9608 41.0959 31.3733C43.6271 28.7999 47.3396 27.8071 50.8553 27.4527L50.9059 27.5202Z" fill="#8CC84B"/>
</svg>
