<svg width="24" height="24" viewBox="0 0 24 24" fill="none" xmlns="http://www.w3.org/2000/svg">
<path d="M4.5 2.5H4V3V19.5V20H4.5H13.5H14V19.5V3V2.5H13.5H4.5ZM3.75 2H14.25C14.3163 2 14.3799 2.02634 14.4268 2.07322C14.4737 2.12011 14.5 2.18369 14.5 2.25V20.25C14.5 20.3163 14.4737 20.3799 14.4268 20.4268C14.3799 20.4737 14.3163 20.5 14.25 20.5H3.75C3.6837 20.5 3.62011 20.4737 3.57322 20.4268C3.52634 20.3799 3.5 20.3163 3.5 20.25V2.25C3.5 2.1837 3.52634 2.12011 3.57322 2.07322C3.62011 2.02634 3.6837 2 3.75 2Z" stroke="#4E4E4E"/>
<path d="M6.5 6.75C6.5 6.61193 6.61193 6.5 6.75 6.5H11.25C11.3881 6.5 11.5 6.61193 11.5 6.75C11.5 6.88807 11.3881 7 11.25 7H6.75C6.61193 7 6.5 6.88807 6.5 6.75ZM6.5 11.25C6.5 11.1119 6.61193 11 6.75 11H11.25C11.3881 11 11.5 11.1119 11.5 11.25C11.5 11.3881 11.3881 11.5 11.25 11.5H6.75C6.61193 11.5 6.5 11.3881 6.5 11.25ZM6.5 15.75C6.5 15.6119 6.61193 15.5 6.75 15.5H11.25C11.3881 15.5 11.5 15.6119 11.5 15.75C11.5 15.8881 11.3881 16 11.25 16H6.75C6.61193 16 6.5 15.8881 6.5 15.75ZM15.5 12.75C15.5 12.6119 15.6119 12.5 15.75 12.5H17.25C17.3881 12.5 17.5 12.6119 17.5 12.75C17.5 12.8881 17.3881 13 17.25 13H15.75C15.6119 13 15.5 12.8881 15.5 12.75ZM15.5 15.75C15.5 15.6119 15.6119 15.5 15.75 15.5H17.25C17.3881 15.5 17.5 15.6119 17.5 15.75C17.5 15.8881 17.3881 16 17.25 16H15.75C15.6119 16 15.5 15.8881 15.5 15.75ZM2 20.25C2 20.1119 2.11193 20 2.25 20H21.75C21.8881 20 22 20.1119 22 20.25C22 20.3881 21.8881 20.5 21.75 20.5H2.25C2.11193 20.5 2 20.3881 2 20.25Z" stroke="#4E4E4E"/>
<path d="M15 8.5H14.5V9V19.5V20H15H19.5H20V19.5V9V8.5H19.5H15ZM14.25 8H20.25C20.3163 8 20.3799 8.02634 20.4268 8.07322C20.4737 8.12011 20.5 8.1837 20.5 8.25V20.25C20.5 20.3163 20.4737 20.3799 20.4268 20.4268C20.3799 20.4737 20.3163 20.5 20.25 20.5H14.25C14.1837 20.5 14.1201 20.4737 14.0732 20.4268C14.0263 20.3799 14 20.3163 14 20.25V8.25C14 8.18369 14.0263 8.12011 14.0732 8.07322C14.1201 8.02634 14.1837 8 14.25 8Z" stroke="#4E4E4E"/>
</svg>
