<svg width="19" height="19" viewBox="0 0 19 19" fill="none" xmlns="http://www.w3.org/2000/svg">
<g clip-path="url(#clip0_431_33465)">
<path d="M18.2081 15.0411C18.2081 15.461 18.0413 15.8637 17.7443 16.1606C17.4474 16.4576 17.0447 16.6244 16.6248 16.6244H2.37501C1.95509 16.6244 1.55237 16.4576 1.25545 16.1606C0.95852 15.8637 0.791708 15.461 0.791708 15.0411V6.33289C0.791708 5.91297 0.95852 5.51025 1.25545 5.21333C1.55237 4.9164 1.95509 4.74959 2.37501 4.74959H5.54162L7.12493 2.37463H11.8748L13.4582 4.74959H16.6248C17.0447 4.74959 17.4474 4.9164 17.7443 5.21333C18.0413 5.51025 18.2081 5.91297 18.2081 6.33289V15.0411Z" stroke="#F8FAFC" stroke-width="1.5" stroke-linecap="round" stroke-linejoin="round"/>
<path d="M9.49978 13.4581C11.2486 13.4581 12.6664 12.0404 12.6664 10.2915C12.6664 8.54262 11.2486 7.12488 9.49978 7.12488C7.75091 7.12488 6.33317 8.54262 6.33317 10.2915C6.33317 12.0404 7.75091 13.4581 9.49978 13.4581Z" stroke="#F8FAFC" stroke-width="1.5" stroke-linecap="round" stroke-linejoin="round"/>
</g>
<defs>
<clipPath id="clip0_431_33465">
<rect width="18.6667" height="18.6667" fill="white" transform="scale(1.01784)"/>
</clipPath>
</defs>
</svg>
