<svg width="90" height="90" viewBox="0 0 90 90" fill="none" xmlns="http://www.w3.org/2000/svg">
<g clip-path="url(#clip0_0_4484)">
<path d="M12.5428 81.0057L5.32031 0.00292969H84.6778L77.4497 80.9945L44.9484 90.0001L12.5428 81.0057Z" fill="#E44D26"/>
<path d="M71.2603 75.836L77.4394 6.62598H45V83.1175L71.2603 75.836Z" fill="#F16529"/>
<path d="M44.9653 16.5596H20.0859L22.7663 46.6027H44.9991V36.6689H31.8534L30.945 26.4961H44.9991V16.5596H44.9653ZM44.9991 62.4371L44.9569 62.4483L33.8925 59.4614L33.1894 51.5386H23.2106L24.6028 67.1368L44.9541 72.7618L44.9991 72.7477V62.4371Z" fill="#EBEBEB"/>
<path d="M44.9666 46.6027H57.2009L56.0759 59.4839L44.9947 62.4736V72.8096L65.3628 67.1649L68.0909 36.6633H45.0003L44.9666 46.6027ZM69.6153 19.2258L69.8516 16.5596H44.9609V26.4933H68.9572L69.1541 24.2602L69.6153 19.2258Z" fill="white"/>
</g>
<defs>
<clipPath id="clip0_0_4484">
<rect width="90" height="90" fill="white"/>
</clipPath>
</defs>
</svg>
