<svg width="90" height="90" viewBox="0 0 90 90" fill="none" xmlns="http://www.w3.org/2000/svg">
<g clip-path="url(#clip0_0_664)">
<path d="M81.8456 4.73161C80.5851 7.75389 78.9712 10.6163 77.0377 13.2591C72.8166 9.02045 67.7951 5.6632 62.265 3.38254C56.7349 1.10188 50.8066 -0.0566711 44.8248 -0.0257647C38.843 0.00514162 32.9269 1.22489 27.4207 3.56257C21.9145 5.90025 16.9279 9.30921 12.7509 13.5913C8.5739 17.8733 5.28981 22.943 3.08958 28.5056C0.889344 34.0681 -0.183129 40.0126 -0.06549 45.9934C0.0521491 51.9741 1.35755 57.8718 3.77483 63.3436C6.1921 68.8153 9.67301 73.752 14.0152 77.8665L15.683 79.3388C22.0475 84.7016 29.7715 88.1992 38.0004 89.4447C46.2294 90.6902 54.6424 89.6351 62.3089 86.396C69.9754 83.1569 76.5964 77.8602 81.4395 71.0918C86.2825 64.3234 89.1588 56.3471 89.7502 48.0455C90.9806 36.5564 87.607 22.0158 81.847 4.73301L81.8456 4.73161ZM20.4347 78.128C19.9544 78.7214 19.309 79.1591 18.5799 79.3855C17.8509 79.612 17.0711 79.6171 16.3391 79.4003C15.6072 79.1835 14.956 78.7544 14.4679 78.1674C13.9799 77.5803 13.677 76.8617 13.5974 76.1025C13.5179 75.3432 13.6654 74.5775 14.0212 73.902C14.377 73.2266 14.9251 72.6719 15.5962 72.3081C16.2674 71.9443 17.0314 71.7877 17.7915 71.8582C18.5516 71.9287 19.2738 72.2231 19.8666 72.7041C20.6606 73.3484 21.1664 74.2815 21.2729 75.2985C21.3795 76.3155 21.078 77.3332 20.4347 78.128ZM81.66 64.614C70.5225 79.4499 46.7428 74.4436 31.4963 75.1636C31.4963 75.1636 28.7934 75.3225 26.0724 75.7683C26.0724 75.7683 27.0989 75.3324 28.4109 74.836C39.1181 71.1094 44.1792 70.3922 50.6831 67.0454C62.9288 60.8199 75.0422 47.1863 77.5594 33.0141C72.9005 46.6477 58.7536 58.3716 45.8766 63.1332C37.051 66.3858 21.1069 69.5541 21.1069 69.5541L20.4642 69.2096C9.61642 63.9361 9.28173 40.4419 29.01 32.865C37.6486 29.5379 45.9131 31.3646 55.2422 29.1385C65.2041 26.7718 76.7297 19.3088 81.4195 9.56911C86.6649 25.1504 92.9845 49.5375 81.653 64.6238L81.66 64.614Z" fill="#68BD45"/>
</g>
<defs>
<clipPath id="clip0_0_664">
<rect width="90" height="90" fill="white"/>
</clipPath>
</defs>
</svg>
