<svg width="90" height="90" viewBox="0 0 90 90" fill="none" xmlns="http://www.w3.org/2000/svg">
<mask id="mask0_0_4355" style="mask-type:luminance" maskUnits="userSpaceOnUse" x="8" y="0" width="74" height="90">
<path d="M81.1162 41.5295L56.89 65.7644L81.1162 89.9993H53.4328L29.1979 65.7644L53.4328 41.5295H81.1162ZM53.4328 0L8.4375 44.9953L22.2835 58.8414L81.1162 0H53.4328Z" fill="white"/>
</mask>
<g mask="url(#mask0_0_4355)">
<path d="M29.207 65.7642L43.0444 79.6103L81.1167 41.5293H53.4333L29.207 65.7642Z" fill="#39CEFD"/>
</g>
<mask id="mask1_0_4355" style="mask-type:luminance" maskUnits="userSpaceOnUse" x="8" y="0" width="74" height="90">
<path d="M81.1162 41.5295L56.89 65.7644L81.1162 89.9993H53.4328L29.1979 65.7644L53.4328 41.5295H81.1162ZM53.4328 0L8.4375 44.9953L22.2835 58.8414L81.1162 0H53.4328Z" fill="white"/>
</mask>
<g mask="url(#mask1_0_4355)">
<path d="M53.4328 0H81.1162L22.2835 58.8414L8.4375 44.9953L53.4328 0Z" fill="#39CEFD"/>
</g>
<mask id="mask2_0_4355" style="mask-type:luminance" maskUnits="userSpaceOnUse" x="8" y="0" width="74" height="90">
<path d="M81.1162 41.5295L56.89 65.7644L81.1162 89.9993H53.4328L29.1979 65.7644L53.4328 41.5295H81.1162ZM53.4328 0L8.4375 44.9953L22.2835 58.8414L81.1162 0H53.4328Z" fill="white"/>
</mask>
<g mask="url(#mask2_0_4355)">
<path d="M43.043 79.6117L53.4318 89.9919H81.1153L56.889 65.7656L43.043 79.6117Z" fill="#03569B"/>
</g>
<mask id="mask3_0_4355" style="mask-type:luminance" maskUnits="userSpaceOnUse" x="8" y="0" width="74" height="90">
<path d="M81.1162 41.5295L56.89 65.7644L81.1162 89.9993H53.4328L29.1979 65.7644L53.4328 41.5295H81.1162ZM53.4328 0L8.4375 44.9953L22.2835 58.8414L81.1162 0H53.4328Z" fill="white"/>
</mask>
<g mask="url(#mask3_0_4355)">
<path d="M63.5781 72.498L56.889 65.7656L43.043 79.6117L63.5781 72.498Z" fill="url(#paint0_linear_0_4355)"/>
</g>
<mask id="mask4_0_4355" style="mask-type:luminance" maskUnits="userSpaceOnUse" x="8" y="0" width="74" height="90">
<path d="M81.1162 41.5295L56.89 65.7644L81.1162 89.9993H53.4328L29.1979 65.7644L53.4328 41.5295H81.1162ZM53.4328 0L8.4375 44.9953L22.2835 58.8414L81.1162 0H53.4328Z" fill="white"/>
</mask>
<g mask="url(#mask4_0_4355)">
<path d="M29.2031 65.7605L43.0495 51.9141L56.8968 65.7605L43.0495 79.607L29.2031 65.7605Z" fill="#16B9FD"/>
</g>
<path d="M81.1162 41.5295L56.89 65.7644L81.1162 89.9993H53.4328L29.1979 65.7644L53.4328 41.5295H81.1162ZM53.4328 0L8.4375 44.9953L22.2835 58.8414L81.1162 0H53.4328Z" fill="url(#paint1_radial_0_4355)"/>
<defs>
<linearGradient id="paint0_linear_0_4355" x1="47.0837" y1="82.2837" x2="57.3959" y2="71.9716" gradientUnits="userSpaceOnUse">
<stop stop-color="#1A237E" stop-opacity="0.4"/>
<stop offset="1" stop-color="#1A237E" stop-opacity="0"/>
</linearGradient>
<radialGradient id="paint1_radial_0_4355" cx="0" cy="0" r="1" gradientUnits="userSpaceOnUse" gradientTransform="translate(10.4793 6.13409) scale(110.103 110.103)">
<stop stop-color="white" stop-opacity="0.1"/>
<stop offset="1" stop-color="white" stop-opacity="0"/>
</radialGradient>
</defs>
</svg>
