<svg width="135" height="132" viewBox="0 0 135 132" fill="none" xmlns="http://www.w3.org/2000/svg">
<g clip-path="url(#clip0_451_41262)">
<path fill-rule="evenodd" clip-rule="evenodd" d="M67.2656 0C30.0695 0 0 30.25 0 67.6734C0 97.5879 19.2666 122.91 45.9944 131.872C49.336 132.546 50.5601 130.416 50.5601 128.624C50.5601 127.055 50.4499 121.678 50.4499 116.075C31.7382 120.109 27.8417 108.008 27.8417 108.008C24.8346 100.165 20.3791 98.1489 20.3791 98.1489C14.2547 94.0032 20.8252 94.0033 20.8252 94.0033C27.6187 94.4515 31.1834 100.95 31.1834 100.95C37.1962 111.257 46.8852 108.344 50.7831 106.551C51.3394 102.182 53.1224 99.1567 55.0156 97.4765C40.0917 95.9076 24.3899 90.0817 24.3899 64.0874C24.3899 56.6926 27.061 50.6426 31.2935 45.9374C30.6257 44.2571 28.2864 37.3092 31.9627 28.0101C31.9627 28.0101 37.6423 26.2171 50.4485 34.9566C55.9314 33.4753 61.5857 32.7217 67.2656 32.7154C72.9452 32.7154 78.735 33.5005 84.0814 34.9566C96.889 26.2171 102.569 28.0101 102.569 28.0101C106.245 37.3092 103.904 44.2571 103.236 45.9374C107.58 50.6426 110.141 56.6926 110.141 64.0874C110.141 90.0817 94.4396 95.7949 79.4041 97.4765C81.855 99.605 83.9698 103.638 83.9698 110.025C83.9698 119.1 83.8597 126.383 83.8597 128.623C83.8597 130.416 85.0851 132.546 88.4254 131.873C115.153 122.908 134.42 97.5879 134.42 67.6734C134.53 30.25 104.35 0 67.2656 0Z" fill="#F8FAFC"/>
</g>
<defs>
<clipPath id="clip0_451_41262">
<rect width="134.933" height="132" fill="white"/>
</clipPath>
</defs>
</svg>
