<svg width="90" height="90" viewBox="0 0 90 90" fill="none" xmlns="http://www.w3.org/2000/svg">
<path fill-rule="evenodd" clip-rule="evenodd" d="M39.4629 3.1619C36.5625 4.81617 34.0312 6.32614 33.8379 6.51739C33.5032 6.84838 33.4842 7.12858 33.4434 12.3498L33.4005 17.8347L28.961 20.6186L24.5215 23.4024L24.4164 22.0283C24.3584 21.2726 24.2578 20.5335 24.1928 20.3858C24.0333 20.0241 13.3283 13.8868 12.8566 13.8868C12.4933 13.8868 2.3233 19.6199 1.71387 20.1684C1.43297 20.4212 1.40643 20.9344 1.40889 26.0869C1.41047 29.1898 1.4799 31.8364 1.56322 31.9679C1.64672 32.0995 3.91957 33.4107 6.6143 34.8816L11.5137 37.5558V44.6617V51.7677L6.85547 54.431C4.29346 55.8957 2.01937 57.2243 1.80176 57.3834L1.40625 57.6727V63.4628V69.253L2.06543 69.6756C3.68033 70.7111 12.513 75.4103 12.8442 75.4103C13.0467 75.4103 15.2329 74.3092 17.7022 72.9636L22.192 70.5169L27.8831 74.3104L33.5742 78.1039V80.9544C33.5742 83.0218 33.6345 83.8541 33.7939 83.9844C33.9149 84.083 36.4263 85.4813 39.375 87.0916C43.4229 89.3023 44.8439 89.9984 45.1758 89.933C45.6536 89.8388 55.8552 84.3192 56.1929 83.972C56.3286 83.8327 56.4189 82.7846 56.4565 80.9178C56.488 79.3546 56.5532 78.0405 56.6016 77.9974C56.6499 77.9543 59.1917 76.2528 62.2499 74.2162L67.8104 70.5132L72.3131 72.9616C74.7895 74.3085 76.9753 75.4103 77.1703 75.4103C77.5216 75.4103 87.6948 69.9698 88.2861 69.4657C88.5676 69.2258 88.5938 68.7125 88.5938 63.4513C88.5938 58.4237 88.5588 57.6704 88.316 57.469C88.1633 57.3421 85.8892 56.0049 83.2623 54.4972L78.4863 51.7559V44.6653V37.5746L83.3799 34.9003C86.0715 33.4295 88.3443 32.1141 88.431 31.9774C88.5175 31.8406 88.5895 29.1816 88.5911 26.0687L88.5938 20.4087L88.0225 19.9861C86.8957 19.1527 77.5311 13.8868 77.1759 13.8868C76.7053 13.8868 65.967 20.0221 65.809 20.3813C65.7429 20.5314 65.6416 21.2712 65.5836 22.025L65.4785 23.3954L60.9595 20.5623L56.4406 17.7291L56.4442 12.2642C56.4476 7.21682 56.4235 6.77561 56.1292 6.48785C55.6537 6.02309 45.6963 0.341135 45.1809 0.240764C44.839 0.173967 43.5187 0.848439 39.4629 3.1619ZM41.0759 5.05612C38.6661 6.44444 37.3261 7.31227 37.4723 7.38944C37.6003 7.45711 39.3124 8.39297 41.2771 9.46928C43.2417 10.5454 44.9188 11.4259 45.0039 11.4259C45.1243 11.4259 52.4849 7.47399 52.6964 7.29574C52.7504 7.25039 45.0476 2.80154 44.9631 2.82932C44.935 2.83846 43.1858 3.84059 41.0759 5.05612ZM35.8668 13.1299L35.8481 16.7883L38.886 18.4508C40.5568 19.3652 42.3392 20.3399 42.8467 20.6168L43.7695 21.1202L43.7687 17.3717L43.7676 13.6232L40.0593 11.6017C38.0197 10.4899 36.2463 9.55576 36.1181 9.52588C35.9309 9.48211 35.8815 10.19 35.8668 13.1299ZM49.9692 11.5758L46.2371 13.6232L46.2338 17.3752L46.2305 21.1274L47.1533 20.6138C47.6608 20.3315 49.4406 19.3615 51.1084 18.4586L54.1406 16.8168V13.1545C54.1406 10.3322 54.0902 9.49653 53.9209 9.51041C53.8001 9.52043 52.0218 10.45 49.9692 11.5758ZM8.90947 18.7583L5.07463 20.9652L8.90947 23.0491C11.0185 24.1952 12.835 25.114 12.9459 25.091C13.4307 24.9902 20.539 20.9965 20.427 20.8879C20.2576 20.7233 13.2043 16.6923 12.9484 16.6137C12.8361 16.5793 11.0185 17.5443 8.90947 18.7583ZM73.2364 18.7562C69.4396 20.9478 69.3984 20.9779 69.8609 21.2201C70.1183 21.3549 71.84 22.2913 73.687 23.301C75.5341 24.3107 77.0987 25.1368 77.1643 25.1368C77.2297 25.1368 78.7801 24.3179 80.6094 23.3168C82.4388 22.3157 84.1635 21.3786 84.442 21.2343L84.9484 20.9721L81.0615 18.7477C78.9237 17.5245 77.1534 16.5267 77.1274 16.5306C77.1013 16.5345 75.3504 17.5359 73.2364 18.7562ZM29.8828 22.9192L24.5215 26.2938L24.4336 28.9471L24.3457 31.6003L29.4344 34.9164C32.233 36.7403 34.6061 38.2533 34.7078 38.2786C34.8094 38.3039 36.8701 37.1858 39.2871 35.7938L43.6816 33.2629V28.5716V23.8804L39.6884 21.6961C37.4922 20.4948 35.5938 19.5192 35.4697 19.5282C35.3456 19.5372 32.8315 21.0631 29.8828 22.9192ZM50.2734 21.7052L46.3184 23.8805V28.5748V33.2688L50.7129 35.7923C53.1299 37.1803 55.1946 38.2972 55.3013 38.2742C55.408 38.2514 57.7811 36.7428 60.5747 34.9219L65.6543 31.6112L65.5664 28.9522L65.4785 26.2931L60.059 22.9025C57.0783 21.0376 54.547 19.5159 54.434 19.5208C54.321 19.5257 52.4487 20.5087 50.2734 21.7052ZM3.90762 26.9157L3.95508 30.6282L6.5918 32.0609C8.04199 32.8489 9.76254 33.7872 10.415 34.1458L11.6016 34.7981V31.0531V27.3081L7.83809 25.2557C5.76826 24.1268 4.02645 23.2032 3.96738 23.2032C3.9085 23.2032 3.8816 24.8739 3.90762 26.9157ZM17.7994 25.282L14.0655 27.3341L14.0641 31.0767L14.0625 34.8192L15.6885 33.9301C16.5829 33.4411 18.3626 32.472 19.6436 31.7764L21.9727 30.5117V26.8574C21.9727 24.0442 21.922 23.2062 21.7529 23.2166C21.6322 23.2238 19.8529 24.1533 17.7994 25.282ZM68.0277 26.8507L68.028 30.4982L70.4362 31.8165C71.7608 32.5416 73.5404 33.5139 74.391 33.9771L75.9375 34.8192L75.9361 31.0767L75.9349 27.3341L72.1589 25.2687C70.0822 24.1326 68.303 23.2032 68.2052 23.2032C68.091 23.2032 68.0275 24.5077 68.0277 26.8507ZM82.1338 25.275L78.3984 27.3281V31.071V34.8139L79.6729 34.1156C80.3739 33.7315 82.0942 32.7891 83.4961 32.0217L86.0449 30.626L86.0924 26.9147C86.1184 24.8733 86.0788 23.2075 86.0045 23.2126C85.93 23.2178 84.1883 24.1458 82.1338 25.275ZM18.1055 35.4141L14.1504 37.5904V44.6667V51.7429L18.5419 54.2603C20.9573 55.6447 22.9753 56.7775 23.0263 56.7775C23.0773 56.7775 25.4515 55.1332 28.3027 53.1235L33.4863 49.4694L33.5333 45.1487C33.576 41.2286 33.5514 40.7947 33.2696 40.4715C32.9433 40.0971 22.4179 33.2173 22.1915 33.2303C22.1194 33.2344 20.2808 34.2172 18.1055 35.4141ZM62.2266 36.754C59.2778 38.6817 56.765 40.3932 56.6425 40.5578C56.4738 40.7842 56.4312 41.8993 56.4667 45.1555L56.5137 49.4544L61.6992 53.1147C64.5513 55.1279 66.9243 56.7754 66.9727 56.7757C67.021 56.7761 69.0381 55.6467 71.4551 54.2661L75.8496 51.7559V44.666V37.576L71.8945 35.4049C69.7192 34.211 67.8604 33.2375 67.7637 33.2418C67.667 33.246 65.1753 34.8264 62.2266 36.754ZM41.1706 37.5227C39.1127 38.7094 37.3973 39.7121 37.3586 39.7509C37.2814 39.8281 44.5402 43.824 44.9174 43.912C45.0879 43.9518 52.3786 40.1187 52.6927 39.8241C52.7384 39.7812 45.0109 35.3169 44.9459 35.3485C44.9272 35.3575 43.2285 36.3359 41.1706 37.5227ZM35.8594 45.5906V49.195L36.3428 49.5307C36.7277 49.7979 41.5296 52.4532 43.374 53.4188L43.7695 53.6257L43.7667 49.8842L43.7641 46.1427L40.046 44.1212C38.0011 43.0094 36.2225 42.0742 36.0937 42.0429C35.9042 41.9969 35.8594 42.6761 35.8594 45.5906ZM49.9692 44.0966L46.2371 46.1427L46.2338 49.8842L46.2305 53.6257L46.626 53.4213C48.587 52.4077 53.5931 49.6286 53.8465 49.4131C54.1417 49.1621 54.1631 48.8538 54.1102 45.6343C54.0751 43.4882 53.9845 42.1136 53.877 42.0895C53.7803 42.0679 52.0218 42.9711 49.9692 44.0966ZM29.707 55.132C27.0483 57.0176 24.7764 58.6158 24.6584 58.6838C24.4981 58.7759 24.4373 60.0969 24.4185 63.9008L24.3933 68.9943L28.852 71.9992L33.3105 75.0044L33.4074 73.7105C33.4728 72.8358 33.5997 72.3211 33.7992 72.1218C33.9615 71.9595 36.2514 70.5856 38.8879 69.0686L43.6816 66.3104V61.3538V56.3972L39.375 54.0416C37.0063 52.7461 34.9497 51.69 34.8047 51.6947C34.6597 51.6997 32.3657 53.2464 29.707 55.132ZM50.5784 54.0731L46.225 56.4607L46.2718 61.3884L46.3184 66.3161L51.0645 69.028C53.6748 70.5195 55.9499 71.8767 56.1203 72.0441C56.3403 72.2601 56.4493 72.7018 56.4971 73.5716C56.5341 74.2445 56.5727 74.8545 56.5829 74.9272C56.5931 75 58.6564 73.6948 61.168 72.0268C64.1239 70.0639 65.7047 68.9116 65.6504 68.7601C65.6042 68.6314 65.5625 66.3375 65.5578 63.6625L65.5494 58.7989L60.5324 55.2833C57.773 53.3497 55.3841 51.7492 55.2234 51.7266C55.063 51.7041 52.9727 52.76 50.5784 54.0731ZM9.05273 56.0077C7.11914 57.1243 5.4399 58.0927 5.3209 58.1598C5.10979 58.2788 12.4291 62.4025 12.8514 62.4025C12.9633 62.4025 14.748 61.4826 16.8175 60.3583C20.0958 58.5775 20.5397 58.2867 20.2656 58.1006C19.2971 57.4421 13.0273 53.966 12.8176 53.9711C12.6805 53.9746 10.9863 54.891 9.05273 56.0077ZM73.2136 56.0928C71.1838 57.258 69.5007 58.2338 69.4735 58.2611C69.394 58.3405 76.9426 62.4025 77.1697 62.4025C77.2829 62.4025 79.068 61.4794 81.1366 60.3513L84.8978 58.3001L84.4167 58.0104C81.9327 56.515 77.3508 53.9658 77.1532 53.9695C77.0163 53.9722 75.2435 54.9275 73.2136 56.0928ZM3.8693 64.1905L3.87141 67.9396L5.75895 68.9491C6.79711 69.5042 8.53805 70.4401 9.62754 71.0287L11.6086 72.0993L11.5611 68.3516L11.5137 64.6039L9.49219 63.4905C8.38037 62.8781 6.66 61.9416 5.66895 61.4093L3.86719 60.4416L3.8693 64.1905ZM17.9297 62.5545L14.1504 64.6286L14.1029 68.3495C14.0769 70.3959 14.0871 72.0704 14.1256 72.0704C14.1641 72.0704 15.9256 71.1247 18.0403 69.9688L21.8848 67.8671L21.9322 64.168C21.9582 62.1335 21.9187 60.4715 21.8443 60.4747C21.7698 60.4776 20.0083 61.4137 17.9297 62.5545ZM68.0273 64.1474V67.826L71.8386 69.9043C73.935 71.0474 75.7164 72.0094 75.7974 72.0423C75.8783 72.0752 75.9233 70.4155 75.8971 68.3541L75.8496 64.6059L72.0703 62.541C69.9917 61.4053 68.2318 60.4745 68.1592 60.4726C68.0866 60.4704 68.0273 62.1242 68.0273 64.1474ZM82.394 62.4601C80.386 63.5537 78.6639 64.5277 78.567 64.6245C78.4579 64.7337 78.4092 66.1777 78.4387 68.4347L78.4863 72.0688L82.3046 70.0043L86.123 67.9396L86.1279 64.2042C86.1305 62.1499 86.1129 60.4696 86.0889 60.4703C86.0648 60.4711 84.4021 61.3666 82.394 62.4601ZM41.0843 70.6187C38.9791 71.8312 37.2785 72.8414 37.305 72.8639C37.5439 73.0654 44.8715 76.9923 45.0084 76.9923C45.1515 76.9923 52.5069 73.0458 52.6962 72.8674C52.7428 72.8237 45.2357 68.4975 45.0144 68.4407C44.9582 68.4261 43.1896 69.4063 41.0843 70.6187ZM35.9726 75.1935C35.9204 75.2779 35.8766 76.931 35.875 78.8672L35.8722 82.3874L38.7223 83.9388C40.2898 84.7921 42.0667 85.7606 42.6709 86.0913L43.7695 86.6926L43.7669 82.9411L43.7643 79.1896L40.0426 77.1681C35.708 74.8137 36.0921 75 35.9726 75.1935ZM49.9692 77.1435L46.2371 79.1896L46.2338 82.9311L46.2305 86.6726L46.626 86.4683C49.7804 84.8383 53.8355 82.5074 53.9768 82.2432C54.215 81.7985 54.122 75.1909 53.877 75.1364C53.7803 75.1148 52.0218 76.0179 49.9692 77.1435Z" fill="#F8FAFC"/>
<path fill-rule="evenodd" clip-rule="evenodd" d="M24.519 23.3954L24.4139 22.0214C24.3559 21.2657 24.2553 20.5265 24.1903 20.3789C24.0308 20.0171 13.3258 13.8799 12.8541 13.8799C12.4908 13.8799 2.32081 19.613 1.71137 20.1614C1.43047 20.4142 1.40393 20.9275 1.40639 26.08C1.40797 29.1829 1.47741 31.8294 1.56073 31.9609C1.64422 32.0926 3.91708 33.4037 6.6118 34.8747L11.5112 37.5488L14.1479 37.5835L18.103 35.4071C20.2783 34.2102 22.1169 33.2274 22.189 33.2234L24.3432 31.5934L24.4311 28.9401L24.519 26.2869V23.3954ZM5.07213 20.9582L8.90698 18.7513C11.016 17.5374 12.8336 16.5723 12.9459 16.6068C13.2018 16.6854 20.2551 20.7164 20.4245 20.8809C20.5365 20.9895 13.4282 24.9833 12.9434 25.084C12.8325 25.107 11.016 24.1882 8.90698 23.0421L5.07213 20.9582ZM3.95258 30.6213L3.90512 26.9088C3.87911 24.8669 3.906 23.1963 3.96489 23.1963C4.02395 23.1963 5.76577 24.1198 7.83559 25.2487L11.5991 27.3011V31.0462V34.7912L10.4125 34.1389C9.76005 33.7803 8.0395 32.8419 6.5893 32.0539L3.95258 30.6213ZM14.063 27.3271L17.7969 25.2751C19.8504 24.1464 21.6297 23.2169 21.7504 23.2097C21.9195 23.1993 21.9702 24.0372 21.9702 26.8504V30.5047L19.6411 31.7695C18.3601 32.4651 16.5804 33.4341 15.686 33.9232L14.06 34.8123L14.0616 31.0697L14.063 27.3271Z" fill="#17FFA6"/>
<path fill-rule="evenodd" clip-rule="evenodd" d="M88.7807 23.4492L88.6756 22.0751C88.6176 21.3194 88.517 20.5802 88.452 20.4326C88.2926 20.0708 77.5875 13.9336 77.1159 13.9336C76.7525 13.9336 66.5825 19.6667 65.9731 20.2151C65.6922 20.4679 65.6657 20.9812 65.6681 26.1337C65.6697 29.2366 65.7391 31.8831 65.8224 32.0146C65.9059 32.1463 68.1788 33.4574 70.8735 34.9284L75.7729 37.6025L78.4096 37.6372L82.3647 35.4608C84.54 34.2639 86.3787 33.2811 86.4507 33.2771L88.6049 31.6471L88.6928 28.9938L88.7807 26.3406V23.4492ZM69.3339 21.012L73.1687 18.805C75.2777 17.5911 77.0953 16.626 77.2076 16.6605C77.4636 16.7391 84.5168 20.7701 84.6862 20.9346C84.7982 21.0432 77.69 25.037 77.2052 25.1377C77.0942 25.1607 75.2777 24.2419 73.1687 23.0958L69.3339 21.012ZM68.2143 30.675L68.1668 26.9625C68.1408 24.9206 68.1677 23.25 68.2266 23.25C68.2857 23.25 70.0275 24.1736 72.0973 25.3024L75.8608 27.3548V31.0999V34.8449L74.6743 34.1926C74.0218 33.834 72.3012 32.8956 70.851 32.1076L68.2143 30.675ZM78.3247 27.3809L82.0587 25.3288C84.1121 24.2001 85.8914 23.2706 86.0122 23.2634C86.1813 23.253 86.2319 24.0909 86.2319 26.9041V30.5585L83.9028 31.8232C82.6219 32.5188 80.8421 33.4879 79.9477 33.9769L78.3217 34.866L78.3233 31.1234L78.3247 27.3809Z" fill="#17FFA6"/>
<path fill-rule="evenodd" clip-rule="evenodd" d="M56.5581 75.3769L56.4529 74.0028C56.3949 73.2471 56.2944 72.508 56.2293 72.3603C56.0699 71.9986 45.3648 65.8613 44.8932 65.8613C44.5299 65.8613 34.3599 71.5944 33.7504 72.1429C33.4695 72.3956 33.443 72.9089 33.4455 78.0614C33.447 81.1643 33.5165 83.8109 33.5998 83.9424C33.6833 84.074 35.9561 85.3852 38.6509 86.8561L43.5502 89.5303L46.187 89.5649L50.142 87.3886C52.3173 86.1917 54.156 85.2089 54.2281 85.2048L56.3823 83.5748L56.4702 80.9216L56.5581 78.2683V75.3769ZM37.1112 72.9397L40.946 70.7328C43.0551 69.5188 44.8726 68.5538 44.985 68.5882C45.2409 68.6668 52.2941 72.6978 52.4636 72.8623C52.5756 72.971 45.4673 76.9647 44.9825 77.0654C44.8716 77.0885 43.0551 76.1697 40.946 75.0236L37.1112 72.9397ZM35.9916 82.6027L35.9442 78.8902C35.9182 76.8484 35.9451 75.1777 36.004 75.1777C36.063 75.1777 37.8048 76.1013 39.8747 77.2302L43.6381 79.2826V83.0276V86.7726L42.4516 86.1203C41.7991 85.7617 40.0786 84.8234 38.6284 84.0354L35.9916 82.6027ZM46.1021 79.3086L49.836 77.2565C51.8895 76.1278 53.6687 75.1983 53.7895 75.1911C53.9586 75.1807 54.0092 76.0187 54.0092 78.8319V82.4862L51.6801 83.7509C50.3992 84.4465 48.6194 85.4156 47.725 85.9046L46.0991 86.7937L46.1007 83.0512L46.1021 79.3086Z" fill="#17FFA6"/>
</svg>
