<svg width="300" height="229" viewBox="0 0 300 229" fill="none" xmlns="http://www.w3.org/2000/svg">
<path fill-rule="evenodd" clip-rule="evenodd" d="M155.096 63.3897L147.936 70.2997L146.036 68.2697C145.686 67.9397 145.136 67.9197 144.736 68.1997C144.346 68.4897 144.236 68.9997 144.476 69.4097L146.726 73.0697C146.946 73.4097 147.326 73.6197 147.756 73.6197C148.166 73.6197 148.556 73.4097 148.776 73.0697C149.136 72.5997 156.006 64.4097 156.006 64.4097C156.906 63.4897 155.816 62.6797 155.096 63.3797V63.3897Z" fill="#3EFFB5"/>
<rect width="300" height="64" transform="translate(0 100)" fill="#1C1C1C"/>
<path fill-rule="evenodd" clip-rule="evenodd" d="M155.096 127.39L147.936 134.3L146.036 132.27C145.686 131.94 145.136 131.92 144.736 132.2C144.346 132.49 144.236 133 144.476 133.41L146.726 137.07C146.946 137.41 147.326 137.62 147.756 137.62C148.166 137.62 148.556 137.41 148.776 137.07C149.136 136.6 156.006 128.41 156.006 128.41C156.906 127.49 155.816 126.68 155.096 127.38V127.39Z" fill="#3EFFB5"/>
<path fill-rule="evenodd" clip-rule="evenodd" d="M155.096 191.39L147.936 198.3L146.036 196.27C145.686 195.94 145.136 195.92 144.736 196.2C144.346 196.49 144.236 197 144.476 197.41L146.726 201.07C146.946 201.41 147.326 201.62 147.756 201.62C148.166 201.62 148.556 201.41 148.776 201.07C149.136 200.6 156.006 192.41 156.006 192.41C156.906 191.49 155.816 190.68 155.096 191.38V191.39Z" fill="#3EFFB5"/>
<rect y="228" width="300" height="1" fill="#1C1C1C"/>
</svg>
