<svg width="112" height="91" viewBox="0 0 112 91" fill="none" xmlns="http://www.w3.org/2000/svg">
<path d="M55.4927 0.641504L23.7881 19.5819C23.1384 19.97 23.1384 20.9111 23.7881 21.2993L55.4927 40.2397C55.8052 40.4264 56.1944 40.4285 56.509 40.2454L89.0371 21.305C89.6997 20.9192 89.6997 19.962 89.0371 19.5762L56.509 0.635801C56.1944 0.452639 55.8052 0.454824 55.4927 0.641504Z" fill="#3899C6" stroke="#3899C6"/>
<path d="M92.9482 27.4581L60.4262 46.8066C60.1231 46.9869 59.9374 47.3135 59.9374 47.6662V84.7058C59.9374 85.4732 60.7659 85.9548 61.4327 85.575L93.9546 67.0498C94.267 66.8719 94.4598 66.5401 94.4598 66.1807V28.3177C94.4598 27.5419 93.6149 27.0614 92.9482 27.4581Z" fill="#AEDAEE" stroke="#AEDAEE"/>
<path d="M19.4953 27.4581L52.0172 46.8066C52.3203 46.9869 52.506 47.3135 52.506 47.6662V84.7058C52.506 85.4732 51.6776 85.9548 51.0108 85.575L18.4888 67.0498C18.1765 66.8719 17.9837 66.5401 17.9837 66.1807V28.3177C17.9837 27.5419 18.8286 27.0614 19.4953 27.4581Z" fill="#59B6DA" stroke="#59B6DA"/>
<path d="M102.225 13.9342L89.5188 7.09235C88.7607 6.68414 88.1869 6.002 87.9146 5.18516L87.8805 5.08283C87.3859 3.59909 88.0183 1.9735 89.3854 1.21396C90.3652 0.669639 91.5563 0.668563 92.5371 1.21111L108.403 9.98788C110.313 11.0448 111.499 13.0559 111.499 15.2393V73.5817C111.499 75.5988 110.486 77.4809 108.802 78.5915L92.4066 89.4055C91.5038 90.001 90.3622 90.103 89.3682 89.6769L89.2556 89.6287C88.4025 89.2631 87.7693 88.5196 87.5442 87.6191C87.2354 86.3838 87.7484 85.089 88.8195 84.4005L102.625 75.5254C104.343 74.4212 105.381 72.5192 105.381 70.4772V19.2183C105.381 17.0105 104.169 14.9809 102.225 13.9342Z" fill="#797979" stroke="#797979"/>
<path d="M9.7749 13.9342L22.4812 7.09235C23.2393 6.68414 23.8131 6.002 24.0854 5.18516L24.1195 5.08283C24.6141 3.59909 23.9817 1.9735 22.6146 1.21396C21.6348 0.669639 20.4437 0.668563 19.4629 1.21111L3.59722 9.98788C1.68669 11.0448 0.50089 13.0559 0.50089 15.2393V73.5817C0.50089 75.5988 1.51416 77.4809 3.19794 78.5915L19.5934 89.4055C20.4962 90.001 21.6378 90.103 22.6318 89.6769L22.7444 89.6287C23.5975 89.2631 24.2307 88.5196 24.4558 87.6191C24.7646 86.3838 24.2516 85.089 23.1805 84.4005L9.37486 75.5254C7.65714 74.4212 6.61878 72.5192 6.61878 70.4772V19.2183C6.61878 17.0105 7.831 14.9809 9.7749 13.9342Z" fill="#797979" stroke="#797979"/>
</svg>
