<svg width="90" height="90" viewBox="0 0 90 90" fill="none" xmlns="http://www.w3.org/2000/svg">
<g clip-path="url(#clip0_0_290)">
<path d="M52.2059 26.7114C51.2337 26.7114 50.4453 27.499 50.4453 28.4692C50.4453 29.4388 51.2337 30.2264 52.2059 30.2264C53.178 30.2264 53.9664 29.4388 53.9664 28.4692C53.9664 27.499 53.178 26.7114 52.2059 26.7114Z" fill="#F8FAFC"/>
<path d="M41.5345 61.043C42.2218 60.3556 42.2218 59.2433 41.5345 58.5559C40.8465 57.8707 39.732 57.8707 39.0433 58.5559C38.3567 59.2433 38.3567 60.3556 39.0433 61.043C39.732 61.7283 40.8465 61.7283 41.5345 61.043Z" fill="#F8FAFC"/>
<path d="M20.367 89.4803C21.0495 90.1669 22.1606 90.1745 22.852 89.4947L31.3886 81.1011C32.8389 79.6537 33.2799 77.5107 32.6421 75.6478L34.4784 73.8804C35.467 72.9273 36.7687 72.402 38.1446 72.402H61.5521C65.7048 72.402 69.6298 70.8104 72.6053 67.9203C72.7278 67.8015 71.6759 69.0381 88.5743 48.881C91.0806 45.9215 90.7057 41.4775 87.7377 38.9733C84.7883 36.4925 80.37 36.8489 77.8568 39.7575L67.4668 50.4156C66.1548 48.8041 64.1541 47.7995 61.9924 47.7995H42.3579C39.564 46.6329 36.5994 46.0424 33.5406 46.0424C25.0646 46.0424 17.6598 49.948 13.6853 57.2786C12.0114 56.9621 10.246 57.4675 8.97596 58.735L0.599695 67.1196C-0.0841667 67.8042 -0.0855426 68.9118 0.596943 69.5977L20.367 89.4803ZM33.5399 49.5566C36.2369 49.5566 38.8443 50.0984 41.2915 51.1668C41.5144 51.2643 41.7545 51.3144 41.9974 51.3144H61.9924C63.9016 51.3144 65.5142 52.8683 65.5142 54.8287C65.5142 56.7671 63.9346 58.3436 61.9924 58.3436H47.6265C46.6544 58.3436 45.8659 59.1305 45.8659 60.1007C45.8659 61.0717 46.6544 61.8579 47.6265 61.8579H61.9924C65.8761 61.8579 69.0354 58.7048 69.0354 54.8287C69.0354 54.5197 69.0134 54.2134 68.9734 53.91C79.0243 43.5986 80.4415 42.1498 80.5021 42.0777C81.757 40.5993 83.9847 40.4119 85.4666 41.6588C86.9499 42.9106 87.1377 45.1326 85.8794 46.6191L70.0866 65.4621C67.7805 67.6717 64.7526 68.8878 61.5521 68.8878H38.1446C35.8509 68.8878 33.6796 69.7632 32.0325 71.3514L30.5362 72.7927L16.742 59.0261C19.9659 52.9898 26.0154 49.5566 33.5399 49.5566ZM11.4679 61.2186C12.0485 60.6391 12.9402 60.5347 13.6481 60.9714C13.9171 61.1348 28.9772 76.2026 29.0701 76.3269C29.5854 77.0197 29.5118 78.0037 28.9084 78.6065L21.6308 85.7621L4.32997 68.3632L11.4679 61.2186Z" fill="#F8FAFC"/>
<path d="M27.5597 37.2553H69.8181C72.731 37.2553 75.1005 34.8905 75.1005 31.9833C75.1005 27.5537 75.1005 8.45742 75.1005 5.27207C75.1005 2.36481 72.731 0 69.8181 0H27.5597C24.6468 0 22.2773 2.36481 22.2773 5.27207V31.9833C22.2773 34.8905 24.6468 37.2553 27.5597 37.2553ZM71.5787 14.0584H25.7992V10.5441H71.5787V14.0584ZM69.8181 33.7411H27.5597C26.589 33.7411 25.7992 32.9521 25.7992 31.9833V17.5733H71.5787V31.9833C71.5787 32.9521 70.7888 33.7411 69.8181 33.7411ZM27.5597 3.51494H69.8181C70.7888 3.51494 71.5787 4.30321 71.5787 5.27207V7.02919H25.7992V5.27207C25.7992 4.30321 26.589 3.51494 27.5597 3.51494Z" fill="#17FFA6"/>
<path d="M66.2947 26.7114H59.2518C58.2796 26.7114 57.4912 27.4983 57.4912 28.4692C57.4912 29.4395 58.2796 30.2264 59.2518 30.2264H66.2947C67.2675 30.2264 68.056 29.4395 68.056 28.4692C68.056 27.4983 67.2675 26.7114 66.2947 26.7114Z" fill="#F8FAFC"/>
</g>
<defs>
<clipPath id="clip0_0_290">
<rect width="90" height="90" fill="white"/>
</clipPath>
</defs>
</svg>
