<svg width="132" height="132" viewBox="0 0 132 132" fill="none" xmlns="http://www.w3.org/2000/svg">
<g clip-path="url(#clip0_729_42942)">
<path fill-rule="evenodd" clip-rule="evenodd" d="M36.8809 0.895936C13.6944 6.7527 -1.9618 28.3791 0.198877 51.5687C1.76785 68.4158 12.25 83.3281 27.5876 90.5333C34.0803 93.5844 37.0014 94.1158 47.2613 94.1158C57.7889 94.1158 60.2869 93.6341 67.0568 90.3025C75.6741 86.0612 78.721 86.8072 78.721 93.1591C78.721 98.1115 110.942 130.658 116.968 131.791C125.695 133.432 133.735 125.136 131.674 116.616C130.312 110.992 97.4843 78.6856 93.1295 78.6856C91.2754 78.6856 88.9755 77.7396 88.0196 76.5844C86.5819 74.8482 86.6448 73.8593 88.3865 70.8819C91.5338 65.5028 94.7855 53.4418 94.7855 47.1543C94.7855 29.5384 83.1267 11.8728 66.4691 4.25033C57.9964 0.372651 44.8543 -1.1167 36.8809 0.895936ZM38.2035 6.29248C25.3225 9.47781 14.989 18.0396 9.26864 30.267C4.59788 40.251 4.45865 54.7862 8.94467 64.1087C15.9394 78.648 27.9356 87.297 43.3375 88.9031C75.334 92.2413 98.5044 59.0718 84.8349 29.4981C76.9592 12.4605 55.8156 1.93849 38.2035 6.29248ZM33.8741 15.4446C20.384 21.6086 13.1603 32.8579 13.1375 47.7366C13.1215 58.2963 16.3772 65.7363 24.0601 72.6933C31.3774 79.3189 37.6734 81.7864 47.2613 81.7864C84.4694 81.7864 94.7159 31.0103 60.6484 15.4446C53.588 12.219 40.9345 12.219 33.8741 15.4446ZM35.2129 20.8505C7.37571 33.7676 16.495 76.0021 47.1207 76.0021C56.1583 76.0021 59.6149 74.7355 66.0648 69.0598C82.1722 54.8842 78.0088 28.622 58.3485 20.3903C51.6991 17.6062 41.7792 17.8034 35.2129 20.8505ZM80.6768 81.4536C80.1935 82.2386 80.7598 83.9466 81.9365 85.2495C83.1133 86.5523 84.0758 89.111 84.0758 90.9358C84.0758 93.4006 88.3195 98.4577 100.594 110.621C109.68 119.624 117.999 126.989 119.08 126.989C121.972 126.989 125.174 124.077 126.245 120.475C127.06 117.731 124.995 115.12 110.592 100.684C97.9234 87.9866 93.1804 84.0526 90.5391 84.0526C88.6368 84.0526 86.3315 83.1469 85.4145 82.04C83.4533 79.6704 81.895 79.4786 80.6768 81.4536Z" fill="#F8FAFC"/>
<path d="M57.274 53.7756L49.9961 46.4998L57.274 39.224C57.2741 39.2239 57.2741 39.2238 57.2742 39.2238C57.4381 39.06 57.5682 38.8655 57.6571 38.6514C57.7459 38.4373 57.7917 38.2077 57.7919 37.9759C57.792 37.744 57.7465 37.5144 57.6579 37.3002C57.5693 37.0859 57.4394 36.8912 57.2755 36.7271C57.1117 36.5631 56.9171 36.4329 56.703 36.3441C56.4889 36.2552 56.2593 36.2094 56.0275 36.2093C55.7956 36.2091 55.566 36.2547 55.3517 36.3433C55.1375 36.4318 54.9428 36.5618 54.7787 36.7256L54.7785 36.7258L47.5003 44.004L40.2243 36.7259L40.2242 36.7258C39.893 36.3946 39.4437 36.2085 38.9753 36.2085C38.5068 36.2085 38.0576 36.3946 37.7263 36.7258C37.3951 37.0571 37.209 37.5063 37.209 37.9748C37.209 38.4432 37.3951 38.8925 37.7263 39.2237L37.7264 39.2238L45.0045 46.4998L37.7264 53.7758L37.7263 53.7758C37.5623 53.9398 37.4322 54.1346 37.3434 54.3489C37.2547 54.5631 37.209 54.7928 37.209 55.0248C37.209 55.2567 37.2547 55.4864 37.3434 55.7007C37.4322 55.915 37.5623 56.1097 37.7263 56.2737L37.7263 56.2737C38.0576 56.605 38.5068 56.7911 38.9753 56.7911C39.2072 56.7911 39.4369 56.7454 39.6512 56.6566C39.8655 56.5679 40.0602 56.4377 40.2242 56.2737L40.2243 56.2737L47.5003 48.9955L54.7785 56.2737L54.7787 56.274C55.11 56.6048 55.5592 56.7906 56.0275 56.7903C56.4957 56.79 56.9446 56.6037 57.2755 56.2724C57.6064 55.9411 57.7922 55.4919 57.7919 55.0237C57.7916 54.5555 57.6053 54.1065 57.274 53.7756Z" fill="#17FFA6" stroke="#17FFA6"/>
</g>
<defs>
<clipPath id="clip0_729_42942">
<rect width="132" height="132" fill="white"/>
</clipPath>
</defs>
</svg>
