<svg width="86" height="90" viewBox="0 0 86 90" fill="none" xmlns="http://www.w3.org/2000/svg">
<path d="M11.9706 7.01848H7.02629V39.0247" stroke="#F8FAFC" stroke-width="1.58346" stroke-miterlimit="10" stroke-linecap="round" stroke-linejoin="round"/>
<path d="M52.8119 0.793937V10.6818H62.7013" stroke="#F8FAFC" stroke-width="1.58346" stroke-miterlimit="10" stroke-linecap="round" stroke-linejoin="round"/>
<path d="M47.8643 10.6805H28.0856" stroke="#F8FAFC" stroke-width="1.58346" stroke-miterlimit="10" stroke-linecap="round" stroke-linejoin="round"/>
<path d="M52.8102 15.6258H23.1423" stroke="#F8FAFC" stroke-width="1.58346" stroke-miterlimit="10" stroke-linecap="round" stroke-linejoin="round"/>
<path d="M52.8102 20.5701H23.1423" stroke="#F8FAFC" stroke-width="1.58346" stroke-miterlimit="10" stroke-linecap="round" stroke-linejoin="round"/>
<path d="M52.8102 25.5153H23.1423" stroke="#F8FAFC" stroke-width="1.58346" stroke-miterlimit="10" stroke-linecap="round" stroke-linejoin="round"/>
<path d="M52.8102 30.4587H23.1423" stroke="#F8FAFC" stroke-width="1.58346" stroke-miterlimit="10" stroke-linecap="round" stroke-linejoin="round"/>
<path d="M52.8102 35.402H23.1423" stroke="#F8FAFC" stroke-width="1.58346" stroke-miterlimit="10" stroke-linecap="round" stroke-linejoin="round"/>
<path d="M52.8102 40.3462H23.1423" stroke="#F8FAFC" stroke-width="1.58346" stroke-miterlimit="10" stroke-linecap="round" stroke-linejoin="round"/>
<path d="M51.319 45.2895H23.1423" stroke="#F8FAFC" stroke-width="1.58346" stroke-miterlimit="10" stroke-linecap="round" stroke-linejoin="round"/>
<path d="M37.9764 55.1762H23.1423" stroke="#F8FAFC" stroke-width="1.58346" stroke-miterlimit="10" stroke-linecap="round" stroke-linejoin="round"/>
<path fill-rule="evenodd" clip-rule="evenodd" d="M13.2481 0C12.8108 0 12.4563 0.354465 12.4563 0.791719V70.0073C12.4563 70.4445 12.8108 70.799 13.2481 70.799H40.5642C41.0014 70.799 41.3559 70.4445 41.3559 70.0073C41.3559 69.57 41.0014 69.2155 40.5642 69.2155H14.0398V1.58344H52.4778L61.9026 11.0069V38.5692C61.9026 39.0065 62.2571 39.361 62.6943 39.361C63.1316 39.361 63.4861 39.0065 63.4861 38.5692V10.679C63.4861 10.469 63.4026 10.2676 63.2541 10.1191L53.3655 0.23185C53.217 0.083398 53.0157 0 52.8057 0H13.2481ZM0.791719 11.1664C0.354465 11.1664 0 11.5208 0 11.9581V81.1752C0 81.6125 0.354465 81.9669 0.791719 81.9669H24.8192L24.8341 81.9668H36.7276C36.7916 81.3984 36.8643 80.8731 36.9473 80.3833H10.8228L10.8075 80.3835H1.58344V12.7498H5.73603C6.17328 12.7498 6.52775 12.3953 6.52775 11.9581C6.52775 11.5208 6.17328 11.1664 5.73603 11.1664H0.791719ZM7.81879 75.4377H38.7026C38.6881 75.4604 38.674 75.4827 38.6604 75.5048C38.6491 75.523 38.6382 75.541 38.6275 75.5588C38.3458 76.0298 38.0986 76.5096 37.8815 77.0212H7.02707C6.58981 77.0212 6.23535 76.6667 6.23535 76.2295V33.9805C6.23535 33.5432 6.58981 33.1888 7.02707 33.1888C7.46432 33.1888 7.81879 33.5432 7.81879 33.9805V75.4377Z" fill="#F8FAFC"/>
<path fill-rule="evenodd" clip-rule="evenodd" d="M51.5871 65.9979C47.807 67.2792 44.2947 68.8876 42.3904 70.2093C41.1404 71.0768 39.39 72.8775 38.7395 73.9651C37.2647 76.431 36.7359 79.1373 36.5065 85.3955C36.3723 89.0574 36.406 89.4483 36.8773 89.701C37.0456 89.7913 38.8878 89.8385 42.2387 89.8385C46.2063 89.8385 47.3562 89.8745 47.3999 90.0004L74.0222 89.8385H79.2393H84.4563L84.7377 89.5386C84.9998 89.2591 85.0188 89.1111 85.0178 87.3682C85.0154 83.5504 84.6431 79.4091 84.1172 77.3493C83.006 72.9979 80.3869 70.203 75.2694 67.9077C73.8432 67.2679 70.5339 66.0988 68.9452 65.6734L68.0728 65.4397L67.328 65.8967C65.5059 67.0149 63.8511 67.6002 61.9701 67.792C59.3431 68.0599 56.7659 67.483 54.5672 66.1352C54.0994 65.8484 53.5842 65.5826 53.4225 65.5447C53.2539 65.505 52.4707 65.6985 51.5871 65.9979ZM51.8831 67.9432C49.5836 68.7396 47.6192 69.5551 45.9663 70.3999C40.5918 73.1468 39.0381 75.7309 38.5695 82.7036C38.4953 83.8083 38.4261 85.4118 38.4157 86.267L38.3969 87.822H42.8849H47.3729L74.0348 87.8868H78.5483H83.062L83.0618 86.8825C83.0611 84.8795 82.7801 80.921 82.537 79.491C81.7718 74.9899 80.0224 72.5812 75.9465 70.4164C74.2274 69.5034 71.497 68.4392 69.2395 67.8026L68.4192 67.5712L67.3462 68.1429C65.1749 69.2996 63.1505 69.8033 60.6805 69.8008C58.1938 69.7985 55.7539 69.1525 53.8067 67.9811C53.4061 67.7401 53.0567 67.5473 53.0305 67.5526C53.0042 67.5581 52.4879 67.7338 51.8831 67.9432Z" fill="#17FFA6"/>
<path fill-rule="evenodd" clip-rule="evenodd" d="M59.382 39.6839C55.897 40.2082 53.8914 41.1863 51.6085 43.475C49.6745 45.4139 48.5936 47.4291 48.0522 50.105C47.7272 51.7121 47.8474 54.5629 48.3049 56.0923C49.6987 60.753 53.4212 64.2213 58.0904 65.2095C59.3962 65.4859 61.9179 65.5191 63.0692 65.2749C65.7788 64.7004 67.9793 63.5219 69.8631 61.6361C73.2656 58.23 74.4659 53.252 73.0044 48.6088C71.779 44.7161 68.5148 41.4294 64.6939 40.241C63.0745 39.7373 60.6896 39.4872 59.382 39.6839ZM59.188 41.6792C55.3887 42.2679 52.1174 44.7849 50.6693 48.2337C49.97 49.899 49.77 51.0256 49.8447 52.8775C49.9681 55.9349 50.9578 58.2697 52.9838 60.2824C55.367 62.6501 58.5639 63.7862 61.8401 63.4299C67.6627 62.7966 71.9646 57.7624 71.6289 51.9747C71.48 49.4056 70.695 47.4551 68.9788 45.3894C67.6925 43.8409 65.4717 42.4484 63.4719 41.9361C62.2989 41.6356 60.2588 41.5133 59.188 41.6792Z" fill="#17FFA6"/>
<path fill-rule="evenodd" clip-rule="evenodd" d="M59.382 39.6839C55.897 40.2082 53.8914 41.1863 51.6085 43.475C49.6745 45.4139 48.5936 47.4291 48.0522 50.105C47.7272 51.7121 47.8474 54.5629 48.3049 56.0923C49.6987 60.753 53.4212 64.2213 58.0904 65.2095C59.3962 65.4859 61.9179 65.5191 63.0692 65.2749C65.7788 64.7004 67.9793 63.5219 69.8631 61.6361C73.2656 58.23 74.4659 53.252 73.0044 48.6088C71.779 44.7161 68.5148 41.4294 64.6939 40.241C63.0745 39.7373 60.6896 39.4872 59.382 39.6839ZM59.188 41.6792C55.3887 42.2679 52.1174 44.7849 50.6693 48.2337C49.97 49.899 49.77 51.0256 49.8447 52.8775C49.9681 55.9349 50.9578 58.2697 52.9838 60.2824C55.367 62.6501 58.5639 63.7862 61.8401 63.4299C67.6627 62.7966 71.9646 57.7624 71.6289 51.9747C71.48 49.4056 70.695 47.4551 68.9788 45.3894C67.6925 43.8409 65.4717 42.4484 63.4719 41.9361C62.2989 41.6356 60.2588 41.5133 59.188 41.6792Z" fill="#17FFA6"/>
</svg>
