<svg width="88" height="98" viewBox="0 0 88 98" fill="none" xmlns="http://www.w3.org/2000/svg">
<g clip-path="url(#clip0_0_4535)">
<path d="M87.8302 49.0093C87.8302 43.3119 80.5438 37.9125 69.3726 34.5641C71.9506 23.4147 70.8048 14.5443 65.7563 11.7043C64.5926 11.0382 63.232 10.7226 61.7461 10.7226V14.6319C62.5696 14.6319 63.232 14.7897 63.787 15.0877C66.2217 16.4551 67.278 21.6617 66.4545 28.3583C66.2576 30.0062 65.9353 31.7417 65.5414 33.5123C62.0325 32.6708 58.2014 32.0222 54.1733 31.6015C51.7564 28.3583 49.2501 25.4132 46.7258 22.8362C52.5621 17.5245 58.0403 14.6144 61.764 14.6144V10.7051C56.8408 10.7051 50.3958 14.1411 43.8793 20.1014C37.3627 14.1761 30.9178 10.7752 25.9946 10.7752V14.6845C29.7004 14.6845 35.1965 17.577 41.0328 22.8537C38.5264 25.4307 36.0201 28.3583 33.639 31.6015C29.593 32.0222 25.7619 32.6708 22.2529 33.5298C21.8412 31.7768 21.5368 30.0763 21.322 28.446C20.4806 21.7493 21.5189 16.5427 23.9358 15.1578C24.4729 14.8423 25.1711 14.702 25.9946 14.702V10.7927C24.4908 10.7927 23.1302 11.1083 21.9486 11.7744C16.918 14.6144 15.7901 23.4673 18.386 34.5817C7.25056 37.9475 0 43.3294 0 49.0093C0 54.7067 7.28636 60.1061 18.4576 63.4545C15.8796 74.6039 17.0254 83.4743 22.0739 86.3143C23.2376 86.9804 24.5982 87.296 26.102 87.296C31.0252 87.296 37.4702 83.86 43.9867 77.8996C50.5033 83.8249 56.9482 87.2259 61.8714 87.2259C63.3752 87.2259 64.7358 86.9103 65.9174 86.2441C70.948 83.4042 72.0759 74.5513 69.48 63.4369C80.5796 60.0886 87.8302 54.6892 87.8302 49.0093ZM64.521 37.3164C63.8586 39.5779 63.0351 41.9094 62.1041 44.241C61.3701 42.8385 60.6003 41.4361 59.7589 40.0337C58.9354 38.6312 58.0582 37.2638 57.1809 35.9315C59.7231 36.2997 62.1758 36.7555 64.521 37.3164ZM56.3216 55.9864C54.9252 58.3531 53.493 60.597 52.0071 62.6831C49.3396 62.911 46.6363 63.0337 43.9151 63.0337C41.2118 63.0337 38.5085 62.911 35.8589 62.7006C34.373 60.6145 32.9229 58.3881 31.5265 56.039C30.1659 53.7425 28.9306 51.411 27.8028 49.0619C28.9127 46.7128 30.1659 44.3637 31.5086 42.0672C32.905 39.7006 34.3372 37.4567 35.8231 35.3705C38.4906 35.1426 41.1939 35.0199 43.9151 35.0199C46.6184 35.0199 49.3217 35.1426 51.9713 35.353C53.4572 37.4391 54.9073 39.6655 56.3037 42.0146C57.6643 44.3111 58.8996 46.6427 60.0274 48.9918C58.8996 51.3409 57.6643 53.6899 56.3216 55.9864ZM62.1041 53.7075C63.0709 56.0566 63.8944 58.4057 64.5747 60.6846C62.2295 61.2456 59.7589 61.7189 57.1988 62.0871C58.0761 60.7372 58.9533 59.3523 59.7768 57.9323C60.6003 56.5299 61.3701 55.1099 62.1041 53.7075ZM43.9509 72.4126C42.286 70.7296 40.621 68.8539 38.974 66.8028C40.5852 66.8729 42.2323 66.9255 43.8972 66.9255C45.58 66.9255 47.245 66.8904 48.8741 66.8028C47.2629 68.8539 45.5979 70.7296 43.9509 72.4126ZM30.6314 62.0871C28.0892 61.7189 25.6365 61.2631 23.2913 60.7022C23.9537 58.4407 24.7772 56.1092 25.7081 53.7776C26.4422 55.18 27.212 56.5825 28.0534 57.9849C28.8948 59.3874 29.7541 60.7548 30.6314 62.0871ZM43.8614 25.606C45.5263 27.289 47.1913 29.1647 48.8383 31.2158C47.2271 31.1457 45.58 31.0931 43.9151 31.0931C42.2323 31.0931 40.5673 31.1281 38.9382 31.2158C40.5494 29.1647 42.2144 27.289 43.8614 25.606ZM30.6135 35.9315C29.7362 37.2814 28.859 38.6663 28.0355 40.0863C27.212 41.4887 26.4422 42.8911 25.7081 44.2936C24.7414 41.9445 23.9179 39.5954 23.2376 37.3164C25.5828 36.773 28.0534 36.2997 30.6135 35.9315ZM14.4116 57.8797C8.07408 55.2326 3.97438 51.7616 3.97438 49.0093C3.97438 46.257 8.07408 42.7684 14.4116 40.1388C15.9512 39.4902 17.6341 38.9117 19.3706 38.3683C20.3911 41.8042 21.7338 45.3805 23.3987 49.0444C21.7517 52.6907 20.4269 56.2494 19.4243 59.6679C17.652 59.1244 15.9691 58.5284 14.4116 57.8797ZM24.0432 82.9309C21.6084 81.5635 20.5522 76.3569 21.3757 69.6603C21.5726 68.0124 21.8949 66.2769 22.2887 64.5063C25.7977 65.3478 29.6288 65.9964 33.6569 66.4171C36.0738 69.6603 38.5801 72.6054 41.1044 75.1824C35.2681 80.4941 29.7899 83.4042 26.0662 83.4042C25.2606 83.3867 24.5803 83.2289 24.0432 82.9309ZM66.5082 69.5726C67.3496 76.2693 66.3113 81.4758 63.8944 82.8608C63.3573 83.1763 62.6591 83.3166 61.8356 83.3166C58.1298 83.3166 52.6337 80.424 46.7974 75.1473C49.3038 72.5703 51.8102 69.6427 54.1912 66.3996C58.2372 65.9789 62.0683 65.3302 65.5773 64.4712C65.989 66.2418 66.3113 67.9423 66.5082 69.5726ZM73.4007 57.8797C71.8611 58.5284 70.1782 59.1069 68.4417 59.6503C67.4212 56.2143 66.0785 52.6381 64.4136 48.9742C66.0606 45.3279 67.3854 41.7692 68.388 38.3507C70.1603 38.8942 71.8432 39.4902 73.4186 40.1388C79.7561 42.786 83.8558 46.257 83.8558 49.0093C83.8379 51.7616 79.7382 55.2502 73.4007 57.8797Z" fill="#61DAFB"/>
<path d="M43.8983 57.021C48.4168 57.021 52.0798 53.4341 52.0798 49.0095C52.0798 44.5849 48.4168 40.998 43.8983 40.998C39.3798 40.998 35.7168 44.5849 35.7168 49.0095C35.7168 53.4341 39.3798 57.021 43.8983 57.021Z" fill="#61DAFB"/>
</g>
<defs>
<clipPath id="clip0_0_4535">
<rect width="87.8302" height="98" fill="white"/>
</clipPath>
</defs>
</svg>
