<svg width="34" height="34" viewBox="0 0 34 34" fill="none" xmlns="http://www.w3.org/2000/svg">
<path d="M22.94 22.94C21.2306 24.243 19.1491 24.9649 17 25C10 25 6 17 6 17C7.24389 14.6819 8.96914 12.6566 11.06 11.06M14.9 9.24002C15.5883 9.0789 16.2931 8.99836 17 9.00003C24 9.00003 28 17 28 17C27.393 18.1356 26.6691 19.2048 25.84 20.19M19.12 19.12C18.8454 19.4148 18.5141 19.6512 18.1462 19.8151C17.7782 19.9791 17.3809 20.0673 16.9781 20.0744C16.5753 20.0815 16.1752 20.0074 15.8016 19.8565C15.4281 19.7056 15.0887 19.4811 14.8038 19.1962C14.519 18.9113 14.2944 18.572 14.1435 18.1984C13.9926 17.8249 13.9185 17.4247 13.9256 17.0219C13.9327 16.6191 14.0209 16.2219 14.1849 15.8539C14.3488 15.4859 14.5853 15.1547 14.88 14.88" stroke="#969696" stroke-width="1.5" stroke-linecap="round" stroke-linejoin="round"/>
<path d="M6 6L28 28" stroke="#969696" stroke-width="1.5" stroke-linecap="round" stroke-linejoin="round"/>
</svg>
