<svg width="90" height="90" viewBox="0 0 90 90" fill="none" xmlns="http://www.w3.org/2000/svg">
<path fill-rule="evenodd" clip-rule="evenodd" d="M6.50684 28.8281C5.97949 28.8281 5.45215 28.3008 5.45215 27.7734V18.2812C5.45215 17.7539 5.97949 17.2266 6.50684 17.2266C7.03418 17.2266 7.56152 17.7539 7.56152 18.2812V27.7734C7.56152 28.3008 7.03418 28.8281 6.50684 28.8281Z" fill="#17FFA6"/>
<path fill-rule="evenodd" clip-rule="evenodd" d="M83.499 28.8281C82.9717 28.8281 82.4443 28.3008 82.4443 27.7734V18.2812C82.4443 17.7539 82.9717 17.2266 83.499 17.2266C84.0264 17.2266 84.5537 17.7539 84.5537 18.2812V27.7734C84.5537 28.3008 84.0264 28.8281 83.499 28.8281Z" fill="#17FFA6"/>
<path fill-rule="evenodd" clip-rule="evenodd" d="M59.7656 42.8906H30.2344C28.6523 42.8906 27.4219 41.4844 27.4219 39.9023V30.0586C27.4219 28.4766 28.6523 27.2461 30.2344 27.2461H36.3867C36.7383 27.2461 37.0898 27.4219 37.2656 27.7734L39.5508 31.6406H50.4492L52.7344 27.7734C52.9102 27.4219 53.2617 27.2461 53.6133 27.2461H59.7656C61.3477 27.2461 62.5781 28.4766 62.5781 30.0586V39.9023C62.5781 41.4844 61.3477 42.8906 59.7656 42.8906ZM30.2344 29.3555C29.8828 29.3555 29.5312 29.707 29.5312 30.0586V39.9023C29.5312 40.4297 29.8828 40.7812 30.2344 40.7812H59.7656C60.1172 40.7812 60.4688 40.4297 60.4688 39.9023V30.0586C60.4688 29.707 60.1172 29.3555 59.7656 29.3555H54.1406L52.0312 33.2227C51.6797 33.5742 51.5039 33.75 50.9766 33.75H39.0234C38.4961 33.75 38.3203 33.5742 37.9688 33.2227L35.8594 29.3555H30.2344Z" fill="#F8FAFC"/>
<path fill-rule="evenodd" clip-rule="evenodd" d="M28.4766 39.5508H20.0391C20.0391 39.5508 19.8633 39.5508 19.6875 39.375L10.1953 36.0352C9.31641 35.8594 8.4375 35.6836 7.38281 35.6836C6.85547 35.6836 6.50391 35.6836 5.97656 35.6836C5.44922 35.6836 5.09766 35.6836 4.57031 35.6836C2.10938 35.6836 0 33.75 0 31.1133C0 28.6523 2.10938 26.7188 4.57031 26.7188C10.1953 26.7188 13.0078 27.7734 17.2266 29.3555C18.1055 29.707 19.1602 30.0586 20.2148 30.4102H28.4766C29.0039 30.4102 29.5312 30.9375 29.5312 31.4648V38.4961C29.5312 39.0234 29.0039 39.5508 28.4766 39.5508ZM20.2148 37.4414H27.4219V32.5195H20.0391C20.0391 32.5195 19.8633 32.5195 19.6875 32.5195C18.6328 31.9922 17.4023 31.6406 16.5234 31.2891C12.4805 29.707 9.66797 28.8281 4.57031 28.8281C3.16406 28.8281 2.10938 29.8828 2.10938 31.1133C2.10938 32.5195 3.16406 33.5742 4.57031 33.5742H5.97656H7.38281C8.26172 33.5742 9.49219 33.5742 10.8984 34.1016L20.2148 37.4414Z" fill="#F8FAFC"/>
<path fill-rule="evenodd" clip-rule="evenodd" d="M18.9844 64.5121C16.3477 64.5121 14.0625 62.227 14.0625 59.5902V44.6488C14.0625 44.473 14.2383 44.2973 14.4141 43.9457L19.6875 37.7934C20.2148 37.266 20.7422 37.266 21.2695 37.6176C21.6211 37.9691 21.7969 38.6723 21.4453 39.1996L16.1719 45.1762V59.5902C16.1719 61.1723 17.4023 62.4027 18.9844 62.4027C20.5664 62.4027 21.7969 61.1723 21.7969 59.5902V44.6488C21.7969 44.473 21.7969 44.1215 21.9727 43.9457L27.5977 37.7934C27.9492 37.266 28.6523 37.266 29.1797 37.6176C29.5312 37.9691 29.5312 38.6723 29.1797 39.1996L23.9062 45.1762V59.5902C23.9062 62.227 21.6211 64.5121 18.9844 64.5121Z" fill="#F8FAFC"/>
<path fill-rule="evenodd" clip-rule="evenodd" d="M69.9609 39.5508H61.5234C60.9961 39.5508 60.4688 39.0234 60.4688 38.4961V31.4648C60.4688 30.9375 60.9961 30.4102 61.5234 30.4102H69.7852C70.8398 30.0586 71.8945 29.707 72.7734 29.3555C76.9922 27.7734 79.8047 26.7188 85.4297 26.7188C87.8906 26.7188 90 28.6523 90 31.1133C90 33.75 87.8906 35.6836 85.4297 35.6836C84.9023 35.6836 84.5508 35.6836 84.0234 35.6836C83.4961 35.6836 83.1445 35.6836 82.6172 35.6836C81.5625 35.6836 80.6836 35.8594 79.8047 36.0352L70.3125 39.375C70.1367 39.5508 69.9609 39.5508 69.9609 39.5508ZM62.5781 37.4414H69.7852L79.1016 34.1016C80.5078 33.5742 81.7383 33.5742 82.6172 33.5742H84.0234H85.4297C86.8359 33.5742 87.8906 32.5195 87.8906 31.1133C87.8906 29.8828 86.8359 28.8281 85.4297 28.8281C80.332 28.8281 77.5195 29.707 73.4766 31.2891C72.5977 31.6406 71.3672 31.9922 70.3125 32.5195C70.1367 32.5195 69.9609 32.5195 69.9609 32.5195H62.5781V37.4414Z" fill="#F8FAFC"/>
<path fill-rule="evenodd" clip-rule="evenodd" d="M71.0137 64.5121C68.377 64.5121 66.0918 62.227 66.0918 59.5902V45.1762L60.8184 39.1996C60.4668 38.6723 60.4668 37.9691 60.8184 37.6176C61.3457 37.266 62.0488 37.266 62.4004 37.7934L68.0254 43.9457C68.2012 44.1215 68.2012 44.473 68.2012 44.6488V59.5902C68.2012 61.1723 69.4316 62.4027 71.0137 62.4027C72.5957 62.4027 73.8262 61.1723 73.8262 59.5902V45.1762L68.5527 39.1996C68.2012 38.6723 68.377 37.9691 68.7285 37.6176C69.2559 37.266 69.7832 37.266 70.3105 37.7934L75.584 43.9457C75.7598 44.2973 75.9355 44.473 75.9355 44.6488V59.5902C75.9355 62.227 73.6504 64.5121 71.0137 64.5121Z" fill="#F8FAFC"/>
<path fill-rule="evenodd" clip-rule="evenodd" d="M53.4375 50.625H36.5625C36.0352 50.625 35.5078 50.0977 35.5078 49.5703V41.8359C35.5078 41.1328 36.0352 40.7812 36.5625 40.7812H53.4375C53.9648 40.7812 54.4922 41.1328 54.4922 41.8359V49.5703C54.4922 50.0977 53.9648 50.625 53.4375 50.625ZM37.6172 48.5156H52.3828V42.8906H37.6172V48.5156Z" fill="#F8FAFC"/>
<path fill-rule="evenodd" clip-rule="evenodd" d="M48.8672 58.0078H41.1328C40.6055 58.0078 40.0781 57.4805 40.0781 56.9531V49.5703C40.0781 48.8672 40.6055 48.5156 41.1328 48.5156H48.8672C49.3945 48.5156 49.9219 48.8672 49.9219 49.5703V56.9531C49.9219 57.4805 49.3945 58.0078 48.8672 58.0078ZM42.1875 55.8984H47.8125V50.625H42.1875V55.8984Z" fill="#F8FAFC"/>
<path fill-rule="evenodd" clip-rule="evenodd" d="M54.8467 73.6523H35.1592C33.9287 73.6523 32.874 72.5977 32.874 71.1914V58.1836C32.874 56.9531 33.9287 55.8984 35.1592 55.8984H54.8467C56.0771 55.8984 57.1318 56.9531 57.1318 58.1836V71.1914C57.1318 72.5977 56.0771 73.6523 54.8467 73.6523ZM35.1592 58.0078C35.1592 58.0078 34.9834 58.0078 34.9834 58.1836V71.1914C34.9834 71.3672 35.1592 71.543 35.1592 71.543H54.8467C54.8467 71.543 55.0225 71.3672 55.0225 71.1914V58.1836C55.0225 58.0078 54.8467 58.0078 54.8467 58.0078H35.1592Z" fill="#17FFA6"/>
<path fill-rule="evenodd" clip-rule="evenodd" d="M45 69.2578C42.5391 69.2578 40.4297 67.1484 40.4297 64.6875C40.4297 62.2266 42.5391 60.1172 45 60.1172C47.4609 60.1172 49.5703 62.2266 49.5703 64.6875C49.5703 67.1484 47.4609 69.2578 45 69.2578ZM45 62.2266C43.5938 62.2266 42.5391 63.2812 42.5391 64.6875C42.5391 66.0938 43.5938 67.1484 45 67.1484C46.4062 67.1484 47.4609 66.0938 47.4609 64.6875C47.4609 63.2812 46.4062 62.2266 45 62.2266Z" fill="#17FFA6"/>
<path fill-rule="evenodd" clip-rule="evenodd" d="M11.25 21.4453H1.75781C1.23047 21.4453 0.703125 21.0938 0.703125 20.3906C0.703125 19.8633 1.23047 19.3359 1.75781 19.3359H11.25C11.7773 19.3359 12.3047 19.8633 12.3047 20.3906C12.3047 21.0938 11.7773 21.4453 11.25 21.4453Z" fill="#17FFA6"/>
<path fill-rule="evenodd" clip-rule="evenodd" d="M88.2422 21.4453H78.75C78.2227 21.4453 77.6953 21.0938 77.6953 20.3906C77.6953 19.8633 78.2227 19.3359 78.75 19.3359H88.2422C88.7695 19.3359 89.2969 19.8633 89.2969 20.3906C89.2969 21.0938 88.7695 21.4453 88.2422 21.4453Z" fill="#17FFA6"/>
<path fill-rule="evenodd" clip-rule="evenodd" d="M57.3047 29.3555C56.6016 29.3555 56.25 28.8281 56.25 28.3008C56.25 22.8516 51.8555 18.457 46.4062 18.457H44.1211C38.6719 18.457 34.4531 22.8516 34.4531 28.3008C34.4531 28.8281 33.9258 29.3555 33.3984 29.3555C32.6953 29.3555 32.3438 28.8281 32.3438 28.3008C32.3438 21.7969 37.6172 16.3477 44.1211 16.3477H46.4062C52.9102 16.3477 58.3594 21.7969 58.3594 28.3008C58.3594 28.8281 57.832 29.3555 57.3047 29.3555Z" fill="#F8FAFC"/>
</svg>
