<svg width="80" height="90" viewBox="0 0 80 90" fill="none" xmlns="http://www.w3.org/2000/svg">
<g clip-path="url(#clip0_0_4835)">
<path d="M51.5212 89.8446H52.6149L70.4667 80.9274L70.7639 80.508V9.33135L70.4667 8.90969L52.6149 0H51.5078L51.5212 89.8446Z" fill="#5294CF"/>
<path d="M28.286 89.8446H27.1771L9.34051 80.9274L8.97855 80.3055L8.79492 9.69384L9.34051 8.90969L27.1771 0H28.2997L28.286 89.8446Z" fill="#1F5B98"/>
<path d="M27.209 0H52.5946V89.8446H27.209V0Z" fill="#2D72B8"/>
<path d="M79.8113 42.9043L79.2081 42.7707L70.5947 41.9685L70.4668 42.032L52.5991 41.3183H27.2122L9.34416 42.032V28.4218L9.32545 28.4317L9.34416 28.3919L27.2122 24.2562H52.5991L70.4668 28.3919L77.0354 31.8795V29.6372L79.8113 29.3339L79.5239 28.774L70.7346 22.4961L70.4668 22.583L52.5991 17.0525H27.2122L9.34416 22.583V8.91016L0 19.845V29.395L0.072329 29.3426L2.77594 29.6372V31.9256L0 33.4095V42.9118L0.072329 42.9043L2.77594 42.9442V46.9325L0.443327 46.9674L0 46.925V56.4311L2.77594 57.9222V60.2369L0.116288 60.5303L0 60.4431V69.9915L9.34416 80.9279V67.2563L27.2122 72.7868H52.5991L70.5195 67.2401L70.7577 67.3444L79.4313 61.159L79.8113 60.5428L77.0354 60.2369V57.9686L76.6716 57.8234L70.7346 61.0202L70.5195 61.4686L52.5991 65.5803V65.5852H27.2122V65.5803L9.34416 61.4512V47.7911L27.2122 48.5024V48.5198H52.5991L70.4668 47.7911L70.8737 47.9779L79.2224 47.2598L79.8113 46.9724L77.0354 46.9325V42.9442L79.8113 42.9043Z" fill="#1A476F"/>
<path d="M70.4648 67.2548V80.9264L79.8093 69.99V60.5039L70.5188 67.2386L70.4648 67.2548Z" fill="#2D72B8"/>
<path d="M70.4648 61.4802L70.5188 61.4677L79.8093 56.4763V46.9316L70.4648 47.7902V61.4802Z" fill="#2D72B8"/>
<path d="M70.5188 28.4031L70.4648 28.3906V42.0308L79.8093 42.903V33.363L70.5188 28.4031Z" fill="#2D72B8"/>
<path d="M70.5188 22.6366L79.8093 29.3339V19.8475L70.4648 8.91016V22.583L70.5188 22.6017V22.6366Z" fill="#2D72B8"/>
</g>
<defs>
<clipPath id="clip0_0_4835">
<rect width="79.8113" height="90" fill="white"/>
</clipPath>
</defs>
</svg>
