<svg width="90" height="90" viewBox="0 0 90 90" fill="none" xmlns="http://www.w3.org/2000/svg">
<g clip-path="url(#clip0_0_4062)">
<path d="M47.8031 11.14C47.8031 12.7007 46.538 13.9658 44.9772 13.9658C43.4165 13.9658 42.1514 12.7007 42.1514 11.14C42.1514 9.5792 43.4165 8.3141 44.9772 8.3141C46.538 8.3141 47.8031 9.5792 47.8031 11.14Z" stroke="#F8FAFC" stroke-width="2.54718" stroke-miterlimit="10" stroke-linecap="round" stroke-linejoin="round"/>
<path d="M60.8818 45.7281H51.1937V36.0397H38.7672V45.7281H29.0791V58.1544H38.7672V67.8428H51.1937V58.1544H60.8818V45.7281Z" stroke="#17FFA6" stroke-width="2.54718" stroke-miterlimit="10" stroke-linecap="round" stroke-linejoin="round"/>
<path d="M79.6704 66.2893V15.8211C79.6704 12.4391 76.9287 13.0935 73.5467 13.0935H67.8677V20.8303C67.8677 22.532 66.4882 23.9114 64.7866 23.9114H25.1583C23.4568 23.9114 22.0771 22.532 22.0771 20.8303V13.0935H16.3983C13.0163 13.0935 10.2744 12.4391 10.2744 15.8211V85.9514C10.2744 89.3334 13.0163 88.679 16.3983 88.679H73.5467C76.9287 88.679 79.6704 89.3334 79.6704 85.9514V64.7702" stroke="#F8FAFC" stroke-width="2.54718" stroke-miterlimit="10" stroke-linecap="round" stroke-linejoin="round"/>
<path d="M17.377 37.4611V81.5796H72.5742V20.1929H67.8708V20.8303C67.8708 22.532 66.4913 23.9114 64.7897 23.9114H25.1614C23.4597 23.9114 22.0802 22.532 22.0802 20.8303V20.1929H17.377V38.9802" stroke="#F8FAFC" stroke-width="2.54718" stroke-miterlimit="10" stroke-linecap="round" stroke-linejoin="round"/>
<path d="M64.7934 10.0124H56.2625C54.9074 10.0124 53.7339 9.09238 53.3873 7.78211C52.4026 4.05977 49.0114 1.31582 44.9793 1.31582C40.9472 1.31582 37.5561 4.05977 36.5712 7.78211C36.2247 9.09238 35.0512 10.0124 33.6961 10.0124H25.1653C23.4635 10.0124 22.084 11.392 22.084 13.0937V20.8304C22.084 22.5321 23.4635 23.9116 25.1653 23.9116H64.7934C66.4951 23.9116 67.8746 22.5321 67.8746 20.8304V13.0937C67.8746 11.392 66.4951 10.0124 64.7934 10.0124Z" stroke="#F8FAFC" stroke-width="2.54718" stroke-miterlimit="10" stroke-linecap="round" stroke-linejoin="round"/>
</g>
<defs>
<clipPath id="clip0_0_4062">
<rect width="90" height="90" fill="white"/>
</clipPath>
</defs>
</svg>
