<svg width="90" height="90" viewBox="0 0 90 90" fill="none" xmlns="http://www.w3.org/2000/svg">
<path d="M65.0558 0.681641H5.87402C3.41948 0.681641 1.37402 2.59073 1.37402 5.04528V84.9544C1.37402 87.4089 3.41948 89.4544 5.87402 89.4544H65.0558C67.5104 89.4544 69.5558 87.4089 69.5558 84.9544V5.04528C69.5558 2.59073 67.5104 0.681641 65.0558 0.681641ZM66.8286 84.9544C66.8286 85.9089 66.0104 86.7271 65.0558 86.7271H5.87402C4.91948 86.5907 4.1013 85.9089 4.1013 84.9544V5.04528C4.1013 4.09073 4.91948 3.40891 5.87402 3.40891H65.0558C66.0104 3.40891 66.8286 4.09073 66.8286 5.04528V84.9544Z" fill="#F8FAFC"/>
<path d="M58.9169 48.5454H11.8714C11.0533 48.5454 10.5078 49.0909 10.5078 49.909C10.5078 50.7272 11.0533 51.2727 11.8714 51.2727H58.9169C59.7351 51.2727 60.2805 50.7272 60.2805 49.909C60.2805 49.2272 59.7351 48.5454 58.9169 48.5454Z" fill="#17FFA6"/>
<path d="M11.8714 21.8176H32.5987C33.4169 21.8176 33.9624 21.2722 33.9624 20.454C33.9624 19.6358 33.4169 19.0903 32.5987 19.0903H11.8714C11.0533 19.0903 10.5078 19.6358 10.5078 20.454C10.5078 21.1358 11.1896 21.8176 11.8714 21.8176Z" fill="#17FFA6"/>
<path d="M58.9169 58.3638H11.8714C11.0533 58.3638 10.5078 58.9092 10.5078 59.7274C10.5078 60.5456 11.0533 61.091 11.8714 61.091H58.9169C59.7351 61.091 60.2805 60.5456 60.2805 59.7274C60.2805 58.9092 59.7351 58.3638 58.9169 58.3638Z" fill="#17FFA6"/>
<path d="M58.9169 68.1816H11.8714C11.0533 68.1816 10.5078 68.7271 10.5078 69.5453C10.5078 70.3635 11.0533 70.9089 11.8714 70.9089H58.9169C59.7351 70.9089 60.2805 70.3635 60.2805 69.5453C60.2805 68.8635 59.7351 68.1816 58.9169 68.1816Z" fill="#17FFA6"/>
<path d="M11.8714 31.636H32.5987C33.4169 31.636 33.9624 31.0905 33.9624 30.2723C33.9624 29.4541 33.4169 28.9087 32.5987 28.9087H11.8714C11.0533 28.9087 10.5078 29.4541 10.5078 30.2723C10.5078 30.9541 11.1896 31.636 11.8714 31.636Z" fill="#17FFA6"/>
<path d="M58.9169 38.7275H11.8714C11.0533 38.7275 10.5078 39.273 10.5078 40.0912C10.5078 40.9094 11.0533 41.4548 11.8714 41.4548H58.9169C59.7351 41.4548 60.2805 40.9094 60.2805 40.0912C60.2805 39.273 59.7351 38.7275 58.9169 38.7275Z" fill="#17FFA6"/>
<path d="M58.9218 9.27246H40.3763C39.5581 9.27246 39.0127 9.81792 39.0127 10.6361V30.2725C39.0127 31.0906 39.5581 31.6361 40.3763 31.6361H59.0581C59.8763 31.6361 60.4218 31.0906 60.4218 30.2725V10.6361C60.2854 9.81792 59.74 9.27246 58.9218 9.27246ZM57.5582 28.9088H41.74V11.9997H57.6945V28.9088H57.5582Z" fill="#F8FAFC"/>
<path d="M27.4169 77.9995H11.8714C11.0533 77.9995 10.5078 78.545 10.5078 79.3631C10.5078 80.1813 11.0533 80.7268 11.8714 80.7268H27.4169C28.2351 80.7268 28.7805 80.1813 28.7805 79.3631C28.7805 78.6813 28.0987 77.9995 27.4169 77.9995Z" fill="#17FFA6"/>
<path d="M11.8714 11.9997H32.5987C33.4169 11.9997 33.9624 11.4543 33.9624 10.6361C33.9624 9.81792 33.4169 9.27246 32.5987 9.27246H11.8714C11.0533 9.27246 10.5078 9.81792 10.5078 10.6361C10.5078 11.3179 11.1896 11.9997 11.8714 11.9997Z" fill="#17FFA6"/>
<path d="M84.5542 20.3179H78.6905C76.5087 20.3179 74.5996 22.0906 74.5996 24.4088V68.727C74.5996 68.8633 74.5996 69.1361 74.736 69.2724L80.3269 81.4088C80.5996 81.9542 81.0087 82.227 81.5542 82.227C82.0996 82.227 82.5087 81.9542 82.7814 81.4088L88.3723 69.2724C88.5087 69.1361 88.5087 68.8633 88.5087 68.727V24.4088C88.6451 22.0906 86.8723 20.3179 84.5542 20.3179ZM78.8269 23.0451H84.5542C85.236 23.0451 85.9178 23.5906 85.9178 24.4088V30.5451H77.4632V24.4088C77.4632 23.5906 78.0087 23.0451 78.8269 23.0451ZM77.4632 67.227V33.1361H85.9178V67.227H77.4632ZM81.6905 77.5906L78.2814 70.0906H85.236L81.6905 77.5906Z" fill="#F8FAFC"/>
</svg>
