<svg width="90" height="90" viewBox="0 0 90 90" fill="none" xmlns="http://www.w3.org/2000/svg">
<path d="M65.0558 0.681641H5.87402C3.41948 0.681641 1.37402 2.59073 1.37402 5.04528V84.9544C1.37402 87.4089 3.41948 89.4544 5.87402 89.4544H65.0558C67.5104 89.4544 69.5558 87.4089 69.5558 84.9544V5.04528C69.5558 2.59073 67.5104 0.681641 65.0558 0.681641ZM66.8286 84.9544C66.8286 85.9089 66.0104 86.7271 65.0558 86.7271H5.87402C4.91948 86.5907 4.1013 85.9089 4.1013 84.9544V5.04528C4.1013 4.09073 4.91948 3.40891 5.87402 3.40891H65.0558C66.0104 3.40891 66.8286 4.09073 66.8286 5.04528V84.9544Z" fill="#F8FAFC"/>
<path d="M58.9169 48.5449H11.8714C11.0533 48.5449 10.5078 49.0904 10.5078 49.9086C10.5078 50.7267 11.0533 51.2722 11.8714 51.2722H58.9169C59.7351 51.2722 60.2805 50.7267 60.2805 49.9086C60.2805 49.2267 59.7351 48.5449 58.9169 48.5449Z" fill="#17FFA6"/>
<path d="M11.8714 21.8171H32.5987C33.4169 21.8171 33.9624 21.2717 33.9624 20.4535C33.9624 19.6353 33.4169 19.0898 32.5987 19.0898H11.8714C11.0533 19.0898 10.5078 19.6353 10.5078 20.4535C10.5078 21.1353 11.1896 21.8171 11.8714 21.8171Z" fill="#17FFA6"/>
<path d="M58.9169 58.3633H11.8714C11.0533 58.3633 10.5078 58.9087 10.5078 59.7269C10.5078 60.5451 11.0533 61.0906 11.8714 61.0906H58.9169C59.7351 61.0906 60.2805 60.5451 60.2805 59.7269C60.2805 58.9087 59.7351 58.3633 58.9169 58.3633Z" fill="#17FFA6"/>
<path d="M58.9169 68.1816H11.8714C11.0533 68.1816 10.5078 68.7271 10.5078 69.5453C10.5078 70.3635 11.0533 70.9089 11.8714 70.9089H58.9169C59.7351 70.9089 60.2805 70.3635 60.2805 69.5453C60.2805 68.8635 59.7351 68.1816 58.9169 68.1816Z" fill="#17FFA6"/>
<path d="M11.8714 31.6355H32.5987C33.4169 31.6355 33.9624 31.09 33.9624 30.2718C33.9624 29.4537 33.4169 28.9082 32.5987 28.9082H11.8714C11.0533 28.9082 10.5078 29.4537 10.5078 30.2718C10.5078 30.9537 11.1896 31.6355 11.8714 31.6355Z" fill="#17FFA6"/>
<path d="M58.9169 38.7266H11.8714C11.0533 38.7266 10.5078 39.272 10.5078 40.0902C10.5078 40.9084 11.0533 41.4538 11.8714 41.4538H58.9169C59.7351 41.4538 60.2805 40.9084 60.2805 40.0902C60.2805 39.272 59.7351 38.7266 58.9169 38.7266Z" fill="#17FFA6"/>
<path d="M58.9218 9.27344H40.3763C39.5581 9.27344 39.0127 9.81889 39.0127 10.6371V30.2734C39.0127 31.0916 39.5581 31.6371 40.3763 31.6371H59.0581C59.8763 31.6371 60.4218 31.0916 60.4218 30.2734V10.6371C60.2854 9.81889 59.74 9.27344 58.9218 9.27344ZM57.5582 28.9098H41.74V12.0007H57.6945V28.9098H57.5582Z" fill="#F8FAFC"/>
<path d="M27.4169 78H11.8714C11.0533 78 10.5078 78.5455 10.5078 79.3636C10.5078 80.1818 11.0533 80.7273 11.8714 80.7273H27.4169C28.2351 80.7273 28.7805 80.1818 28.7805 79.3636C28.7805 78.6818 28.0987 78 27.4169 78Z" fill="#17FFA6"/>
<path d="M11.8714 12.0007H32.5987C33.4169 12.0007 33.9624 11.4553 33.9624 10.6371C33.9624 9.81889 33.4169 9.27344 32.5987 9.27344H11.8714C11.0533 9.27344 10.5078 9.81889 10.5078 10.6371C10.5078 11.3189 11.1896 12.0007 11.8714 12.0007Z" fill="#17FFA6"/>
<path d="M84.5542 20.3184H78.6905C76.5087 20.3184 74.5996 22.0911 74.5996 24.4093V68.7275C74.5996 68.8638 74.5996 69.1365 74.736 69.2729L80.3269 81.4093C80.5996 81.9547 81.0087 82.2275 81.5542 82.2275C82.0996 82.2275 82.5087 81.9547 82.7814 81.4093L88.3723 69.2729C88.5087 69.1365 88.5087 68.8638 88.5087 68.7275V24.4093C88.6451 22.0911 86.8723 20.3184 84.5542 20.3184ZM78.8269 23.0456H84.5542C85.236 23.0456 85.9178 23.5911 85.9178 24.4093V30.5456H77.4632V24.4093C77.4632 23.5911 78.0087 23.0456 78.8269 23.0456ZM77.4632 67.2275V33.1365H85.9178V67.2275H77.4632ZM81.6905 77.5911L78.2814 70.0911H85.236L81.6905 77.5911Z" fill="#F8FAFC"/>
</svg>
