<svg width="71" height="91" viewBox="0 0 71 91" fill="none" xmlns="http://www.w3.org/2000/svg">
<path fill-rule="evenodd" clip-rule="evenodd" d="M33.5637 0.0981824C28.4702 0.864486 25.5391 2.29406 22.2025 5.6394C19.376 8.47336 17.7962 11.4189 17.0049 15.3301C16.5299 17.679 16.7056 21.846 17.3741 24.0814C19.4113 30.8937 24.8517 35.9631 31.6759 37.4075C33.5843 37.8115 37.2698 37.86 38.9525 37.5031C42.9126 36.6633 46.1287 34.9408 48.8819 32.1845C53.8547 27.2059 55.609 19.9298 53.473 13.1432C51.682 7.45345 46.9113 2.64937 41.327 0.912403C38.9602 0.176214 35.4747 -0.189324 33.5637 0.0981824ZM33.28 3.01453C27.7273 3.87496 22.9462 7.55402 20.8298 12.5948C19.8078 15.029 19.5155 16.6756 19.6246 19.3825C19.805 23.8513 21.2514 27.2639 24.2125 30.2058C27.6955 33.6665 32.3679 35.3271 37.1562 34.8063C45.666 33.8807 51.9533 26.5224 51.4627 18.063C51.245 14.3078 50.0977 11.4569 47.5895 8.43756C45.7095 6.17426 42.4637 4.1388 39.5411 3.39011C37.8267 2.95089 34.8451 2.7721 33.28 3.01453ZM22.1405 37.2897C16.6159 39.1624 11.4826 41.5133 8.69948 43.4451C6.87257 44.7131 4.3143 47.3452 3.3636 48.9348C1.20808 52.5391 0.435301 56.4948 0.10006 65.642C-0.0962066 70.9944 -0.0468569 71.5658 0.641966 71.9351C0.887961 72.0671 3.58029 72.136 8.47768 72.136C14.2764 72.136 15.957 72.1887 16.0209 72.3728C16.0663 72.5031 16.1221 72.9846 16.1451 73.4429C16.2459 75.4537 17.671 77.0843 19.7135 77.5257C20.4127 77.6771 20.4465 77.7517 20.0264 78.2167C19.6093 78.6782 19.2116 79.8625 19.2018 80.6726C19.184 82.1249 19.7188 83.0834 21.6355 85.0361C23.7012 87.1402 24.601 87.6583 26.1895 87.6583C27.2109 87.6583 28.6511 87.1735 28.9191 86.7394C29.1677 86.3364 29.3551 86.5373 29.4597 87.3193C29.6529 88.7624 31.0479 90.2633 32.5959 90.694C33.4457 90.9304 37.3687 90.9378 38.3712 90.705C39.5502 90.4311 40.5909 89.5889 41.1742 88.4364C41.4601 87.8716 41.6942 87.2161 41.6942 86.9799V86.5506L42.7534 87.1085C43.9735 87.7515 45.4168 87.8548 46.5507 87.3801C47.5436 86.9646 50.9221 83.5956 51.3916 82.5529C52.0586 81.0713 51.8176 79.1099 50.8294 77.9788C50.5823 77.696 50.6301 77.6536 51.3296 77.5352C53.2871 77.204 54.9298 75.2058 54.9298 73.1561V72.136H62.5547H70.1794L70.5907 71.6978C70.9738 71.2892 71.0016 71.073 71.0001 68.5254C70.9967 62.9451 70.4525 56.892 69.6839 53.8813C68.0598 47.5211 64.2319 43.436 56.7526 40.081C54.6682 39.146 49.8316 37.437 47.5097 36.8152L46.2348 36.4738L45.1462 37.1418C42.4832 38.7761 40.0647 39.6316 37.3154 39.9119C33.4761 40.3036 29.7094 39.4604 26.496 37.4903C25.8123 37.0711 25.0594 36.6827 24.823 36.6272C24.5766 36.5692 23.4319 36.852 22.1405 37.2897ZM22.5969 40.1447C19.2362 41.3087 16.3652 42.5008 13.9495 43.7355C6.0945 47.7505 3.82382 51.5275 3.13897 61.7192C3.03044 63.3338 2.92928 65.6776 2.91416 66.9276L2.88674 69.2004H9.44597H16.0052L16.3554 68.1587C16.8073 66.8147 18.0388 65.6444 19.3569 65.306L20.2792 65.0692L19.7836 64.1113C19.17 62.9253 19.105 61.0519 19.6426 60.0413C20.1648 59.0591 22.9594 56.2444 24.0151 55.6374C25.4901 54.7893 27.7369 54.9457 28.8731 55.9755C29.242 56.3102 29.1883 56.3884 29.5799 54.945C29.848 53.9565 30.7159 52.9326 31.7494 52.3851C32.4076 52.0364 32.9077 51.9646 35.0865 51.9053C37.9831 51.8267 38.8129 51.9834 39.9771 52.8283C40.8028 53.4273 41.6887 54.9637 41.6923 55.8029L41.6942 56.2314L42.4857 55.7308C43.4441 55.1249 45.2315 54.9177 46.3401 55.284C47.2399 55.5815 50.8205 59.003 51.3806 60.1008C52.0806 61.4731 51.8274 63.6355 50.833 64.7742C50.5912 65.0512 50.6371 65.0963 51.2813 65.2143C52.9458 65.5194 54.556 67.075 54.854 68.6657L54.972 69.2951H61.5687H68.1655L68.1652 67.8273C68.1642 64.8995 67.7535 59.1136 67.3982 57.0234C66.2798 50.4445 63.7231 46.9238 57.7661 43.7597C55.2536 42.4252 51.263 40.8697 47.9637 39.9392L46.7648 39.6009L45.1965 40.4365C42.0232 42.1273 39.0644 42.8635 35.4545 42.8599C31.8201 42.8565 28.2543 41.9123 25.4084 40.2002C24.8228 39.8479 24.3123 39.5661 24.2739 39.5738C24.2355 39.5818 23.4809 39.8386 22.5969 40.1447ZM32.9964 55.0171C32.7364 55.1967 32.4812 55.3785 32.4292 55.4213C32.3772 55.4641 32.2921 56.5916 32.2401 57.9267C32.1314 60.7209 31.9336 61.151 30.7577 61.151C30.175 61.151 29.8817 60.9466 28.4479 59.5411C26.2114 57.349 26.128 57.3517 23.7897 59.6941C21.501 61.9864 21.5014 61.9629 23.7314 64.276C25.5744 66.1878 25.737 66.5842 25.0412 67.4702C24.6585 67.9576 24.5986 67.9693 22.4793 67.9693C20.2281 67.9693 19.3671 68.1901 19.1218 68.8301C19.0573 68.9987 19.0071 70.1737 19.0105 71.4413C19.0188 74.6514 19.1598 74.7876 22.4763 74.7876C24.6188 74.7876 24.6551 74.795 25.0561 75.3054C25.7107 76.1392 25.4528 76.7466 23.6891 78.5229C22.3252 79.8968 22.1432 80.1608 22.1432 80.7654C22.1432 81.3781 22.3245 81.6292 23.8553 83.1382C26.1386 85.3886 26.2298 85.3901 28.4479 83.2158C29.8817 81.8103 30.175 81.6059 30.7577 81.6059C31.9368 81.6059 32.1314 82.033 32.2401 84.8609C32.3225 87.0038 32.3813 87.3536 32.6984 87.5854C33.2417 87.9824 34.0954 88.0902 36.1202 88.0169C37.8484 87.9544 37.97 87.9224 38.4019 87.4193C38.8281 86.9229 38.8579 86.7417 38.8579 84.6615C38.8579 82.6827 38.9009 82.3889 39.2435 82.0205C39.5038 81.7404 39.8527 81.6059 40.3184 81.6059C40.9286 81.6059 41.1963 81.7908 42.6502 83.2158C44.8724 85.3939 44.9813 85.3926 47.2133 83.1569C48.7195 81.6482 48.8793 81.4198 48.8793 80.7739C48.8793 80.1351 48.7095 79.8828 47.2721 78.3862C45.5686 76.6125 45.3455 76.0801 45.9621 75.2611C46.2143 74.9261 46.5318 74.8713 48.7144 74.7876C51.132 74.6948 51.1906 74.6823 51.6376 74.1615C52.0649 73.6635 52.0936 73.4866 52.0936 71.3533C52.0936 69.0894 52.0904 69.0735 51.5409 68.5229C50.9913 67.9723 50.9758 67.9693 48.7121 67.9693C46.6141 67.9693 46.4057 67.9369 46.0504 67.5547C45.3058 66.7541 45.5206 66.1944 47.2721 64.3707C48.7095 62.8741 48.8793 62.6218 48.8793 61.983C48.8793 61.3371 48.7195 61.1087 47.2133 59.6C44.9883 57.3712 44.8927 57.37 42.6396 59.5411C41.2095 60.919 40.876 61.151 40.3245 61.151C39.8954 61.151 39.5428 61.0046 39.269 60.7127C38.8956 60.3144 38.8579 60.0725 38.8579 58.0716C38.8579 56.017 38.8273 55.8332 38.4021 55.3376C37.9566 54.8183 37.8948 54.8048 35.7077 54.7486C33.8344 54.7003 33.392 54.744 32.9964 55.0171ZM34.6982 63.0035C32.103 63.2321 29.6784 64.9916 28.4723 67.5212C26.7305 71.1743 28.4331 75.8034 32.2051 77.6699C34.2629 78.6883 37.2566 78.6118 39.2125 77.4909C41.9375 75.9289 43.3375 73.3376 43.1703 70.1646C42.941 65.8085 39.1574 62.6103 34.6982 63.0035ZM33.7527 66.1335C32.8274 66.4257 31.1898 68.1081 30.9345 69.029C30.5624 70.372 30.6756 71.7764 31.2474 72.9058C32.1705 74.7289 33.9348 75.6814 36.0384 75.4924C37.2865 75.3801 38.0439 75.0223 38.9462 74.1185C39.8886 73.1743 40.2265 72.4092 40.3228 71.0012C40.5185 68.1337 38.4121 65.8596 35.6025 65.9052C34.9491 65.9158 34.1167 66.0187 33.7527 66.1335Z" fill="#F8FAFC"/>
<path fill-rule="evenodd" clip-rule="evenodd" d="M33.5637 0.0981824C28.4702 0.864486 25.5391 2.29406 22.2025 5.6394C19.376 8.47336 17.7962 11.4189 17.0049 15.3301C16.5299 17.679 16.7056 21.846 17.3741 24.0814C19.4113 30.8937 24.8517 35.9631 31.6759 37.4075C33.5843 37.8115 37.2698 37.86 38.9525 37.5031C42.9126 36.6633 46.1287 34.9408 48.8819 32.1845C53.8547 27.2059 55.609 19.9298 53.473 13.1432C51.682 7.45345 46.9113 2.64937 41.327 0.912403C38.9602 0.176214 35.4747 -0.189324 33.5637 0.0981824ZM33.28 3.01453C27.7273 3.87496 22.9462 7.55402 20.8298 12.5948C19.8078 15.029 19.5155 16.6756 19.6246 19.3825C19.805 23.8513 21.2514 27.2639 24.2125 30.2058C27.6955 33.6665 32.3679 35.3271 37.1562 34.8063C45.666 33.8807 51.9533 26.5224 51.4627 18.063C51.245 14.3078 50.0977 11.4569 47.5895 8.43756C45.7095 6.17426 42.4637 4.1388 39.5411 3.39011C37.8267 2.95089 34.8451 2.7721 33.28 3.01453ZM22.1405 37.2897C16.6159 39.1624 11.4826 41.5133 8.69948 43.4451C6.87257 44.7131 4.3143 47.3452 3.3636 48.9348C1.20808 52.5391 0.435301 56.4948 0.10006 65.642C-0.0962066 70.9944 -0.0468569 71.5658 0.641966 71.9351C0.887961 72.0671 3.58029 72.136 8.47768 72.136C14.2764 72.136 15.957 72.1887 16.0209 72.3728C16.0663 72.5031 16.1221 72.9846 16.1451 73.4429C16.2459 75.4537 17.671 77.0843 19.7135 77.5257C20.4127 77.6771 20.4465 77.7517 20.0264 78.2167C19.6093 78.6782 19.2116 79.8625 19.2018 80.6726C19.184 82.1249 19.7188 83.0834 21.6355 85.0361C23.7012 87.1402 24.601 87.6583 26.1895 87.6583C27.2109 87.6583 28.6511 87.1735 28.9191 86.7394C29.1677 86.3364 29.3551 86.5373 29.4597 87.3193C29.6529 88.7624 31.0479 90.2633 32.5959 90.694C33.4457 90.9304 37.3687 90.9378 38.3712 90.705C39.5502 90.4311 40.5909 89.5889 41.1742 88.4364C41.4601 87.8716 41.6942 87.2161 41.6942 86.9799V86.5506L42.7534 87.1085C43.9735 87.7515 45.4168 87.8548 46.5507 87.3801C47.5436 86.9646 50.9221 83.5956 51.3916 82.5529C52.0586 81.0713 51.8176 79.1099 50.8294 77.9788C50.5823 77.696 50.6301 77.6536 51.3296 77.5352C53.2871 77.204 54.9298 75.2058 54.9298 73.1561V72.136H62.5547H70.1794L70.5907 71.6978C70.9738 71.2892 71.0016 71.073 71.0001 68.5254C70.9967 62.9451 70.4525 56.892 69.6839 53.8813C68.0598 47.5211 64.2319 43.436 56.7526 40.081C54.6682 39.146 49.8316 37.437 47.5097 36.8152L46.2348 36.4738L45.1462 37.1418C42.4832 38.7761 40.0647 39.6316 37.3154 39.9119C33.4761 40.3036 29.7094 39.4604 26.496 37.4903C25.8123 37.0711 25.0594 36.6827 24.823 36.6272C24.5766 36.5692 23.4319 36.852 22.1405 37.2897ZM22.5969 40.1447C19.2362 41.3087 16.3652 42.5008 13.9495 43.7355C6.0945 47.7505 3.82382 51.5275 3.13897 61.7192C3.03044 63.3338 2.92928 65.6776 2.91416 66.9276L2.88674 69.2004H9.44597H16.0052L16.3554 68.1587C16.8073 66.8147 18.0388 65.6444 19.3569 65.306L20.2792 65.0692L19.7836 64.1113C19.17 62.9253 19.105 61.0519 19.6426 60.0413C20.1648 59.0591 22.9594 56.2444 24.0151 55.6374C25.4901 54.7893 27.7369 54.9457 28.8731 55.9755C29.242 56.3102 29.1883 56.3884 29.5799 54.945C29.848 53.9565 30.7159 52.9326 31.7494 52.3851C32.4076 52.0364 32.9077 51.9646 35.0865 51.9053C37.9831 51.8267 38.8129 51.9834 39.9771 52.8283C40.8028 53.4273 41.6887 54.9637 41.6923 55.8029L41.6942 56.2314L42.4857 55.7308C43.4441 55.1249 45.2315 54.9177 46.3401 55.284C47.2399 55.5815 50.8205 59.003 51.3806 60.1008C52.0806 61.4731 51.8274 63.6355 50.833 64.7742C50.5912 65.0512 50.6371 65.0963 51.2813 65.2143C52.9458 65.5194 54.556 67.075 54.854 68.6657L54.972 69.2951H61.5687H68.1655L68.1652 67.8273C68.1642 64.8995 67.7535 59.1136 67.3982 57.0234C66.2798 50.4445 63.7231 46.9238 57.7661 43.7597C55.2536 42.4252 51.263 40.8697 47.9637 39.9392L46.7648 39.6009L45.1965 40.4365C42.0232 42.1273 39.0644 42.8635 35.4545 42.8599C31.8201 42.8565 28.2543 41.9123 25.4084 40.2002C24.8228 39.8479 24.3123 39.5661 24.2739 39.5738C24.2355 39.5818 23.4809 39.8386 22.5969 40.1447ZM32.9964 55.0171C32.7364 55.1967 32.4812 55.3785 32.4292 55.4213C32.3772 55.4641 32.2921 56.5916 32.2401 57.9267C32.1314 60.7209 31.9336 61.151 30.7577 61.151C30.175 61.151 29.8817 60.9466 28.4479 59.5411C26.2114 57.349 26.128 57.3517 23.7897 59.6941C21.501 61.9864 21.5014 61.9629 23.7314 64.276C25.5744 66.1878 25.737 66.5842 25.0412 67.4702C24.6585 67.9576 24.5986 67.9693 22.4793 67.9693C20.2281 67.9693 19.3671 68.1901 19.1218 68.8301C19.0573 68.9987 19.0071 70.1737 19.0105 71.4413C19.0188 74.6514 19.1598 74.7876 22.4763 74.7876C24.6188 74.7876 24.6551 74.795 25.0561 75.3054C25.7107 76.1392 25.4528 76.7466 23.6891 78.5229C22.3252 79.8968 22.1432 80.1608 22.1432 80.7654C22.1432 81.3781 22.3245 81.6292 23.8553 83.1382C26.1386 85.3886 26.2298 85.3901 28.4479 83.2158C29.8817 81.8103 30.175 81.6059 30.7577 81.6059C31.9368 81.6059 32.1314 82.033 32.2401 84.8609C32.3225 87.0038 32.3813 87.3536 32.6984 87.5854C33.2417 87.9824 34.0954 88.0902 36.1202 88.0169C37.8484 87.9544 37.97 87.9224 38.4019 87.4193C38.8281 86.9229 38.8579 86.7417 38.8579 84.6615C38.8579 82.6827 38.9009 82.3889 39.2435 82.0205C39.5038 81.7404 39.8527 81.6059 40.3184 81.6059C40.9286 81.6059 41.1963 81.7908 42.6502 83.2158C44.8724 85.3939 44.9813 85.3926 47.2133 83.1569C48.7195 81.6482 48.8793 81.4198 48.8793 80.7739C48.8793 80.1351 48.7095 79.8828 47.2721 78.3862C45.5686 76.6125 45.3455 76.0801 45.9621 75.2611C46.2143 74.9261 46.5318 74.8713 48.7144 74.7876C51.132 74.6948 51.1906 74.6823 51.6376 74.1615C52.0649 73.6635 52.0936 73.4866 52.0936 71.3533C52.0936 69.0894 52.0904 69.0735 51.5409 68.5229C50.9913 67.9723 50.9758 67.9693 48.7121 67.9693C46.6141 67.9693 46.4057 67.9369 46.0504 67.5547C45.3058 66.7541 45.5206 66.1944 47.2721 64.3707C48.7095 62.8741 48.8793 62.6218 48.8793 61.983C48.8793 61.3371 48.7195 61.1087 47.2133 59.6C44.9883 57.3712 44.8927 57.37 42.6396 59.5411C41.2095 60.919 40.876 61.151 40.3245 61.151C39.8954 61.151 39.5428 61.0046 39.269 60.7127C38.8956 60.3144 38.8579 60.0725 38.8579 58.0716C38.8579 56.017 38.8273 55.8332 38.4021 55.3376C37.9566 54.8183 37.8948 54.8048 35.7077 54.7486C33.8344 54.7003 33.392 54.744 32.9964 55.0171ZM34.6982 63.0035C32.103 63.2321 29.6784 64.9916 28.4723 67.5212C26.7305 71.1743 28.4331 75.8034 32.2051 77.6699C34.2629 78.6883 37.2566 78.6118 39.2125 77.4909C41.9375 75.9289 43.3375 73.3376 43.1703 70.1646C42.941 65.8085 39.1574 62.6103 34.6982 63.0035ZM33.7527 66.1335C32.8274 66.4257 31.1898 68.1081 30.9345 69.029C30.5624 70.372 30.6756 71.7764 31.2474 72.9058C32.1705 74.7289 33.9348 75.6814 36.0384 75.4924C37.2865 75.3801 38.0439 75.0223 38.9462 74.1185C39.8886 73.1743 40.2265 72.4092 40.3228 71.0012C40.5185 68.1337 38.4121 65.8596 35.6025 65.9052C34.9491 65.9158 34.1167 66.0187 33.7527 66.1335Z" fill="#F8FAFC"/>
<path fill-rule="evenodd" clip-rule="evenodd" d="M15.9313 72.405C15.9767 72.5353 16.0325 73.0168 16.0556 73.4751C16.1563 75.486 17.5814 77.1165 19.6239 77.558C20.3231 77.7093 20.357 77.7839 19.9368 78.2489C19.5197 78.7105 19.1221 79.8948 19.1122 80.7048C19.0945 82.1571 19.6292 83.1157 21.5459 85.0684C23.6116 87.1724 24.5115 87.6906 26.0999 87.6906C27.1213 87.6906 28.5616 87.2057 28.8295 86.7716C29.0781 86.3686 29.2655 86.5695 29.3701 87.3516C29.5633 88.7946 30.9584 90.2956 32.5064 90.7263C33.3561 90.9626 37.2792 90.97 38.2817 90.7372C39.4606 90.4634 40.5013 89.6211 41.0846 88.4686C41.3705 87.9038 41.6046 87.2483 41.6046 87.0122V86.5828L42.6638 87.1408C43.884 87.7838 45.3272 87.887 46.4611 87.4124C47.454 86.9968 50.8325 83.6278 51.302 82.5852C51.9691 81.1035 51.728 79.1421 50.7399 78.011C50.4927 77.7282 50.5406 77.6858 51.24 77.5675C53.1976 77.2362 54.8403 75.238 54.8403 73.1884V72.1683L54.8824 69.3273L54.7645 68.698C54.4665 67.1072 52.8563 65.5517 51.1918 65.2466C50.5476 65.1286 50.5016 65.0835 50.7435 64.8064C51.7378 63.6677 51.991 61.5054 51.291 60.133C50.731 59.0352 47.1504 55.6138 46.2505 55.3162C45.1419 54.9499 43.3545 55.1571 42.3961 55.763L41.6046 56.2636L41.6027 55.8352C41.5991 54.996 40.7133 53.4596 39.8875 52.8605C38.7234 52.0156 37.8935 51.859 34.997 51.9376C32.8182 51.9968 32.3181 52.0686 31.6599 52.4173C30.6263 52.9649 29.7585 53.9887 29.4903 54.9772C29.2428 55.8897 29.1732 56.1941 29.0623 56.21C28.9978 56.2192 28.9192 56.1308 28.7836 56.0077C27.6474 54.978 25.4005 54.8215 23.9255 55.6697C22.8698 56.2767 20.0752 59.0913 19.553 60.0735C19.0154 61.0842 19.0805 62.9575 19.694 64.1435L20.1896 65.1015L19.2673 65.3382C17.9492 65.6767 16.7177 66.847 16.2658 68.1909L15.9156 69.2326L15.9313 72.405ZM32.4935 55.4535C32.5455 55.4107 32.8007 55.2289 33.0607 55.0494C33.4563 54.7763 33.8987 54.7325 35.7719 54.7808C37.959 54.8371 38.0209 54.8505 38.4663 55.3698C38.8916 55.8655 38.9222 56.0492 38.9222 58.1038C38.9222 60.1048 38.9599 60.3466 39.3333 60.7449C39.6071 61.0368 39.9597 61.1832 40.3887 61.1832C40.9403 61.1832 41.2738 60.9512 42.7039 59.5733C44.9569 57.4023 45.0526 57.4034 47.2775 59.6322C48.7838 61.141 48.9435 61.3694 48.9435 62.0152C48.9435 62.6541 48.7737 62.9064 47.3363 64.403C45.5849 66.2267 45.3701 66.7864 46.1147 67.5869C46.47 67.9691 46.6783 68.0015 48.7764 68.0015C51.0401 68.0015 51.0556 68.0046 51.6052 68.5551C52.1547 69.1057 52.1579 69.1216 52.1579 71.3855C52.1579 73.5189 52.1292 73.6958 51.7019 74.1937C51.2549 74.7146 51.1962 74.7271 48.7787 74.8199C46.5961 74.9036 46.2786 74.9583 46.0264 75.2934C45.4098 76.1123 45.6329 76.6447 47.3363 78.4184C48.7737 79.915 48.9435 80.1673 48.9435 80.8062C48.9435 81.452 48.7838 81.6804 47.2775 83.1892C45.0456 85.4248 44.9367 85.4261 42.7144 83.2481C41.2606 81.823 40.9929 81.6382 40.3827 81.6382C39.917 81.6382 39.5681 81.7727 39.3078 82.0528C38.9651 82.4212 38.9222 82.7149 38.9222 84.6937C38.9222 86.7739 38.8924 86.9551 38.4662 87.4516C38.0343 87.9546 37.9127 87.9866 36.1845 88.0491C34.1596 88.1224 33.3059 88.0146 32.7627 87.6177C32.4456 87.3858 32.3868 87.036 32.3044 84.8932C32.1957 82.0653 32.0011 81.6382 30.822 81.6382C30.2392 81.6382 29.946 81.8425 28.5122 83.2481C26.2941 85.4224 26.2029 85.4208 23.9196 83.1704C22.3888 81.6615 22.2074 81.4103 22.2074 80.7976C22.2074 80.1931 22.3895 79.9291 23.7534 78.5552C25.5171 76.7788 25.775 76.1714 25.1204 75.3377C24.7194 74.8272 24.6831 74.8199 22.5406 74.8199C19.2241 74.8199 19.0831 74.6837 19.0747 71.4736C19.0713 70.2059 19.1216 69.0309 19.1861 68.8623C19.4313 68.2224 20.2924 68.0015 22.5436 68.0015C24.6628 68.0015 24.7228 67.9898 25.1055 67.5025C25.8013 66.6165 25.6387 66.2201 23.7957 64.3083L23.7618 64.2731C22.6724 63.1431 22.1261 62.5766 22.1303 62.0141C22.1345 61.4485 22.6951 60.887 23.8194 59.761L23.854 59.7264C26.1923 57.3839 26.2757 57.3812 28.5122 59.5733C29.946 60.9789 30.2392 61.1832 30.822 61.1832C31.9979 61.1832 32.1957 60.7531 32.3044 57.9589C32.3564 56.6238 32.4415 55.4963 32.4935 55.4535ZM28.5366 67.5534C29.7427 65.0238 32.1673 63.2643 34.7624 63.0357C39.2217 62.6425 43.0052 65.8407 43.2346 70.1968C43.4018 73.3698 42.0018 75.9612 39.2768 77.5231C37.3209 78.644 34.3272 78.7205 32.2694 77.7021C28.4974 75.8356 26.7947 71.2065 28.5366 67.5534ZM30.9988 69.0612C31.254 68.1404 32.8917 66.4579 33.817 66.1657C34.181 66.0509 35.0133 65.9481 35.6668 65.9375C38.4764 65.8918 40.5827 68.1659 40.387 71.0334C40.2908 72.4414 39.9529 73.2066 39.0105 74.1507C38.1082 75.0545 37.3508 75.4123 36.1026 75.5246C33.9991 75.7136 32.2348 74.7611 31.3117 72.938C30.7399 71.8086 30.6267 70.4042 30.9988 69.0612Z" fill="#17FFA6"/>
</svg>
