<svg width="90" height="90" viewBox="0 0 90 90" fill="none" xmlns="http://www.w3.org/2000/svg">
<g clip-path="url(#clip0_0_186)">
<path d="M44.717 0.244141L47.1189 4.75539C47.6589 5.58789 48.2439 6.32477 48.9329 7.01102C50.9439 9.02195 52.8535 11.1285 54.5692 13.3841C58.6389 18.7279 61.3839 24.6623 63.3442 31.0804C64.5198 35.001 65.1582 39.0229 65.206 43.0898C65.4029 55.2482 61.2348 65.6882 52.831 74.3648C51.4585 75.7373 49.9904 77.0085 48.4154 78.1391C47.5829 78.1391 47.1892 77.5007 46.846 76.9129C46.2076 75.8357 45.8167 74.6066 45.6198 73.3832C45.3245 71.9123 45.1304 70.4413 45.226 68.9226V68.2363C45.1585 68.0901 44.4245 0.590078 44.717 0.244141Z" fill="#599636"/>
<path d="M44.7215 0.0948054C44.623 -0.10207 44.5246 0.0469928 44.4262 0.142618C44.474 1.12699 44.1308 2.00449 43.5937 2.84262C43.003 3.67512 42.2212 4.31356 41.4365 4.99981C37.0771 8.77418 33.6458 13.3332 30.898 18.4323C27.2418 25.2948 25.3574 32.6495 24.823 40.3923C24.5783 43.1851 25.7062 53.0401 26.5865 55.8836C28.9883 63.4323 33.3027 69.7576 38.8912 75.2476C40.2637 76.5695 41.7318 77.7957 43.2505 78.9742C43.6921 78.9742 43.7399 78.5804 43.8412 78.2879C44.0347 77.662 44.1823 77.0228 44.2827 76.3754L45.2671 69.0236L44.7215 0.0948054Z" fill="#6CAC48"/>
<path d="M47.1209 81.1259C47.2193 80.0009 47.7593 79.0672 48.3471 78.1363C47.7565 77.8916 47.3177 77.405 46.9746 76.8622C46.6793 76.3728 46.4346 75.785 46.2434 75.245C45.5571 73.1863 45.4109 71.0263 45.214 68.9225V67.6484C44.9693 67.8453 44.9187 69.5103 44.9187 69.7578C44.7756 71.9813 44.4805 74.1924 44.0355 76.3756C43.8893 77.2588 43.7909 78.1391 43.248 78.9238C43.248 79.0222 43.248 79.1206 43.2959 79.2669C44.179 81.8656 44.4209 84.5122 44.5699 87.2094V88.1938C44.5699 89.3694 44.5221 89.1219 45.498 89.5156C45.8918 89.6619 46.3305 89.7125 46.7243 90.005C47.0196 90.005 47.0674 89.7603 47.0674 89.5634L46.9212 87.9463V83.435C46.8734 82.6475 47.0196 81.8656 47.118 81.1288L47.1209 81.1259Z" fill="#C2BFBF"/>
</g>
<defs>
<clipPath id="clip0_0_186">
<rect width="90" height="90" fill="white"/>
</clipPath>
</defs>
</svg>
