<svg width="90" height="90" viewBox="0 0 90 90" fill="none" xmlns="http://www.w3.org/2000/svg">
<g clip-path="url(#clip0_0_1037)">
<path d="M30.2124 12.7818C30.463 13.0579 30.5937 13.4223 30.5757 13.7948C30.5577 14.1673 30.3924 14.5174 30.1162 14.7681L27.7685 16.8986V25.1297C27.7685 25.5026 27.6204 25.8603 27.3566 26.1241C27.0929 26.3878 26.7352 26.5359 26.3623 26.5359H10.0322C9.65923 26.5359 9.30154 26.3878 9.03782 26.1241C8.7741 25.8603 8.62594 25.5026 8.62594 25.1297V10.0317C8.62594 9.6587 8.7741 9.30101 9.03782 9.03729C9.30154 8.77357 9.65923 8.62541 10.0322 8.62541H26.3623C26.7352 8.62541 27.0929 8.77357 27.3566 9.03729C27.6204 9.30101 27.7685 9.6587 27.7685 10.0317C27.7685 10.4046 27.6204 10.7623 27.3566 11.026C27.0929 11.2898 26.7352 11.4379 26.3623 11.4379H11.4384V23.7236H24.956V19.4513L22.3427 21.8229C22.0752 22.0656 21.7246 22.1961 21.3636 22.1873C21.0025 22.1785 20.6587 22.0312 20.4033 21.7758L17.2027 18.5753C17.0708 18.445 16.9659 18.29 16.8942 18.119C16.8225 17.9481 16.7853 17.7646 16.7847 17.5792C16.7841 17.3938 16.8202 17.2102 16.8909 17.0388C16.9616 16.8674 17.0654 16.7117 17.1965 16.5806C17.3276 16.4495 17.4833 16.3456 17.6547 16.2749C17.8261 16.2042 18.0097 16.1681 18.1951 16.1687C18.3805 16.1692 18.564 16.2064 18.7349 16.2781C18.9059 16.3499 19.061 16.4547 19.1913 16.5865L21.4453 18.8399L28.2268 12.6856C28.5029 12.4352 28.8672 12.3046 29.2395 12.3227C29.6118 12.3407 29.9618 12.5058 30.2124 12.7818ZM28.2261 40.1048L21.4453 46.2591L19.192 44.0058C19.0617 43.8739 18.9066 43.7691 18.7356 43.6974C18.5647 43.6257 18.3812 43.5884 18.1958 43.5879C18.0104 43.5873 17.8268 43.6235 17.6554 43.6941C17.484 43.7648 17.3283 43.8687 17.1972 43.9998C17.0661 44.1309 16.9623 44.2866 16.8916 44.458C16.8209 44.6294 16.7848 44.8131 16.7854 44.9985C16.786 45.1839 16.8232 45.3673 16.8949 45.5383C16.9666 45.7092 17.0715 45.8643 17.2034 45.9946L20.404 49.1952C20.6594 49.4506 21.0032 49.5979 21.3643 49.6066C21.7254 49.6154 22.0759 49.4848 22.3434 49.2421L24.9567 46.8705V51.142H11.4391V38.8572H26.363C26.7359 38.8572 27.0936 38.709 27.3573 38.4453C27.6211 38.1815 27.7692 37.8239 27.7692 37.4509C27.7692 37.0779 27.6211 36.7203 27.3573 36.4565C27.0936 36.1928 26.7359 36.0447 26.363 36.0447H10.0329C9.65993 36.0447 9.30225 36.1928 9.03852 36.4565C8.7748 36.7203 8.62664 37.0779 8.62664 37.4509V52.5489C8.62664 52.9219 8.7748 53.2796 9.03852 53.5433C9.30225 53.807 9.65993 53.9552 10.0329 53.9552H26.363C26.7359 53.9552 27.0936 53.807 27.3573 53.5433C27.6211 53.2796 27.7692 52.9219 27.7692 52.5489V44.3181L30.1162 42.1875C30.3924 41.9368 30.5577 41.5867 30.5758 41.2142C30.5938 40.8417 30.4631 40.4773 30.2125 40.2011C29.9618 39.9249 29.6117 39.7596 29.2392 39.7416C28.8667 39.7235 28.5023 39.8542 28.2261 40.1048ZM28.2261 67.5243L21.4453 73.6784L19.192 71.425C18.9282 71.1613 18.5705 71.0132 18.1975 71.0132C17.8246 71.0132 17.4669 71.1614 17.2032 71.4252C16.9395 71.6889 16.7913 72.0467 16.7914 72.4196C16.7914 72.7926 16.9396 73.1503 17.2034 73.414L20.404 76.6146C20.6594 76.87 21.0033 77.0172 21.3643 77.0259C21.7254 77.0347 22.076 76.9041 22.3434 76.6614L24.9567 74.2897V78.5621H11.4391V66.2764H26.363C26.7359 66.2764 27.0936 66.1282 27.3573 65.8645C27.6211 65.6008 27.7692 65.2431 27.7692 64.8701C27.7692 64.4972 27.6211 64.1395 27.3573 63.8758C27.0936 63.612 26.7359 63.4639 26.363 63.4639H10.0329C9.65993 63.4639 9.30225 63.612 9.03852 63.8758C8.7748 64.1395 8.62664 64.4972 8.62664 64.8701V79.9683C8.62664 80.3413 8.7748 80.699 9.03852 80.9627C9.30225 81.2264 9.65993 81.3746 10.0329 81.3746H26.363C26.7359 81.3746 27.0936 81.2264 27.3573 80.9627C27.6211 80.699 27.7692 80.3413 27.7692 79.9683V71.7374L30.117 69.6067C30.3892 69.3551 30.551 69.0061 30.5672 68.6357C30.5834 68.2654 30.4527 67.9036 30.2036 67.629C29.9544 67.3545 29.607 67.1895 29.2367 67.1699C28.8665 67.1503 28.5029 67.2776 28.2261 67.5243ZM35.5043 11.4379H53.7731C54.146 11.4379 54.5037 11.2898 54.7674 11.026C55.0312 10.7623 55.1793 10.4046 55.1793 10.0317C55.1793 9.6587 55.0312 9.30101 54.7674 9.03729C54.5037 8.77357 54.146 8.62541 53.7731 8.62541H35.5043C35.1313 8.62541 34.7737 8.77357 34.5099 9.03729C34.2462 9.30101 34.098 9.6587 34.098 10.0317C34.098 10.4046 34.2462 10.7623 34.5099 11.026C34.7737 11.2898 35.1313 11.4379 35.5043 11.4379ZM35.5043 18.987H53.7731C54.146 18.987 54.5037 18.8389 54.7674 18.5751C55.0312 18.3114 55.1793 17.9537 55.1793 17.5808C55.1793 17.2078 55.0312 16.8501 54.7674 16.5864C54.5037 16.3227 54.146 16.1745 53.7731 16.1745H35.5043C35.1313 16.1745 34.7737 16.3227 34.5099 16.5864C34.2462 16.8501 34.098 17.2078 34.098 17.5808C34.098 17.9537 34.2462 18.3114 34.5099 18.5751C34.7737 18.8389 35.1313 18.987 35.5043 18.987ZM35.5043 38.8573H53.7731C54.146 38.8573 54.5037 38.7092 54.7674 38.4454C55.0312 38.1817 55.1793 37.824 55.1793 37.4511C55.1793 37.0781 55.0312 36.7204 54.7674 36.4567C54.5037 36.193 54.146 36.0448 53.7731 36.0448H35.5043C35.1313 36.0448 34.7737 36.193 34.5099 36.4567C34.2462 36.7204 34.098 37.0781 34.098 37.4511C34.098 37.824 34.2462 38.1817 34.5099 38.4454C34.7737 38.7092 35.1313 38.8573 35.5043 38.8573ZM35.5043 46.4062H53.7731C54.146 46.4062 54.5037 46.2581 54.7674 45.9944C55.0312 45.7306 55.1793 45.373 55.1793 45C55.1793 44.627 55.0312 44.2694 54.7674 44.0056C54.5037 43.7419 54.146 43.5938 53.7731 43.5938H35.5043C35.1313 43.5938 34.7737 43.7419 34.5099 44.0056C34.2462 44.2694 34.098 44.627 34.098 45C34.098 45.373 34.2462 45.7306 34.5099 45.9944C34.7737 46.2581 35.1313 46.4062 35.5043 46.4062ZM43.7537 63.4639H35.5043C35.1313 63.4639 34.7737 63.612 34.5099 63.8758C34.2462 64.1395 34.098 64.4972 34.098 64.8701C34.098 65.2431 34.2462 65.6008 34.5099 65.8645C34.7737 66.1282 35.1313 66.2764 35.5043 66.2764H43.7537C44.1267 66.2764 44.4844 66.1282 44.7481 65.8645C45.0118 65.6008 45.16 65.2431 45.16 64.8701C45.16 64.4972 45.0118 64.1395 44.7481 63.8758C44.4844 63.612 44.1267 63.4639 43.7537 63.4639ZM43.7537 71.0128H35.5043C35.1313 71.0128 34.7737 71.161 34.5099 71.4247C34.2462 71.6884 34.098 72.0461 34.098 72.4191C34.098 72.792 34.2462 73.1497 34.5099 73.4134C34.7737 73.6772 35.1313 73.8253 35.5043 73.8253H43.7537C44.1267 73.8253 44.4844 73.6772 44.7481 73.4134C45.0118 73.1497 45.16 72.792 45.16 72.4191C45.16 72.0461 45.0118 71.6884 44.7481 71.4247C44.4844 71.161 44.1267 71.0128 43.7537 71.0128ZM90 58.3418V78.5097C90 78.7565 89.935 78.999 89.8116 79.2128C89.6882 79.4266 89.5106 79.6041 89.2969 79.7275L71.8307 89.8116C71.6169 89.935 71.3744 90 71.1276 90C70.8807 90 70.6382 89.935 70.4245 89.8116L63.8049 85.9895V88.5938C63.8049 88.9667 63.6567 89.3244 63.393 89.5881C63.1293 89.8518 62.7716 90 62.3987 90H1.40625C1.03329 90 0.675604 89.8518 0.411881 89.5881C0.148158 89.3244 0 88.9667 0 88.5938V1.40625C0 1.03329 0.148158 0.675604 0.411881 0.411881C0.675604 0.148158 1.03329 0 1.40625 0L62.3987 0C62.7716 0 63.1293 0.148158 63.393 0.411881C63.6567 0.675604 63.8049 1.03329 63.8049 1.40625V50.8618L70.4245 47.0391C70.6382 46.9156 70.8807 46.8507 71.1276 46.8507C71.3744 46.8507 71.6169 46.9156 71.8307 47.0391L89.2969 57.124C89.5106 57.2474 89.6882 57.4249 89.8116 57.6387C89.935 57.8525 90 58.095 90 58.3418ZM56.4741 58.3418L71.1276 66.8018L85.7812 58.3418L71.1276 49.8814L56.4741 58.3418ZM55.0679 77.6978L69.7213 86.1581V69.2374L55.0679 60.7772V77.6978ZM60.9917 84.3659L52.9585 79.7275C52.7447 79.6041 52.5672 79.4266 52.4438 79.2128C52.3204 78.999 52.2554 78.7565 52.2554 78.5097V58.3418C52.2554 58.095 52.3204 57.8525 52.4438 57.6388C52.5672 57.4251 52.7447 57.2476 52.9585 57.1242L60.9917 52.4856V2.8125H2.8125V87.1875H60.9924L60.9917 84.3659ZM87.1875 77.6978V60.7772L72.5338 69.2374V86.1581L87.1875 77.6978Z" fill="#F8FAFC"/>
<path d="M19.1703 44.0012L21.4236 46.2546L28.2044 40.1003C28.4805 39.8496 28.845 39.719 29.2175 39.737C29.59 39.755 29.9401 39.9203 30.1908 40.1965C30.4414 40.4727 30.5721 40.8371 30.5541 41.2097C30.536 41.5822 30.3707 41.9323 30.0945 42.1829L22.3217 49.2376C22.0542 49.4803 21.7036 49.6108 21.3426 49.6021C20.9815 49.5933 20.6377 49.446 20.3823 49.1906L17.1817 45.99C17.0498 45.8597 16.9449 45.7046 16.8732 45.5337C16.8015 45.3627 16.7642 45.1793 16.7637 44.9939C16.7631 44.8085 16.7992 44.6248 16.8699 44.4535C16.9406 44.2821 17.0444 44.1263 17.1755 43.9953C17.3066 43.8642 17.4623 43.7603 17.6337 43.6896C17.8051 43.6189 17.9887 43.5828 18.1741 43.5833C18.3595 43.5839 18.543 43.6211 18.7139 43.6928C18.8849 43.7645 19.04 43.8693 19.1703 44.0012Z" fill="#17FFA6"/>
<path d="M19.1703 16.5725L21.4236 18.8258L28.2044 12.6716C28.4805 12.4209 28.845 12.2902 29.2175 12.3083C29.59 12.3263 29.9401 12.4916 30.1908 12.7678C30.4414 13.044 30.5721 13.4084 30.5541 13.7809C30.536 14.1535 30.3707 14.5036 30.0945 14.7542L22.3217 21.8089C22.0542 22.0516 21.7036 22.1821 21.3426 22.1733C20.9815 22.1646 20.6377 22.0173 20.3823 21.7619L17.1817 18.5613C17.0498 18.431 16.9449 18.2759 16.8732 18.105C16.8015 17.934 16.7642 17.7506 16.7637 17.5652C16.7631 17.3798 16.7992 17.1961 16.8699 17.0247C16.9406 16.8534 17.0444 16.6976 17.1755 16.5665C17.3066 16.4354 17.4623 16.3316 17.6337 16.2609C17.8051 16.1902 17.9887 16.1541 18.1741 16.1546C18.3595 16.1552 18.543 16.1924 18.7139 16.2641C18.8849 16.3358 19.04 16.4406 19.1703 16.5725Z" fill="#17FFA6"/>
<path d="M19.1703 71.469L21.4236 73.7223L28.2044 67.5681C28.4805 67.3174 28.845 67.1867 29.2175 67.2048C29.59 67.2228 29.9401 67.3881 30.1908 67.6643C30.4414 67.9405 30.5721 68.3049 30.5541 68.6774C30.536 69.05 30.3707 69.4001 30.0945 69.6507L22.3217 76.7053C22.0542 76.9481 21.7036 77.0786 21.3426 77.0698C20.9815 77.0611 20.6377 76.9138 20.3823 76.6584L17.1817 73.4578C17.0498 73.3275 16.9449 73.1724 16.8732 73.0015C16.8015 72.8305 16.7642 72.6471 16.7637 72.4617C16.7631 72.2763 16.7992 72.0926 16.8699 71.9212C16.9406 71.7498 17.0444 71.5941 17.1755 71.463C17.3066 71.3319 17.4623 71.228 17.6337 71.1574C17.8051 71.0867 17.9887 71.0505 18.1741 71.0511C18.3595 71.0517 18.543 71.0889 18.7139 71.1606C18.8849 71.2323 19.04 71.3371 19.1703 71.469Z" fill="#17FFA6"/>
</g>
<defs>
<clipPath id="clip0_0_1037">
<rect width="90" height="90" fill="white"/>
</clipPath>
</defs>
</svg>
