<svg width="90" height="90" viewBox="0 0 90 90" fill="none" xmlns="http://www.w3.org/2000/svg">
<g clip-path="url(#clip0_0_4831)">
<path d="M32.6895 69.5811C32.6895 69.5811 29.2301 71.6849 35.0941 72.2868C42.1535 73.1868 45.9138 73.0377 53.727 71.5358C55.2972 72.4975 56.958 73.3029 58.6854 73.9405C41.1073 81.4555 18.8632 73.4905 32.6895 69.5811ZM30.4395 59.8133C30.4395 59.8133 26.682 62.668 32.5432 63.2727C40.2073 64.0236 46.2176 64.1727 56.5901 62.0718C57.5989 63.0948 58.8339 63.8665 60.1957 64.3246C39.0063 70.6358 15.2632 64.9236 30.4395 59.8133ZM71.9154 76.9415C71.9154 76.9415 74.4691 79.0452 69.0607 80.699C58.992 83.7083 26.8338 84.6083 17.817 80.699C14.6613 79.349 20.6716 77.3943 22.5982 77.0933C24.5529 76.6433 25.6076 76.6433 25.6076 76.6433C22.1482 74.2386 2.61539 81.6018 15.6907 83.7027C51.6063 89.564 81.2107 81.149 71.8929 76.9415H71.9154ZM34.3151 49.5927C34.3151 49.5927 17.9351 53.5021 28.4538 54.8521C32.9623 55.454 41.8273 55.3021 50.0932 54.703C56.8545 54.1011 63.6213 52.903 63.6213 52.903C63.6213 52.903 61.2166 53.9549 59.5629 55.0068C42.8848 59.3661 10.8729 57.4115 20.0416 52.903C27.8548 49.1455 34.3179 49.5983 34.3179 49.5983L34.3151 49.5927ZM63.6213 65.9727C80.4513 57.254 72.6382 48.8446 67.227 49.8936C65.877 50.1946 65.2723 50.4955 65.2723 50.4955C65.2723 50.4955 65.7223 49.5955 66.7741 49.2946C77.4448 45.5371 85.8598 60.5643 63.3148 66.4227C63.3148 66.4227 63.4638 66.2736 63.6157 65.9727H63.6213ZM35.9745 89.7158C52.2026 90.7677 77.0004 89.114 77.5995 81.4471C77.5995 81.4471 76.3985 84.4565 64.226 86.7065C50.3998 89.2602 33.2688 88.9565 23.2001 87.3083C23.2001 87.3083 25.3038 89.1111 35.9745 89.7158Z" fill="#4E7896"/>
<path d="M53.4297 0.00195312C53.4297 0.00195312 62.7475 9.46883 44.5647 23.7451C29.9875 35.3157 41.26 41.9279 44.5647 49.4429C35.9978 41.7788 29.8385 35.0148 34.046 28.7063C40.2053 19.3857 57.1872 14.9054 53.4297 0.00195312ZM48.6485 43.1316C53.0078 48.0901 47.4475 52.5985 47.4475 52.5985C47.4475 52.5985 58.5682 46.8891 53.4578 39.8241C48.8003 33.0629 45.1891 29.7554 64.7275 18.4857C64.7275 18.4857 33.9222 26.1498 48.6485 43.1316Z" fill="#F58219"/>
</g>
<defs>
<clipPath id="clip0_0_4831">
<rect width="90" height="90" fill="white"/>
</clipPath>
</defs>
</svg>
