<svg width="90" height="90" viewBox="0 0 90 90" fill="none" xmlns="http://www.w3.org/2000/svg">
<path d="M86.4681 65.9112C81.6653 68.4164 56.7873 78.6449 51.4905 81.4054C46.1938 84.1659 43.252 84.1396 39.0671 82.1402C34.8821 80.1408 8.40798 69.4471 3.63614 67.1662C1.25022 66.0257 0 65.0666 0 64.1599V55.0624C0 55.0624 34.4694 47.5587 40.0357 45.5617C45.6021 43.5647 47.5275 43.4931 52.266 45.2277C57.0044 46.9622 85.3181 52.0705 89.9969 53.786V62.757C89.9969 63.6565 88.9184 64.6658 86.4729 65.916L86.4681 65.9112Z" fill="#A41E11"/>
<path d="M86.4704 56.8111C81.6675 59.3163 56.7895 69.5448 51.4928 72.3053C46.1961 75.0658 43.2542 75.0396 39.0693 73.0401C34.8844 71.0407 8.41025 60.3471 3.63841 58.0661C-1.13343 55.7852 -1.22887 54.2176 3.45469 52.3829L40.0356 38.22C45.5996 36.2254 47.5274 36.1514 52.2658 37.886C57.0043 39.6206 81.7319 49.4625 86.4083 51.2042C91.0847 52.9459 91.2685 54.3298 86.4656 56.835L86.4704 56.8111Z" fill="#D82C20"/>
<path d="M86.4681 51.0753C81.6653 53.5805 56.7873 63.8089 51.4905 66.5694C46.1938 69.3299 43.252 69.3037 39.0671 67.3043C34.8821 65.3049 8.40798 54.6112 3.63614 52.3303C1.25022 51.1898 0 50.2307 0 49.324V40.2265C0 40.2265 34.4694 32.7228 40.0357 30.7258C45.6021 28.7288 47.5275 28.6572 52.266 30.3917C57.0044 32.1263 85.3181 37.2346 89.9969 38.95V47.9211C89.9969 48.8206 88.9184 49.8298 86.4729 51.08L86.4681 51.0753Z" fill="#A41E11"/>
<path d="M86.4704 41.9775C81.6675 44.4828 56.7895 54.7112 51.4928 57.4717C46.1961 60.2322 43.2542 60.206 39.0693 58.2066C34.8844 56.2072 8.41025 45.5135 3.63841 43.2325C-1.13343 40.9516 -1.22887 39.3841 3.45469 37.5493L40.0356 23.3889C45.5996 21.3918 47.5274 21.3203 52.2658 23.0548C57.0043 24.7894 81.7319 34.6337 86.4131 36.3444C91.0943 38.0551 91.2732 39.4699 86.4704 41.9752V41.9775Z" fill="#D82C20"/>
<path d="M86.4681 35.6909C81.6653 38.1962 56.7873 48.4246 51.4905 51.1875C46.1938 53.9504 43.252 53.9218 39.0671 51.9224C34.8821 49.923 8.40798 39.2293 3.63614 36.9483C1.25022 35.8079 0 34.8487 0 33.9421V24.8398C0 24.8398 34.4694 17.3361 40.0357 15.339C45.6021 13.342 47.5275 13.2705 52.266 15.005C57.0044 16.7396 85.3181 21.8478 89.9969 23.5633V32.5344C89.9969 33.4339 88.9184 34.4431 86.4729 35.6933L86.4681 35.6909Z" fill="#A41E11"/>
<path d="M86.4704 26.5908C81.6675 29.096 56.7895 39.3245 51.4928 42.085C46.1961 44.8455 43.2542 44.8193 39.0693 42.8199C34.8844 40.8205 8.41025 30.1268 3.63841 27.8458C-1.13343 25.5649 -1.22887 23.9973 3.45469 22.1626L40.0356 8.00213C45.5996 6.00512 47.5274 5.93354 52.2658 7.6681C57.0043 9.40267 81.7319 19.247 86.4131 20.9577C91.0943 22.6684 91.2732 24.0832 86.4704 26.5884V26.5908Z" fill="#D82C20"/>
<path d="M47.2464 22.84L44.4262 18.1517L35.4217 17.3405L42.1405 14.9164L40.1244 11.1943L46.4137 13.6518L52.3451 11.7097L50.7417 15.5558L56.7877 17.8224L48.9905 18.6336L47.2464 22.84ZM32.2246 32.1737L53.0776 28.9718L46.7787 38.2101L32.2246 32.1737Z" fill="white"/>
<path d="M26.6021 28.8068C32.7584 28.8068 37.7491 26.8723 37.7491 24.4859C37.7491 22.0996 32.7584 20.165 26.6021 20.165C20.4458 20.165 15.4551 22.0996 15.4551 24.4859C15.4551 26.8723 20.4458 28.8068 26.6021 28.8068Z" fill="white"/>
<path d="M78.3447 23.8567L66.0095 28.7288L66 18.9775L78.3447 23.8567Z" fill="#7A0C00"/>
<path d="M66.0173 28.7284L64.6811 29.2533L52.3555 24.3812L66.0101 18.9795L66.0173 28.7284Z" fill="#AD2115"/>
</svg>
