<svg width="32" height="11" viewBox="0 0 32 11" fill="none" xmlns="http://www.w3.org/2000/svg">
<path fill-rule="evenodd" clip-rule="evenodd" d="M8.00032 10.4312H5.23093L3.15422 2.27546C3.05565 1.90029 2.84636 1.56862 2.5385 1.4123C1.7702 1.01947 0.923581 0.706829 0 0.549151V0.235153H4.46128C5.077 0.235153 5.53879 0.706829 5.61575 1.25463L6.69326 7.13766L9.46131 0.235153H12.1537L8.00032 10.4312ZM13.693 10.4312H11.0776L13.2313 0.235153H15.8467L13.693 10.4312ZM19.2305 3.05978C19.3074 2.51062 19.7692 2.19662 20.308 2.19662C21.1546 2.11778 22.0768 2.27546 22.8465 2.66694L23.3083 0.471676C22.5386 0.157678 21.692 0 20.9237 0C18.3852 0 16.5381 1.41231 16.5381 3.37242C16.5381 4.86356 17.8465 5.64652 18.77 6.11819C19.7692 6.58851 20.1541 6.90251 20.0771 7.37283C20.0771 8.0783 19.3074 8.3923 18.5391 8.3923C17.6156 8.3923 16.692 8.15714 15.8467 7.7643L15.3849 9.96093C16.3085 10.3524 17.3077 10.5101 18.2313 10.5101C21.0776 10.5876 22.8465 9.17661 22.8465 7.05883C22.8465 4.39189 19.2305 4.23557 19.2305 3.05978ZM32.0002 10.4314L29.9235 0.235359H27.6928C27.2311 0.235359 26.7693 0.549357 26.6153 1.01967L22.7698 10.4314H25.4622L25.9996 8.94165H29.3078L29.6156 10.4314H32.0002ZM28.0774 2.98095L28.8457 6.82368H26.692L28.0774 2.98095Z" fill="#172B85"/>
</svg>
