<svg width="90" height="90" viewBox="0 0 90 90" fill="none" xmlns="http://www.w3.org/2000/svg">
<path d="M41.6689 0.130608C61.5585 -1.24856 74.7464 8.48484 82.2869 20.3439C86.0679 26.29 89.7775 35.3209 89.7946 44.5998C89.8129 54.6816 86.5469 63.4123 82.2869 69.8182C77.9086 76.4025 72.2456 81.8407 65.1543 85.4115C53.3005 91.3805 36.7343 91.5438 25.8835 85.7965C13.7993 79.396 4.50814 70.2606 1.05069 54.4177C-0.332944 48.0776 -0.491983 39.8855 1.43569 32.8569C1.88805 31.2081 2.7101 29.4729 3.36081 27.8517C6.48787 20.061 11.8104 13.2864 18.376 8.60082C21.0143 6.71812 24.2148 4.84562 27.0387 3.59563C30.5522 2.04047 36.4679 0.491154 41.6689 0.130608Z" fill="white"/>
<path d="M79.4 45.7205C79.4 64.5187 64.1614 79.7566 45.3639 79.7566C26.5664 79.7566 11.3281 64.5187 11.3281 45.7205C11.3281 26.9227 26.5664 11.6836 45.3639 11.6836C64.1613 11.6836 79.4 26.9227 79.4 45.7205Z" fill="black"/>
<path d="M41.6689 0.130608C61.5585 -1.24856 74.7464 8.48484 82.2869 20.3439C86.0679 26.29 89.7775 35.3209 89.7946 44.5998C89.8129 54.6816 86.5469 63.4123 82.2869 69.8182C77.9086 76.4025 72.2456 81.8407 65.1543 85.4115C53.3005 91.3805 36.7343 91.5438 25.8835 85.7965C13.7993 79.396 4.50814 70.2606 1.05069 54.4177C-0.332944 48.0776 -0.491983 39.8855 1.43569 32.8569C1.88805 31.2081 2.7101 29.4729 3.36081 27.8517C6.48787 20.061 11.8104 13.2864 18.376 8.60082C21.0143 6.71812 24.2148 4.84562 27.0387 3.59563C30.5522 2.04047 36.4679 0.491154 41.6689 0.130608ZM34.9312 3.40328C27.5435 5.3187 22.1268 8.75026 17.4135 12.4512C10.617 17.7878 6.28427 25.235 3.7458 34.2044C0.921662 44.1833 2.73575 56.2588 6.6334 63.8505C10.6752 71.7234 16.1022 77.8347 23.7661 82.1388C31.2221 86.3261 41.7091 89.0148 52.6417 86.9515C62.355 85.1183 69.7322 80.8867 75.7421 74.6309C83.7828 66.2609 90.2453 50.8445 85.9448 34.5894C84.7952 30.245 83.2923 25.7171 80.9396 21.8839C79.6685 19.813 77.8032 17.7758 75.9345 15.7237C68.8819 7.97846 57.4832 1.30422 42.8239 2.24812C40.0341 2.42772 37.5823 2.7158 34.9312 3.40328Z" fill="black"/>
<path d="M47.418 86.5393L86.7483 47.209" stroke="white" stroke-width="0.353424"/>
<path d="M43.9883 83.4238L83.4901 43.9219" stroke="white" stroke-width="0.353424"/>
<path d="M40.5469 80.3106L80.2204 40.6367" stroke="white" stroke-width="0.353424"/>
<path d="M37.1016 77.197L76.9468 37.3516" stroke="white" stroke-width="0.353424"/>
<path d="M33.668 74.0816L73.6848 34.0645" stroke="white" stroke-width="0.353424"/>
<path d="M30.2305 70.9669L70.4188 30.7773" stroke="white" stroke-width="0.353424"/>
<path d="M26.7891 67.8507L67.1492 27.4902" stroke="white" stroke-width="0.353424"/>
<path d="M23.3516 64.7354L63.8832 24.2031" stroke="white" stroke-width="0.353424"/>
<path d="M19.918 61.6219L60.6205 20.918" stroke="white" stroke-width="0.353424"/>
<path d="M16.4805 58.5063L57.3554 17.6309" stroke="white" stroke-width="0.353424"/>
<path d="M13.0391 55.3929L54.0856 14.3457" stroke="white" stroke-width="0.353424"/>
<path d="M9.59375 52.2776L50.8121 11.0586" stroke="white" stroke-width="0.353424"/>
<path d="M6.16406 49.164L47.554 7.77344" stroke="white" stroke-width="0.353424"/>
<path d="M2.72266 46.0485L44.2843 4.48633" stroke="white" stroke-width="0.353424"/>
<path d="M2.71094 46.4473L42.8271 86.5662" stroke="white" stroke-width="0.353424"/>
<path d="M5.96875 43.1465L46.1629 83.3436" stroke="white" stroke-width="0.353424"/>
<path d="M9.21875 39.8477L49.491 80.1226" stroke="white" stroke-width="0.353424"/>
<path d="M12.4688 36.5469L52.8191 76.9" stroke="white" stroke-width="0.353424"/>
<path d="M15.7266 33.248L56.155 73.6791" stroke="white" stroke-width="0.353424"/>
<path d="M18.9805 29.9473L59.4872 70.4563" stroke="white" stroke-width="0.353424"/>
<path d="M22.2344 26.6484L62.8191 67.2355" stroke="white" stroke-width="0.353424"/>
<path d="M25.4844 23.3477L66.1473 64.0126" stroke="white" stroke-width="0.353424"/>
<path d="M28.7383 20.0469L69.4794 60.7898" stroke="white" stroke-width="0.353424"/>
<path d="M31.9883 16.748L72.8072 57.5687" stroke="white" stroke-width="0.353424"/>
<path d="M35.2422 13.4473L76.1393 54.3462" stroke="white" stroke-width="0.353424"/>
<path d="M38.4961 10.1484L79.4714 51.1253" stroke="white" stroke-width="0.353424"/>
<path d="M41.7461 6.84961L82.7994 47.9045" stroke="white" stroke-width="0.353424"/>
<path d="M45.0039 3.54883L86.1352 44.6816" stroke="white" stroke-width="0.353424"/>
<path d="M73.6263 15.9154C70.0865 12.3755 65.7346 9.18565 60.5361 7.25253C55.1477 5.24874 49.0523 3.55974 41.8633 4.17236C30.4116 5.14852 22.3711 10.2866 16.2603 16.3004C11.9801 20.5125 8.76043 25.674 6.63516 31.701C3.5147 40.5505 3.70404 50.9958 7.21265 59.9996C10.2054 67.6797 15.1038 73.8742 22.0354 78.6728C28.5516 83.1841 37.904 86.6829 48.4082 85.7957C61.2021 84.7151 70.5632 78.1511 76.7061 70.5876C78.2779 68.6527 79.8407 66.4656 80.7486 63.8499C81.6381 61.9653 82.0735 60.6841 82.4812 59.9997C84.1874 56.1764 85.0914 52.1424 85.3686 47.6793C86.2216 33.9519 80.94 23.2294 73.6263 15.9154ZM69.8558 57.7388C69.8313 57.791 69.8094 57.8396 69.7839 57.8935C69.1492 59.7097 68.0559 61.2284 66.9571 62.5722C62.6609 67.8242 56.115 72.3821 47.168 73.1326C39.822 73.7484 33.2818 71.3191 28.725 68.1865C24.7653 65.4643 21.7552 62.0947 19.6445 58.0452C19.5158 57.8015 18.29 54.9773 18.2864 54.8531C16.6142 49.6663 16.4692 41.3262 18.1854 36.3213C19.3308 32.981 21.2397 29.3668 23.768 26.5034C27.2587 22.5497 30.752 20.0163 36.2807 18.2256C38.8051 17.4078 41.0649 16.5756 44.1733 16.493C51.7531 16.2912 59.4717 19.6946 63.616 23.4233C67.4246 26.8497 71.7651 33.5243 72.8563 39.7863C73.9794 46.2316 72.7809 52.5244 69.8558 57.7388Z" fill="black"/>
<path d="M56.6787 63.9218C54.8122 63.9218 53.1743 62.7398 52.6026 60.9804L50.5237 54.646H40.1239L38.1924 60.9227C37.6093 62.7162 35.9589 63.9169 34.0829 63.9169C33.6325 63.9169 33.185 63.8456 32.7531 63.7055C30.5106 63.0322 29.2376 60.6185 29.9246 58.328L38.7026 30.5221C39.2726 28.7533 40.9506 27.5195 42.7836 27.5195H47.4513C49.2946 27.5195 50.9725 28.7323 51.5314 30.4689L60.763 58.2644C61.5011 60.5369 60.2788 62.9764 58.0397 63.7053C57.5969 63.849 57.1391 63.9218 56.6787 63.9218Z" fill="white" stroke="black" stroke-width="1.06027"/>
<path d="M22.2 18.6591L22.189 18.6443C21.0944 17.144 21.4156 15.0453 23.0277 13.8686C24.6399 12.6922 26.7108 13.0224 27.8055 14.5225L27.8164 14.5374C28.9111 16.0376 28.5899 18.1365 26.9777 19.313C25.3656 20.4895 23.2946 20.1594 22.2 18.6591ZM26.3495 15.6309L26.3386 15.616C25.7886 14.8622 24.7644 14.6029 23.9659 15.1857C23.1748 15.763 23.1132 16.7916 23.6633 17.5455L23.6742 17.5604C24.2244 18.3142 25.2484 18.5735 26.0396 17.9961C26.8382 17.4133 26.8997 16.3848 26.3495 15.6309Z" fill="white"/>
<path d="M32.7527 8.82472L34.3979 8.29688L39.0099 13.6584L37.1799 14.2455L36.3784 13.2898L34.0029 14.052L33.9158 15.2929L32.1211 15.8688L32.7527 8.82472ZM35.4594 12.1193L34.2114 10.5886L34.078 12.5625L35.4594 12.1193Z" fill="white"/>
<path d="M41.9688 10.4381L41.9832 6.80664L43.8034 6.81384L43.7892 10.4084C43.7854 11.3416 44.2549 11.7869 44.9757 11.7899C45.6964 11.7928 46.1694 11.3697 46.1728 10.4642L46.1874 6.8236L48.0076 6.8308L47.9934 10.416C47.9851 12.5043 46.7896 13.4144 44.9508 13.4071C43.1121 13.3996 41.9608 12.4617 41.9688 10.4381Z" fill="white"/>
<path d="M54.5861 9.80313L52.7305 9.23673L53.189 7.73438L58.6148 9.39037L58.1562 10.8927L56.3006 10.3265L54.8712 15.0101L53.1569 14.4869L54.5861 9.80313Z" fill="white"/>
<path d="M63.4622 11.4863L64.9545 12.4794L63.6135 14.4948L65.5288 15.7695L66.87 13.754L68.3623 14.7472L64.7789 20.1319L63.2865 19.1388L64.6483 17.0926L62.7328 15.8178L61.3712 17.8641L59.8789 16.871L63.4622 11.4863Z" fill="white"/>
<path d="M68.7406 70.3499L68.752 70.3644C69.9034 71.8218 69.6624 73.9316 68.0963 75.1689C66.5303 76.4061 64.4481 76.1552 63.2967 74.6979L63.2853 74.6833C62.1339 73.2258 62.375 71.1161 63.9409 69.8789C65.507 68.6418 67.5892 68.8925 68.7406 70.3499ZM64.7093 73.5348L64.7207 73.5493C65.2992 74.2817 66.3325 74.5016 67.1084 73.8887C67.8768 73.2815 67.8992 72.2513 67.3205 71.519L67.3091 71.5044C66.7307 70.7721 65.6973 70.5521 64.9288 71.1593C64.1529 71.7723 64.1307 72.8024 64.7093 73.5348Z" fill="white"/>
<path d="M58.624 80.5962L57.0036 81.1959L52.1602 76.0426L53.9625 75.3754L54.8055 76.2951L57.1451 75.4291L57.1774 74.1856L58.9451 73.5312L58.624 80.5962ZM55.775 77.424L57.0892 78.8982L57.1355 76.9204L55.775 77.424Z" fill="white"/>
<path d="M49.346 79.3679L49.5061 82.9958L47.6876 83.076L47.529 79.4851C47.4879 78.5528 46.9976 78.1306 46.2776 78.1624C45.5576 78.1942 45.1055 78.6396 45.1454 79.5442L45.306 83.1812L43.4875 83.2615L43.3294 79.6799C43.2372 77.5937 44.3877 76.6272 46.2246 76.5461C48.0617 76.465 49.2567 77.3463 49.346 79.3679Z" fill="white"/>
<path d="M36.7131 80.5533L38.5867 81.0591L38.1772 82.5757L32.6992 81.0971L33.1087 79.5803L34.9822 80.0861L36.2585 75.3574L37.9894 75.8246L36.7131 80.5533Z" fill="white"/>
<path d="M27.8573 79.2364L26.3196 78.3149L27.5642 76.2382L25.5907 75.0553L24.3462 77.132L22.8086 76.2104L26.134 70.6621L27.6716 71.5838L26.408 73.6922L28.3816 74.8751L29.6452 72.7667L31.1827 73.6884L27.8573 79.2364Z" fill="white"/>
</svg>
