<svg width="90" height="90" viewBox="0 0 90 90" fill="none" xmlns="http://www.w3.org/2000/svg">
<path d="M45.0049 2.64648C31.7696 2.64648 21.1814 13.2347 21.1814 26.47V37.0583C16.6814 37.0583 13.2402 40.4994 13.2402 44.9994V79.4112C13.2402 83.9112 16.6814 87.3524 21.1814 87.3524H68.8285C73.3285 87.3524 76.7696 83.9112 76.7696 79.4112V44.9994C76.7696 40.4994 73.3285 37.0583 68.8285 37.0583V26.47C68.8285 13.2347 58.2402 2.64648 45.0049 2.64648ZM71.4755 44.9994V79.4112C71.4755 80.9994 70.4167 82.0583 68.8285 82.0583H21.1814C19.5932 82.0583 18.5344 80.9994 18.5344 79.4112V44.9994C18.5344 43.4112 19.5932 42.3524 21.1814 42.3524H23.8285H66.1814H68.8285C70.4167 42.3524 71.4755 43.4112 71.4755 44.9994ZM26.4755 37.0583V26.47C26.4755 16.1465 34.6814 7.9406 45.0049 7.9406C55.3285 7.9406 63.5344 16.1465 63.5344 26.47V37.0583H26.4755Z" fill="#F8FAFC"/>
<path d="M45.0095 50.293C40.5095 50.293 37.0684 53.7341 37.0684 58.2341C37.0684 61.6753 39.186 64.5871 42.3625 65.6459V71.4694C42.3625 73.0577 43.4213 74.1165 45.0095 74.1165C46.5978 74.1165 47.6566 73.0577 47.6566 71.4694V65.6459C50.8331 64.5871 52.9507 61.6753 52.9507 58.2341C52.9507 53.7341 49.5095 50.293 45.0095 50.293ZM45.0095 60.8812C43.4213 60.8812 42.3625 59.8224 42.3625 58.2341C42.3625 56.6459 43.4213 55.5871 45.0095 55.5871C46.5978 55.5871 47.6566 56.6459 47.6566 58.2341C47.6566 59.8224 46.5978 60.8812 45.0095 60.8812Z" fill="#17FFA6"/>
</svg>
