<svg width="111" height="134" viewBox="0 0 111 134" fill="none" xmlns="http://www.w3.org/2000/svg">
<path d="M55.8998 11.0002H13.2C9.96435 11.0002 6.86124 12.2855 4.5733 14.5735C2.28537 16.8614 1.00002 19.9645 1.00002 23.2002V120.8C1.00002 124.035 2.28537 127.139 4.5733 129.427C6.86124 131.714 9.96435 133 13.2 133H86.3998C89.6354 133 92.7385 131.714 95.0264 129.427C97.3144 127.139 98.5997 124.035 98.5997 120.8V53.7001L55.8998 11.0002Z" fill="#1C1C1C" stroke="#085537" stroke-width="2" stroke-linecap="round" stroke-linejoin="round"/>
<path d="M55.8995 11.0002V53.7001H98.5993" stroke="#0C8053" stroke-width="2" stroke-linecap="round" stroke-linejoin="round"/>
<path d="M66.9 1.00002H24.2002C20.9645 1.00002 17.8614 2.28537 15.5735 4.5733C13.2856 6.86124 12.0002 9.96435 12.0002 13.2V110.8C12.0002 114.035 13.2856 117.138 15.5735 119.426C17.8614 121.714 20.9645 123 24.2002 123H97.4C100.636 123 103.739 121.714 106.027 119.426C108.315 117.138 109.6 114.035 109.6 110.8V43.6999L66.9 1.00002Z" fill="#232323" stroke="#0C8053" stroke-width="2" stroke-linecap="round" stroke-linejoin="round"/>
<path d="M66.8997 1.00002V43.6999H109.6" stroke="#0C8053" stroke-width="2" stroke-linecap="round" stroke-linejoin="round"/>
</svg>
