<svg width="48" height="48" viewBox="0 0 48 48" fill="none" xmlns="http://www.w3.org/2000/svg">
<rect width="48" height="48" rx="10" fill="#053321"/>
<path d="M23.667 34C29.1898 34 33.667 29.5228 33.667 24C33.667 18.4772 29.1898 14 23.667 14C18.1441 14 13.667 18.4772 13.667 24C13.667 29.5228 18.1441 34 23.667 34Z" stroke="#3EFFB5" stroke-width="1.5" stroke-linecap="round" stroke-linejoin="round"/>
<path d="M20.7568 21.0006C20.9919 20.3322 21.456 19.7687 22.0668 19.4097C22.6776 19.0507 23.3957 18.9195 24.094 19.0393C24.7923 19.1591 25.4257 19.5221 25.8819 20.0641C26.3382 20.6061 26.5879 21.2921 26.5868 22.0006C26.5868 24.0006 23.5868 25.0006 23.5868 25.0006" stroke="#3EFFB5" stroke-width="1.5" stroke-linecap="round" stroke-linejoin="round"/>
<path d="M23.667 29H23.677" stroke="#3EFFB5" stroke-width="1.5" stroke-linecap="round" stroke-linejoin="round"/>
</svg>
