<svg width="90" height="90" viewBox="0 0 90 90" fill="none" xmlns="http://www.w3.org/2000/svg">
<path d="M38.3397 81.9516C38.2226 81.9516 38.103 81.9369 37.984 81.9058C37.2323 81.7102 36.7816 80.942 36.9774 80.1908L39.3212 71.192C39.5168 70.4403 40.285 69.9896 41.0362 70.1854C41.788 70.381 42.2386 71.1492 42.0428 71.9005L39.6991 80.8993C39.5344 81.5318 38.9643 81.9516 38.3397 81.9516Z" fill="#F8FAFC"/>
<path d="M51.64 81.9515C51.0155 81.9515 50.4447 81.532 50.2801 80.8992L47.9363 71.9004C47.7407 71.1487 48.1912 70.3811 48.9429 70.1854C49.694 69.9897 50.4622 70.4402 50.658 71.1919L53.0018 80.1907C53.1974 80.9424 52.7469 81.71 51.9952 81.9058C51.8769 81.9362 51.7578 81.9515 51.64 81.9515Z" fill="#F8FAFC"/>
<path d="M63.4199 88.9697H26.5996C25.8226 88.9697 25.1934 88.3404 25.1934 87.5634C25.1934 82.9175 28.9726 79.1382 33.6186 79.1382H56.4015C61.0469 79.1382 64.8261 82.9175 64.8261 87.5634C64.8261 88.3404 64.1961 88.9697 63.4199 88.9697ZM28.1839 86.1573H61.8349C61.2091 83.7409 59.01 81.9509 56.4009 81.9509H33.6186C31.0093 81.9509 28.8098 83.7408 28.1839 86.1573Z" fill="#F8FAFC"/>
<path d="M86.2498 72.9526H3.75002C1.68216 72.9526 0 71.2704 0 69.2026V13.8218C0 11.7541 1.68216 10.0718 3.75002 10.0718H19.6494C20.4264 10.0718 21.0557 10.701 21.0557 11.478C21.0557 12.255 20.4264 12.8843 19.6494 12.8843H3.75002C3.23321 12.8843 2.81252 13.305 2.81252 13.8218V69.2027C2.81252 69.7195 3.23321 70.1402 3.75002 70.1402H86.25C86.7668 70.1402 87.1875 69.7195 87.1875 69.2027V13.8218C87.1875 13.305 86.7668 12.8843 86.25 12.8843H81.0768C80.2998 12.8843 79.6705 12.255 79.6705 11.478C79.6705 10.701 80.2998 10.0718 81.0768 10.0718H86.25C88.3177 10.0718 90 11.7539 90 13.8218V69.2027C89.9998 71.2704 88.3177 72.9526 86.2498 72.9526Z" fill="#F8FAFC"/>
<path d="M88.5936 63.4712H1.40626C0.629267 63.4712 0 62.8419 0 62.065C0 61.288 0.629267 60.6587 1.40626 60.6587H88.5936C89.3706 60.6587 89.9999 61.288 89.9999 62.065C89.9999 62.8419 89.3706 63.4712 88.5936 63.4712Z" fill="#F8FAFC"/>
<path d="M81.0863 43.7127H43.8019C43.0249 43.7127 42.3957 43.0834 42.3957 42.3064C42.3957 41.5294 43.0249 40.9001 43.8019 40.9001H79.68V3.84557H32.4131V8.91219C32.4131 9.68919 31.7838 10.3185 31.0068 10.3185C30.2299 10.3185 29.6006 9.68919 29.6006 8.91219V2.43946C29.6006 1.66247 30.2299 1.0332 31.0068 1.0332H81.0863C81.8632 1.0332 82.4925 1.66247 82.4925 2.43946V42.3065C82.4925 43.0828 81.8627 43.7127 81.0863 43.7127Z" fill="#F8FAFC"/>
<path d="M48.2938 19.3245C48.1849 19.0386 48.0934 18.8048 48.0213 18.629C47.941 18.4339 47.8408 18.2493 47.7242 18.08C47.5906 17.8861 47.4142 17.726 47.1991 17.6048C46.9776 17.4794 46.707 17.416 46.3952 17.416C46.087 17.416 45.8188 17.4798 45.5972 17.6053C45.381 17.7278 45.204 17.8906 45.0698 18.0906C44.9527 18.2652 44.8424 18.4832 44.7429 18.7392C44.6515 18.9719 44.5736 19.1711 44.5096 19.3363L42.2357 25.1089C42.1396 25.3473 42.0687 25.5384 42.0259 25.6762C41.9749 25.8396 41.9492 26.0019 41.9492 26.159C41.9492 26.4702 42.074 26.7473 42.3207 26.9823C42.5626 27.2132 42.8475 27.3298 43.1679 27.3298C43.5517 27.3298 43.8417 27.2032 44.0299 26.9536C44.1694 26.7684 44.324 26.4445 44.5039 25.9622L44.842 25.0545H47.9628L48.3002 25.9416L48.3032 25.9493C48.3601 26.0876 48.4297 26.2504 48.5094 26.4333C48.602 26.6436 48.6899 26.8006 48.7778 26.912C48.8787 27.0398 49.0052 27.1424 49.1534 27.2168C49.3039 27.2923 49.4803 27.3304 49.6773 27.3304C50.0171 27.3304 50.3112 27.2085 50.552 26.9678C50.7928 26.727 50.9146 26.4509 50.9146 26.1474C50.9146 25.899 50.8167 25.5433 50.6152 25.0606L48.2938 19.3245ZM47.2121 22.9848H45.5745L46.386 20.723L47.2121 22.9848Z" fill="#17FFA6"/>
<path d="M61.412 22.0531C62.0138 21.5844 62.3185 20.9475 62.3185 20.1577C62.3185 19.8583 62.2681 19.5689 62.1696 19.2981C62.0705 19.0273 61.9253 18.7766 61.7372 18.5534C61.5502 18.3319 61.3328 18.1463 61.0908 18.0021C60.8067 17.8298 60.482 17.7115 60.1276 17.6517C59.7978 17.5959 59.4057 17.5679 58.9639 17.5679H56.0823C55.6012 17.5679 55.2356 17.6897 54.9954 17.9305C54.7547 18.1713 54.6328 18.5411 54.6328 19.0297V25.7153C54.6328 26.1928 54.7506 26.5584 54.9832 26.8027C55.2205 27.0511 55.5903 27.1771 56.0824 27.1771H58.8006C59.2834 27.1771 59.7135 27.1525 60.0791 27.1045C60.4605 27.0541 60.8069 26.9644 61.1104 26.8378C61.6072 26.6198 62.0069 26.2771 62.2993 25.8201C62.5904 25.3654 62.7382 24.848 62.7382 24.2837C62.7368 23.2768 62.2915 22.5273 61.412 22.0531ZM59.7332 20.7865L59.7291 20.7942C59.6418 20.9553 59.5264 21.0561 59.3653 21.1124C59.1597 21.1838 58.8491 21.2201 58.4419 21.2201H57.1493V19.6363H58.2538C58.8538 19.6363 59.2951 19.6995 59.5657 19.8251C59.6922 19.8837 59.8376 20.0014 59.8376 20.3952C59.8376 20.5422 59.8042 20.6669 59.7332 20.7865ZM60.1955 24.1498C60.1955 24.5962 60.0285 25.1083 58.7272 25.1083H57.1493V23.2269H58.6662C59.2205 23.2269 59.6312 23.3101 59.8867 23.4735C60.1001 23.6114 60.1955 23.8192 60.1955 24.1498Z" fill="#17FFA6"/>
<path d="M74.6349 23.1964C74.4128 22.9801 74.1428 22.8706 73.8334 22.8706C73.4666 22.8706 73.1876 22.9925 73.0036 23.2322C72.8659 23.4116 72.7523 23.6376 72.6667 23.9002C72.5103 24.3267 72.2812 24.6507 71.9841 24.864C71.69 25.0749 71.3179 25.1822 70.879 25.1822C70.473 25.1822 70.1173 25.0867 69.8214 24.8981C69.5296 24.7123 69.2981 24.4211 69.1335 24.032C68.9589 23.6196 68.8704 23.0857 68.8704 22.4452C68.8704 21.496 69.066 20.7643 69.4528 20.2691C69.8236 19.7944 70.31 19.5636 70.9393 19.5636C71.3284 19.5636 71.6553 19.6527 71.9101 19.8285C72.1785 20.0131 72.4187 20.3032 72.625 20.6905C72.7861 20.9946 72.935 21.2091 73.0802 21.3468C73.2636 21.5202 73.5209 21.6087 73.8448 21.6087C74.1543 21.6087 74.4202 21.4904 74.6352 21.2571C74.8432 21.0321 74.9487 20.7668 74.9487 20.4685C74.9487 20.0186 74.7753 19.5463 74.4337 19.0634C74.1021 18.5953 73.6233 18.1991 73.0121 17.8869C72.4015 17.5752 71.6997 17.417 70.9262 17.417C70.2928 17.417 69.6863 17.5318 69.1238 17.7586C68.5577 17.9872 68.0568 18.3241 67.6349 18.7611C67.2136 19.1976 66.8862 19.7284 66.6617 20.339C66.4396 20.942 66.3271 21.6311 66.3271 22.3857C66.3271 22.8492 66.3717 23.2946 66.459 23.7094C66.5475 24.1277 66.6823 24.5274 66.8598 24.8971C67.038 25.2679 67.2566 25.6095 67.5115 25.9125C67.7985 26.2476 68.1185 26.5231 68.4637 26.7299C68.8076 26.9367 69.1949 27.0903 69.6139 27.1875C70.0228 27.2824 70.4811 27.3305 70.975 27.3305C71.6394 27.3305 72.2335 27.221 72.7409 27.0047C73.2495 26.7879 73.6755 26.4997 74.0077 26.1475C74.3352 25.8 74.5796 25.438 74.7349 25.0711C74.8924 24.6985 74.9727 24.3422 74.9727 24.0123C74.9736 23.6892 74.8598 23.4155 74.6349 23.1964Z" fill="#17FFA6"/>
<path d="M34.0887 19.7923C33.7014 19.7923 33.3241 19.6323 33.0563 19.3486L33.0457 19.3375C32.2301 18.479 31.3008 17.3981 30.4296 16.2936C30.0727 15.8413 29.9351 15.6924 29.8466 15.6057C29.8272 15.5863 29.7991 15.56 29.764 15.5278C29.6117 15.6573 29.451 15.775 29.2811 15.8811C28.2206 16.5432 27.1495 16.5169 26.4411 16.4992L26.3942 16.498C26.3742 16.4975 24.2626 16.45 22.0126 16.6052L21.9076 16.6123C21.2011 16.6603 20.533 16.7055 20.0601 16.9503C20.0303 17.0745 20.0167 17.3459 20.0073 17.5327C19.9921 17.8357 19.9757 18.179 19.9071 18.5511C19.8304 18.97 19.5989 19.3257 19.2561 19.5518C18.928 19.768 18.5201 19.8418 18.1375 19.7539C17.8961 19.6976 17.5563 19.5559 17.2849 19.1925C16.7616 18.4976 16.6639 17.604 16.5988 17.0128L16.5964 16.9934C16.4563 15.7202 16.3592 14.0363 16.6914 13.2451C16.8736 12.8103 17.4215 11.6772 18.564 10.5727C20.7167 8.49265 24.0806 7.66759 25.0597 7.46489C26.4214 7.18252 27.7257 7.08227 28.9357 7.16664C29.7841 7.22529 30.5078 7.33245 31.1476 7.49414C32.0839 7.73138 32.8258 8.2019 33.294 8.85527C33.5318 9.18747 33.6742 9.52085 33.789 9.78925C33.8605 9.95682 33.9413 10.1461 33.9976 10.2064C34.1289 10.3471 34.3351 10.4935 34.5531 10.6489C34.8378 10.8516 35.1602 11.0813 35.4655 11.3925C36.1938 12.1349 37.0187 13.3893 37.1482 14.682C37.2742 15.9313 36.7211 17.0122 36.2939 17.7166C36.2376 17.8092 36.0004 18.1783 35.7671 18.5193C35.2954 19.209 34.955 19.7076 34.236 19.7843C34.1878 19.7893 34.138 19.7923 34.0887 19.7923ZM35.0943 17.4104L35.099 17.4151C35.0973 17.4134 35.0961 17.4122 35.0943 17.4104ZM29.5478 12.2816C30.1021 12.2816 30.5369 12.5822 30.7653 12.7398C30.7653 12.7398 30.7928 12.7592 30.7957 12.761C31.289 13.1037 31.6453 13.4306 31.8141 13.5953C31.9999 13.7775 32.2102 14.0089 32.6385 14.5516C33.1243 15.1675 33.5708 15.703 33.9563 16.1488C34.1602 15.799 34.3893 15.3343 34.3519 14.9629C34.3079 14.5234 33.9247 13.8356 33.4601 13.3616C33.3294 13.2279 33.1326 13.0879 32.924 12.9397C32.6175 12.7211 32.27 12.4739 31.9472 12.1288C31.5529 11.7081 31.3519 11.2381 31.2054 10.8954C31.1351 10.7307 31.0682 10.5755 31.0097 10.4933C30.9564 10.419 30.78 10.3022 30.4601 10.2214C29.9855 10.1013 29.423 10.0199 28.7433 9.97299C27.7893 9.90684 26.7429 9.98945 25.6331 10.2196C24.0746 10.543 21.8005 11.3593 20.5202 12.5962C19.8476 13.2466 19.4901 13.8957 19.3443 14.2057C20.167 13.9134 21.0119 13.8559 21.7185 13.8078L21.8211 13.8008C24.2058 13.6367 26.372 13.6854 26.4635 13.6877L26.5127 13.6889C27.0927 13.703 27.4649 13.7018 27.7936 13.4962C27.9723 13.3843 28.1293 13.2197 28.2594 13.0058C28.4703 12.6566 28.8196 12.4064 29.2185 12.3185C29.3315 12.2922 29.4418 12.2816 29.5478 12.2816Z" fill="#F8FAFC"/>
<path d="M26.7176 31.8208C26.1884 31.8208 25.5868 31.7698 24.9411 31.6275C24.361 31.4992 22.8581 31.0714 21.3937 29.872C20.6895 29.2955 19.3998 28.0239 18.6679 25.9883C18.5296 25.6039 18.4172 25.1739 18.3322 24.7767C17.202 24.1504 16.3442 23.0129 16.0506 21.6853C15.6908 20.0587 16.2376 18.4692 17.5501 17.3231C18.1348 16.8121 19.0237 16.8726 19.534 17.4573C20.0449 18.042 19.9845 18.9309 19.3998 19.4412C18.8631 19.9094 18.6603 20.4602 18.7968 21.0778C18.9381 21.7159 19.4232 22.2737 19.9763 22.4348C20.5106 22.5901 20.9032 23.0454 20.9776 23.5974C21.018 23.8974 21.1346 24.5384 21.3139 25.037C21.8354 26.4884 22.7893 27.3802 23.1754 27.6965C24.1996 28.5349 25.2496 28.8157 25.5472 28.8813C26.6266 29.1191 27.5119 28.9633 27.8424 28.8854C28.7424 28.6727 29.3389 28.2632 29.6248 28.0662C29.8147 27.9355 30.3139 27.5641 30.8266 26.9576C31.5718 26.0758 32.1255 24.8605 32.4279 23.4432C32.548 22.8789 33.001 22.4453 33.5698 22.3499C33.7409 22.3212 34.1657 21.7698 34.2238 20.9693C34.2519 20.582 34.2138 19.9047 33.6455 19.7218C32.906 19.484 32.4995 18.6923 32.7373 17.9529C32.9751 17.2134 33.7668 16.8069 34.5062 17.0447C36.1814 17.5831 37.1716 19.2032 37.0293 21.1726C36.9665 22.0387 36.6865 22.893 36.2407 23.5784C35.9014 24.0999 35.476 24.5083 34.9973 24.7796C34.5689 26.3488 33.8904 27.69 32.9753 28.7734C32.2699 29.6089 31.5719 30.141 31.2192 30.3841C30.8583 30.6319 29.9014 31.29 28.4887 31.6234C28.1068 31.7123 27.4881 31.8208 26.7176 31.8208Z" fill="#F8FAFC"/>
<path d="M22.3262 34.5886C22.1165 34.5886 21.9032 34.5411 21.7023 34.4415C21.0067 34.0963 20.7226 33.2526 21.0677 32.5564C21.4029 31.8815 21.6044 31.1355 21.6208 30.5103C21.6285 30.2268 21.5998 30.1254 21.5229 29.8552C21.4978 29.7661 21.4714 29.6729 21.4456 29.5717C21.2523 28.8194 21.7058 28.0529 22.4575 27.8595C23.2098 27.6662 23.9762 28.1197 24.1697 28.8714C24.1897 28.9487 24.2095 29.0191 24.2289 29.0864C24.3333 29.4538 24.4516 29.8705 24.4328 30.5835C24.3959 31.9792 23.8873 33.2009 23.5879 33.805C23.3417 34.3014 22.8437 34.5886 22.3262 34.5886Z" fill="#F8FAFC"/>
<path d="M30.9716 34.88C30.4818 34.88 30.0054 34.6233 29.747 34.1669C29.2835 33.3489 28.7228 32.0629 28.6835 30.5839C28.6653 29.8714 28.7832 29.456 28.8868 29.0891L28.9137 28.9936C29.1217 28.2454 29.8969 27.8071 30.6451 28.0151C31.3933 28.2231 31.8316 28.9983 31.6236 29.7465L31.5932 29.8554C31.5171 30.1256 31.4882 30.2263 31.4953 30.5105C31.5193 31.4082 31.8885 32.2402 32.1944 32.7799C32.577 33.4555 32.3398 34.3139 31.664 34.6965C31.445 34.8212 31.2065 34.88 30.9716 34.88Z" fill="#F8FAFC"/>
<path d="M44.3617 52.6843H8.94179C8.16715 52.6843 7.53788 52.0574 7.53553 51.2828C7.52729 48.7328 7.64621 42.3555 8.93061 38.2175C9.28339 37.0808 9.71349 36.1492 10.2841 35.2861C10.7617 34.5636 12.1374 32.7485 14.5925 31.4998C16.839 30.3572 18.9865 30.1873 20.3928 30.2453C20.7297 30.2595 21.0509 30.3941 21.2969 30.625L26.5135 35.5223L32.0336 30.6005C32.2761 30.3843 32.5861 30.2583 32.9107 30.2448C34.3157 30.1867 36.4625 30.3566 38.7103 31.4992C41.1659 32.7479 42.5418 34.563 43.0193 35.2855C43.5901 36.1486 44.0201 37.0803 44.3728 38.2169C45.6572 42.3555 45.7762 48.7328 45.7679 51.2822C45.7656 52.0574 45.1369 52.6843 44.3617 52.6843ZM26.6073 49.8718H42.9456C42.8998 47.1678 42.6748 42.2348 41.687 39.0508C41.4116 38.1631 41.0988 37.4805 40.6734 36.8366C40.3188 36.3005 39.294 34.951 37.4361 34.0065C35.9717 33.2625 34.5609 33.062 33.5143 33.0486L27.4247 38.4779C26.881 38.9625 26.0571 38.9519 25.5263 38.4533L19.7688 33.0486C18.7236 33.0645 17.3214 33.2666 15.8671 34.0065C14.0091 34.9511 12.9843 36.3005 12.6298 36.8366C12.2044 37.4805 11.8914 38.1631 11.6161 39.0508C10.6282 42.2336 10.4033 47.1678 10.3576 49.8712L26.6073 49.8718Z" fill="#F8FAFC"/>
<path d="M15.7998 52.6845C15.0228 52.6845 14.3936 52.0552 14.3936 51.2782V42.9468C14.3936 42.1698 15.0228 41.5405 15.7998 41.5405C16.5768 41.5405 17.2061 42.1698 17.2061 42.9468V51.2782C17.2061 52.0546 16.5762 52.6845 15.7998 52.6845Z" fill="#F8FAFC"/>
<path d="M38.0811 52.6845C37.3041 52.6845 36.6748 52.0552 36.6748 51.2782V42.9468C36.6748 42.1698 37.3041 41.5405 38.0811 41.5405C38.8581 41.5405 39.4873 42.1698 39.4873 42.9468V51.2782C39.4873 52.0546 38.8573 52.6845 38.0811 52.6845Z" fill="#F8FAFC"/>
<path d="M24.8551 52.6836C24.2879 52.6836 23.7536 52.3379 23.5403 51.7759L16.1897 32.4183C15.9137 31.6923 16.2794 30.8802 17.0054 30.6043C17.7314 30.3282 18.5435 30.6939 18.8194 31.4199L26.17 50.7776C26.446 51.5036 26.0803 52.3157 25.3543 52.5916C25.1903 52.6538 25.0209 52.6836 24.8551 52.6836Z" fill="#F8FAFC"/>
<path d="M28.4291 52.6833C28.2633 52.6833 28.0945 52.6535 27.9299 52.5913C27.2039 52.3158 26.8389 51.5038 27.1142 50.7773L34.4648 31.4196C34.7408 30.6936 35.5522 30.3287 36.2788 30.604C37.0048 30.88 37.3698 31.692 37.0945 32.418L29.7439 51.7756C29.5306 52.3376 28.9962 52.6833 28.4291 52.6833Z" fill="#F8FAFC"/>
</svg>
