<svg width="106" height="106" viewBox="0 0 106 106" fill="none" xmlns="http://www.w3.org/2000/svg">
<path fill-rule="evenodd" clip-rule="evenodd" d="M97.6363 82.5677C91.8711 82.4072 87.3986 82.9981 83.65 84.575C82.5706 85.0085 80.8385 85.0085 80.6963 86.367C81.2731 86.937 81.3426 87.87 81.8484 88.66C82.7128 90.094 84.2284 92.0257 85.597 93.0278L90.2101 96.3244C93.0216 98.0426 96.1934 99.0462 98.9321 100.766C100.519 101.77 102.104 103.059 103.691 104.135C104.499 104.708 104.988 105.641 105.998 105.998V105.781C105.494 105.139 105.348 104.207 104.846 103.488L102.681 101.412C100.592 98.6175 97.995 96.1799 95.1835 94.1759C92.8761 92.599 87.8316 90.4505 86.8945 87.8009L86.7523 87.6404C88.3358 87.4798 90.2101 86.9226 91.7257 86.4922C94.1785 85.8499 96.4115 85.9912 98.9321 85.3473L102.395 84.3437V83.7014C101.097 82.412 100.16 80.6922 98.7916 79.475C95.1156 76.3229 91.0761 73.2414 86.8945 70.6625C84.6598 69.2302 81.7757 68.2972 79.3972 67.0816C78.5295 66.6513 77.0899 66.4361 76.5857 65.7199C75.285 64.1463 74.566 62.0668 73.6288 60.2025L67.7183 47.7368C66.4208 44.9428 65.6258 42.1487 64.0424 39.5699C56.6162 27.3901 48.5404 20.0115 36.1408 12.7743C33.4748 11.2697 30.303 10.6225 26.9308 9.83572L21.5244 9.54668C20.3691 9.04567 19.217 7.68398 18.2072 7.03845C14.0982 4.45958 3.50023 -1.12852 0.470625 6.23557C-1.4764 10.8923 3.35481 15.4768 4.99483 17.8421C6.22284 19.4896 7.80631 21.3523 8.67399 23.215C9.15873 24.4322 9.32032 25.7233 9.82606 27.0127C10.9781 30.1648 12.0607 33.6767 13.5747 36.6152C14.3826 38.1199 15.2309 39.6983 16.2408 41.0584C16.8176 41.8613 17.8274 42.205 18.0423 43.4944C17.0325 44.9283 16.963 47.0753 16.3862 48.8689C13.7896 56.9652 14.7995 66.9949 18.4754 72.9556C19.6307 74.746 22.3533 78.6882 26.047 77.182C29.2915 75.8925 28.5676 71.809 29.5048 68.2265C29.7229 67.3675 29.5775 66.7942 30.0089 66.2193V66.3799L32.9658 72.3261C35.2005 75.8363 39.0945 79.4911 42.3374 81.9286C44.0663 83.2181 45.4365 85.4405 47.5984 86.2273V86.0105H47.4562C47.0232 85.3682 46.3736 85.0792 45.7968 84.5782C44.4993 83.2887 43.0581 81.7118 42.0482 80.2795C39.0218 76.2683 36.3557 71.8251 33.9757 67.2406C32.8204 65.0198 31.8105 62.5838 30.8766 60.3631C30.4403 59.5024 30.4403 58.2113 29.7213 57.7842C28.6387 59.3578 27.0552 60.7228 26.2587 62.6561C24.8885 65.736 24.7463 69.5336 24.2422 73.4742C23.9513 73.5465 24.0806 73.4742 23.9513 73.6348C21.6472 73.0631 20.8522 70.6962 19.9878 68.6922C17.8258 63.6051 17.4639 55.4381 19.3382 49.5626C19.8423 48.058 22.0075 43.329 21.1431 41.8966C20.7068 40.5349 19.2687 39.7481 18.4738 38.6722C17.5366 37.3105 16.53 35.5924 15.8804 34.0878C14.1515 30.0733 13.2871 25.6333 11.4111 21.6205C10.5435 19.7578 9.03109 17.8228 7.80471 16.1047C6.43452 14.1697 4.92375 12.808 3.84116 10.5166C3.48084 9.71368 2.97671 8.43869 3.55355 7.578C3.69574 7.00474 3.98659 6.77511 4.56019 6.64665C5.49735 5.84376 8.16663 6.86182 9.10379 7.28896C11.7698 8.36483 14.0045 9.36683 16.2391 10.8698C17.249 11.586 18.3316 12.9477 19.6291 13.3074H21.1447C23.452 13.8084 26.0454 13.468 28.2057 14.1103C32.027 15.3307 35.4864 17.1195 38.5888 19.0561C48.0315 25.0023 55.8196 33.4567 61.0806 43.5602C61.945 45.2078 62.3054 46.7124 63.1003 48.4321C64.6159 51.944 66.4903 55.5249 68.001 58.966C69.5166 62.3334 70.9579 65.7745 73.1199 68.5686C74.2024 70.0732 78.5263 70.86 80.4717 71.6484C81.9146 72.2908 84.1477 72.8688 85.4484 73.6557C87.8979 75.1603 90.349 76.8801 92.6548 78.5276C93.8068 79.3851 97.4133 81.1771 97.6282 82.6063L97.6363 82.5677ZM24.1177 20.3086C23.1217 20.2998 22.1288 20.4202 21.1641 20.6667V20.8273H21.3063C21.8831 21.9738 22.893 22.7622 23.6136 23.7658L25.273 27.2054L25.4152 27.0448C26.4251 26.3286 26.9308 25.1821 26.9308 23.4639C26.4978 22.9629 26.4267 22.4603 26.0664 21.9593C25.6333 21.2431 24.6962 20.8835 24.1177 20.3118V20.3086Z" fill="#4E4E4E"/>
</svg>
