<svg width="158" height="90" viewBox="0 0 158 90" fill="none" xmlns="http://www.w3.org/2000/svg">
<path d="M91.3326 28.4124H105.491V42.94H112.651C115.998 42.9239 119.321 42.3646 122.49 41.2839C124.033 40.7588 125.757 40.0318 127.272 39.1162C125.274 36.4975 124.254 33.1921 123.919 29.9271C123.51 25.4941 124.402 19.7214 127.393 16.251L128.882 14.5243L130.659 15.9548C135.126 19.5564 138.882 24.5886 139.546 30.3276C144.922 28.7389 151.237 29.1159 155.979 31.8625L157.924 32.9901L156.901 34.9963C152.92 42.839 144.536 45.2726 136.344 44.8418C124.083 75.4892 97.3924 90 65.0309 90C48.3102 90 32.9712 83.7258 24.2386 68.838C23.7255 67.9123 23.2896 66.9463 22.8234 65.9971C19.8723 59.4435 18.8897 52.2638 19.5537 45.1279L19.7549 42.9804H31.8276V28.4225H45.9862V14.2112H74.3068V0H91.2991V28.4258" fill="#394D54"/>
<mask id="mask0_0_2701" style="mask-type:luminance" maskUnits="userSpaceOnUse" x="21" y="1" width="134" height="87">
<path d="M47.0859 1.22949V29.8213H33.4622V44.1172H22.0555L21.9279 45.3604C21.2158 53.1485 22.5695 60.3325 25.6825 66.4748L26.7278 68.3581C27.347 69.4875 28.0902 70.5479 28.8568 71.5828C29.6234 72.6177 29.9009 73.1883 30.3864 73.8751C38.6145 83.1513 50.882 87.6265 65.0444 87.6265C96.4086 87.6265 123.027 73.6799 134.808 42.3495C143.166 43.2098 151.183 41.0592 154.837 33.9006C149.016 30.5293 141.537 31.6102 137.227 33.7844L148.644 1.22949L104.058 29.8213H89.8148V1.22949H47.0859Z" fill="white"/>
</mask>
<g mask="url(#mask0_0_2701)">
<path d="M76.7246 2.35449H88.9971V14.6726H76.7246V2.35449Z" fill="#20C2EF"/>
<path d="M78.2246 13.6462V3.37988V13.6462ZM80.0648 13.6456V3.37988V13.6456ZM81.9235 13.6456V3.37988V13.6456ZM83.7829 13.6456V3.37988V13.6456ZM85.6423 13.6456V3.37988V13.6456ZM87.4812 13.6456V3.37988V13.6456Z" fill="black"/>
<path d="M78.2246 13.6462V3.37988M80.0648 13.6456V3.37988M81.9235 13.6456V3.37988M83.7829 13.6456V3.37988M85.6423 13.6456V3.37988M87.4812 13.6456V3.37988" stroke="#394D54" stroke-width="0.39144"/>
<path d="M90.873 14.6787H103.146V2.36123H90.873V14.6787Z" fill="#00ACD3"/>
<path d="M92.373 3.38015V13.6465V3.38015ZM94.2132 3.38078V13.6465V3.38078ZM96.072 3.38078V13.6465V3.38078ZM97.9313 3.38078V13.6465V3.38078ZM99.7907 3.38078V13.6465V3.38078ZM101.63 3.38078V13.6465V3.38078Z" fill="black"/>
<path d="M92.373 3.38015V13.6465M94.2132 3.38078V13.6465M96.072 3.38078V13.6465M97.9313 3.38078V13.6465M99.7907 3.38078V13.6465M101.63 3.38078V13.6465" stroke="#394D54" stroke-width="0.39144"/>
<path d="M20.0898 16.5615H32.3623V28.879H20.0898V16.5615Z" fill="#00ACD3"/>
<path d="M20.0898 30.7803H32.3623V43.0984H20.0898V30.7803Z" fill="#20C2EF"/>
<path d="M21.5898 27.8591V17.5928V27.8591ZM23.43 27.8585V17.5928V27.8585ZM25.2888 27.8585V17.5928V27.8585ZM27.1481 27.8585V17.5928V27.8585ZM29.0075 27.8585V17.5928V27.8585ZM30.8464 27.8585V17.5928V27.8585Z" fill="black"/>
<path d="M21.5898 27.8591V17.5928M23.43 27.8585V17.5928M25.2888 27.8585V17.5928M27.1481 27.8585V17.5928M29.0075 27.8585V17.5928M30.8464 27.8585V17.5928" stroke="#394D54" stroke-width="0.39144"/>
<path d="M21.5898 42.073V31.8066V42.073ZM23.43 42.0723V31.8066V42.0723ZM25.2888 42.0723V31.8066V42.0723ZM27.1481 42.0723V31.8066V42.0723ZM29.0075 42.0723V31.8066V42.0723ZM30.8464 42.0723V31.8066V42.0723Z" fill="black"/>
<path d="M21.5898 42.073V31.8066M23.43 42.0723V31.8066M25.2888 42.0723V31.8066M27.1481 42.0723V31.8066M29.0075 42.0723V31.8066M30.8464 42.0723V31.8066" stroke="#394D54" stroke-width="0.39144"/>
<path d="M34.2441 43.1055H46.5166V30.788H34.2441V43.1055Z" fill="#00ACD3"/>
<path d="M34.2441 28.8867H46.5166V16.5686H34.2441V28.8867Z" fill="#20C2EF"/>
<path d="M35.7441 31.8069V42.0732V31.8069ZM37.5843 31.8075V42.0732V31.8075ZM39.4431 31.8075V42.0732V31.8075ZM41.3024 31.8075V42.0732V31.8075ZM43.1618 31.8075V42.0732V31.8075ZM45.0007 31.8075V42.0732V31.8075Z" fill="black"/>
<path d="M35.7441 31.8069V42.0732M37.5843 31.8075V42.0732M39.4431 31.8075V42.0732M41.3024 31.8075V42.0732M43.1618 31.8075V42.0732M45.0007 31.8075V42.0732" stroke="#394D54" stroke-width="0.39144"/>
<path d="M35.7441 17.595V27.8613V17.595ZM37.5843 17.5956V27.8613V17.5956ZM39.4431 17.5956V27.8613V17.5956ZM41.3024 17.5956V27.8613V17.5956ZM43.1618 17.5956V27.8613V17.5956ZM45.0007 17.5956V27.8613V17.5956Z" fill="black"/>
<path d="M35.7441 17.595V27.8613M37.5843 17.5956V27.8613M39.4431 17.5956V27.8613M41.3024 17.5956V27.8613M43.1618 17.5956V27.8613M45.0007 17.5956V27.8613" stroke="#394D54" stroke-width="0.39144"/>
<path d="M48.3965 16.5615H60.669V28.879H48.3965V16.5615Z" fill="#00ACD3"/>
<path d="M48.3965 30.7803H60.669V43.0984H48.3965V30.7803Z" fill="#20C2EF"/>
<path d="M49.8965 27.8591V17.5928V27.8591ZM51.7367 27.8585V17.5928V27.8585ZM53.5954 27.8585V17.5928V27.8585ZM55.4548 27.8585V17.5928V27.8585ZM57.3141 27.8585V17.5928V27.8585ZM59.1531 27.8585V17.5928V27.8585Z" fill="black"/>
<path d="M49.8965 27.8591V17.5928M51.7367 27.8585V17.5928M53.5954 27.8585V17.5928M55.4548 27.8585V17.5928M57.3141 27.8585V17.5928M59.1531 27.8585V17.5928" stroke="#394D54" stroke-width="0.39144"/>
<path d="M49.8965 42.073V31.8066V42.073ZM51.7367 42.0723V31.8066V42.0723ZM53.5954 42.0723V31.8066V42.0723ZM55.4548 42.0723V31.8066V42.0723ZM57.3141 42.0723V31.8066V42.0723ZM59.1531 42.0723V31.8066V42.0723Z" fill="black"/>
<path d="M49.8965 42.073V31.8066M51.7367 42.0723V31.8066M53.5954 42.0723V31.8066M55.4548 42.0723V31.8066M57.3141 42.0723V31.8066M59.1531 42.0723V31.8066" stroke="#394D54" stroke-width="0.39144"/>
<path d="M62.5586 43.1055H74.8311V30.788H62.5586V43.1055Z" fill="#00ACD3"/>
<path d="M62.5586 28.8867H74.8311V16.5686H62.5586V28.8867Z" fill="#20C2EF"/>
<path d="M64.0586 31.8069V42.0732V31.8069ZM65.8988 31.8075V42.0732V31.8075ZM67.7575 31.8075V42.0732V31.8075ZM69.6169 31.8075V42.0732V31.8075ZM71.4762 31.8075V42.0732V31.8075ZM73.3152 31.8075V42.0732V31.8075Z" fill="black"/>
<path d="M64.0586 31.8069V42.0732M65.8988 31.8075V42.0732M67.7575 31.8075V42.0732M69.6169 31.8075V42.0732M71.4762 31.8075V42.0732M73.3152 31.8075V42.0732" stroke="#394D54" stroke-width="0.39144"/>
<path d="M64.0586 17.595V27.8613V17.595ZM65.8988 17.5956V27.8613V17.5956ZM67.7575 17.5956V27.8613V17.5956ZM69.6169 17.5956V27.8613V17.5956ZM71.4762 17.5956V27.8613V17.5956ZM73.3152 17.5956V27.8613V17.5956Z" fill="black"/>
<path d="M64.0586 17.595V27.8613M65.8988 17.5956V27.8613M67.7575 17.5956V27.8613M69.6169 17.5956V27.8613M71.4762 17.5956V27.8613M73.3152 17.5956V27.8613" stroke="#394D54" stroke-width="0.39144"/>
<path d="M76.7246 16.5615H88.9971V28.879H76.7246V16.5615Z" fill="#00ACD3"/>
<path d="M76.7246 30.7803H88.9971V43.0984H76.7246V30.7803Z" fill="#20C2EF"/>
<path d="M78.2246 27.8591V17.5928V27.8591ZM80.0648 27.8585V17.5928V27.8585ZM81.9235 27.8585V17.5928V27.8585ZM83.7829 27.8585V17.5928V27.8585ZM85.6423 27.8585V17.5928V27.8585ZM87.4812 27.8585V17.5928V27.8585Z" fill="black"/>
<path d="M78.2246 27.8591V17.5928M80.0648 27.8585V17.5928M81.9235 27.8585V17.5928M83.7829 27.8585V17.5928M85.6423 27.8585V17.5928M87.4812 27.8585V17.5928" stroke="#394D54" stroke-width="0.39144"/>
<path d="M78.2246 42.073V31.8066V42.073ZM80.0648 42.0723V31.8066V42.0723ZM81.9235 42.0723V31.8066V42.0723ZM83.7829 42.0723V31.8066V42.0723ZM85.6423 42.0723V31.8066V42.0723ZM87.4812 42.0723V31.8066V42.0723Z" fill="black"/>
<path d="M78.2246 42.073V31.8066M80.0648 42.0723V31.8066M81.9235 42.0723V31.8066M83.7829 42.0723V31.8066M85.6423 42.0723V31.8066M87.4812 42.0723V31.8066" stroke="#394D54" stroke-width="0.39144"/>
<path d="M90.873 43.1055H103.146V30.788H90.873V43.1055Z" fill="#00ACD3"/>
<path d="M90.873 28.8867H103.146V16.5686H90.873V28.8867Z" fill="#20C2EF"/>
<path d="M92.373 31.8069V42.0732V31.8069ZM94.2132 31.8075V42.0732V31.8075ZM96.072 31.8075V42.0732V31.8075ZM97.9313 31.8075V42.0732V31.8075ZM99.7907 31.8075V42.0732V31.8075ZM101.63 31.8075V42.0732V31.8075Z" fill="black"/>
<path d="M92.373 31.8069V42.0732M94.2132 31.8075V42.0732M96.072 31.8075V42.0732M97.9313 31.8075V42.0732M99.7907 31.8075V42.0732M101.63 31.8075V42.0732" stroke="#394D54" stroke-width="0.39144"/>
<path d="M92.373 17.595V27.8613V17.595ZM94.2132 17.5956V27.8613V17.5956ZM96.072 17.5956V27.8613V17.5956ZM97.9313 17.5956V27.8613V17.5956ZM99.7907 17.5956V27.8613V17.5956ZM101.63 17.5956V27.8613V17.5956Z" fill="black"/>
<path d="M92.373 17.595V27.8613M94.2132 17.5956V27.8613M96.072 17.5956V27.8613M97.9313 17.5956V27.8613M99.7907 17.5956V27.8613M101.63 17.5956V27.8613" stroke="#394D54" stroke-width="0.39144"/>
<path d="M137.24 33.7881C138.189 26.3821 132.667 20.5643 129.243 17.8027C125.296 22.3824 124.683 34.3848 130.875 39.4374C127.419 42.5179 120.139 45.3099 112.683 45.3099H21.0857C20.3612 53.1211 21.0857 90.7355 21.0857 90.7355H155.465L154.854 33.9099C149.033 30.5385 141.549 31.6145 137.24 33.7881Z" fill="#17B5EB"/>
<path d="M21.082 55.3057V90.7347H155.461V55.3057" fill="black" fill-opacity="0.17"/>
<path d="M68.9046 87.5637C60.5198 83.5701 55.9175 78.1408 53.3568 72.2148L27.8867 73.3299L40.8912 90.7336L68.9046 87.5637Z" fill="#D4EDF1"/>
<path d="M137.812 33.5122V33.5308C124.895 50.2508 106.364 64.8451 86.472 72.5151C68.7272 79.3573 53.2562 79.3896 42.5821 73.895C41.4327 73.2436 40.3057 72.5201 39.1762 71.8364C31.3506 66.3468 26.9433 57.267 27.3136 45.3038H21.082V90.7344H155.461V31.0645H139.98L137.812 33.5122Z" fill="black" fill-opacity="0.085"/>
</g>
<path d="M28.252 72.7279C37.0248 73.2093 46.3845 73.3001 54.5503 70.7285" stroke="#394D54" stroke-width="0.853355" stroke-linecap="round"/>
<path d="M63.2718 66.469C63.2709 67.3695 62.9141 68.2328 62.2798 68.8695C61.6456 69.5063 60.7855 69.8644 59.8885 69.8653C58.9909 69.8653 58.1301 69.5076 57.495 68.8707C56.86 68.2339 56.5028 67.3701 56.502 66.469C56.502 65.5673 56.8588 64.7026 57.4939 64.0651C58.129 63.4275 58.9904 63.0693 59.8885 63.0693C60.7861 63.0702 61.6466 63.4288 62.281 64.0663C62.9154 64.7037 63.2718 65.5679 63.2718 66.469Z" fill="#D4EDF1"/>
<path d="M60.7994 64.203C60.5043 64.3713 60.3031 64.6945 60.3031 65.0647C60.3031 65.6134 60.7458 66.0577 61.2924 66.0577C61.668 66.0577 61.9631 65.849 62.1643 65.5393C62.2857 65.8351 62.3483 66.1518 62.3488 66.4717C62.3488 67.8181 61.2622 68.9053 59.9242 68.9053C58.5861 68.9053 57.4996 67.8147 57.4996 66.4717C57.4996 65.1287 58.5861 64.0381 59.9242 64.0381C60.2247 64.0377 60.5193 64.0936 60.7994 64.203ZM0 56.0237H157.495C154.064 55.1485 146.646 54.0041 147.87 49.46C141.633 56.7036 126.596 54.509 122.803 50.9679C118.577 57.121 93.9725 54.7816 92.2589 49.9581C86.9603 56.1987 70.5448 56.1987 65.2462 49.9581C63.5292 54.7513 38.9277 57.094 34.7291 50.9679C30.8994 54.509 15.8622 56.707 9.62462 49.46C10.8487 53.9704 3.4273 55.1822 0 56.0237Z" fill="#394D54"/>
</svg>
