<svg width="90" height="90" viewBox="0 0 90 90" fill="none" xmlns="http://www.w3.org/2000/svg">
<g clip-path="url(#clip0_0_4305)">
<path d="M33.7549 37.5C23.4161 37.5 15.0049 29.0888 15.0049 18.75C15.0049 8.41125 23.4161 0 33.7549 0C44.0936 0 52.5049 8.41125 52.5049 18.75C52.5049 29.0888 44.0936 37.5 33.7549 37.5ZM33.7549 3.75C25.4824 3.75 18.7549 10.4775 18.7549 18.75C18.7549 27.0225 25.4824 33.75 33.7549 33.75C42.0274 33.75 48.7549 27.0225 48.7549 18.75C48.7549 10.4775 42.0274 3.75 33.7549 3.75Z" fill="#F8FAFC"/>
<path d="M31.875 78.75H1.875C0.84 78.75 0 77.91 0 76.875V61.875C0 52.5712 7.57125 45 16.875 45H39.375C40.41 45 41.25 45.84 41.25 46.875C41.25 47.91 40.41 48.75 39.375 48.75H16.875C9.6375 48.75 3.75 54.6375 3.75 61.875V75H31.875C32.91 75 33.75 75.84 33.75 76.875C33.75 77.91 32.91 78.75 31.875 78.75Z" fill="#F8FAFC"/>
<path d="M63.752 75C58.5845 75 54.377 70.7925 54.377 65.625C54.377 60.4575 58.5845 56.25 63.752 56.25C68.9195 56.25 73.127 60.4575 73.127 65.625C73.127 70.7925 68.9195 75 63.752 75ZM63.752 60C60.6507 60 58.127 62.5238 58.127 65.625C58.127 68.7263 60.6507 71.25 63.752 71.25C66.8532 71.25 69.377 68.7263 69.377 65.625C69.377 62.5238 66.8532 60 63.752 60Z" fill="#F8FAFC"/>
<path d="M66.7276 90.0002H60.7463C58.8113 90.0002 57.2063 88.5489 57.0151 86.6214L56.5388 81.8552C55.4026 81.3489 54.3188 80.7189 53.2951 79.9689L48.9151 81.9452C47.1563 82.7477 45.0901 82.0764 44.1263 80.4002L41.1376 75.2214C40.1701 73.5452 40.6276 71.4302 42.1951 70.3014L46.0538 67.5264C45.9788 66.9452 45.9263 66.3002 45.9263 65.6252C45.9263 64.9502 45.9788 64.3014 46.0538 63.7239L42.1951 60.9489C40.6276 59.8202 40.1701 57.7052 41.1376 56.0289L44.1263 50.8502C45.0938 49.1739 47.1488 48.5102 48.9151 49.3052L53.2951 51.2814C54.3188 50.5314 55.4026 49.9014 56.5388 49.3952L57.0151 44.6289C57.2063 42.7052 58.8113 41.2539 60.7463 41.2539H66.7276C68.6626 41.2539 70.2676 42.7052 70.4588 44.6327L70.9351 49.3989C72.0751 49.9052 73.1588 50.5389 74.1788 51.2852L78.5588 49.3089C80.3251 48.5177 82.3838 49.1814 83.3476 50.8539L86.3363 56.0327C87.3038 57.7089 86.8463 59.8239 85.2788 60.9527L81.4201 63.7277C81.4951 64.3089 81.5476 64.9539 81.5476 65.6289C81.5476 66.3039 81.4951 66.9527 81.4201 67.5302L85.2788 70.3052C86.8463 71.4339 87.3038 73.5489 86.3363 75.2252L83.3513 80.4002C82.3838 82.0727 80.3326 82.7439 78.5626 81.9452L74.1826 79.9689C73.1588 80.7189 72.0751 81.3489 70.9388 81.8552L70.4588 86.6252C70.2676 88.5489 68.6626 90.0002 66.7276 90.0002ZM53.5576 75.9189C53.9888 75.9189 54.4163 76.0689 54.7613 76.3577C56.0326 77.4227 57.4388 78.2364 58.9351 78.7839C59.6101 79.0314 60.0863 79.6427 60.1576 80.3589L60.7501 86.2502H66.7313L67.3201 80.3589C67.3913 79.6427 67.8676 79.0314 68.5426 78.7839C70.0388 78.2364 71.4451 77.4189 72.7163 76.3577C73.2713 75.8964 74.0363 75.7914 74.6888 76.0877L80.1038 78.5327L83.0926 73.3539L78.3001 69.9114C77.7151 69.4914 77.4263 68.7714 77.5463 68.0627C77.6851 67.2714 77.7976 66.4652 77.7976 65.6327C77.7976 64.8002 77.6851 63.9939 77.5463 63.2027C77.4226 62.4939 77.7151 61.7777 78.3001 61.3539L83.0926 57.9114L80.1038 52.7327L74.6888 55.1739C74.0326 55.4702 73.2676 55.3652 72.7126 54.9039C71.4451 53.8389 70.0426 53.0252 68.5388 52.4777C67.8638 52.2302 67.3876 51.6189 67.3163 50.9027L66.7276 45.0002H60.7463L60.1576 50.8914C60.0863 51.6077 59.6101 52.2189 58.9351 52.4664C57.4388 53.0139 56.0326 53.8314 54.7613 54.8927C54.2101 55.3539 53.4451 55.4627 52.7888 55.1627L47.3738 52.7177L44.3851 57.8964L49.1776 61.3389C49.7626 61.7589 50.0513 62.4789 49.9313 63.1877C49.7926 63.9789 49.6801 64.7852 49.6801 65.6177C49.6801 66.4502 49.7926 67.2564 49.9313 68.0477C50.0551 68.7564 49.7626 69.4727 49.1776 69.8964L44.3851 73.3389L47.3738 78.5177L52.7888 76.0764C53.0363 75.9714 53.2951 75.9189 53.5576 75.9189Z" fill="#17FFA6"/>
</g>
<defs>
<clipPath id="clip0_0_4305">
<rect width="90" height="90" fill="white"/>
</clipPath>
</defs>
</svg>
