<svg width="90" height="90" viewBox="0 0 90 90" fill="none" xmlns="http://www.w3.org/2000/svg">
<path d="M66.736 65.5174C67.309 60.7467 67.1368 60.0506 70.6875 60.8206L71.5911 60.9014C74.3227 61.0245 77.8946 60.462 80.0286 59.4881C84.5461 57.3928 87.225 53.8913 82.7707 54.8124C72.6106 56.9077 71.8723 53.4659 71.8723 53.4659C82.6055 37.5401 87.095 17.3252 83.2172 12.3788C72.6563 -1.12124 54.3715 5.26314 54.0657 5.43189L53.9672 5.44947C51.9633 5.02759 49.7485 4.7815 47.1821 4.74634C42.5836 4.67603 39.0961 5.9522 36.4453 7.95962C36.4453 7.95962 3.8309 -5.4771 5.34613 24.8592C5.66957 31.3139 14.5922 73.7264 25.2446 60.8944C29.1434 56.2045 32.9051 52.2424 32.9051 52.2424C34.7684 53.4835 37.0078 54.1163 39.3528 53.8877L39.5356 53.7331C39.4815 54.3407 39.5063 54.9529 39.6094 55.5542C36.8672 58.6198 37.6758 59.1577 32.1914 60.2862C26.6438 61.4288 29.9063 63.4643 32.0297 63.9987C34.6102 64.6456 40.5797 65.5596 44.6157 59.9135L44.4539 60.5569C45.5297 61.4182 45.4559 66.7444 45.6141 70.5483C45.7723 74.3522 46.0219 77.9065 46.7989 79.9983C47.5758 82.0901 48.4864 87.4866 55.6934 85.9749C61.7157 84.6846 66.3211 82.8249 66.743 65.5491" fill="black"/>
<path d="M66.736 65.5174C67.309 60.7467 67.1368 60.0506 70.6875 60.8206L71.5911 60.9014C74.3227 61.0245 77.8946 60.462 80.0286 59.4881C84.5461 57.3928 87.225 53.8913 82.7707 54.8124C72.6106 56.9077 71.8723 53.4659 71.8723 53.4659C82.6055 37.5401 87.095 17.3252 83.2172 12.3788C72.6563 -1.12124 54.3715 5.26314 54.0657 5.43189L53.9672 5.44947C51.9633 5.02759 49.7485 4.7815 47.1821 4.74634C42.5836 4.67603 39.0961 5.9522 36.4453 7.95962C36.4453 7.95962 3.8309 -5.4771 5.34613 24.8592C5.66957 31.3139 14.5922 73.7264 25.2446 60.8944C29.1434 56.2045 32.9051 52.2424 32.9051 52.2424C34.7684 53.4835 37.0078 54.1163 39.3528 53.8878L39.5356 53.7331C39.4815 54.3407 39.5063 54.9529 39.6094 55.5542C36.8672 58.6198 37.6758 59.1577 32.1914 60.2862C26.6438 61.4288 29.9063 63.4643 32.0297 63.9987C34.6102 64.6456 40.5797 65.5596 44.6157 59.9135L44.4539 60.5569C45.5297 61.4182 45.4559 66.7444 45.6141 70.5483C45.7723 74.3522 46.0219 77.9065 46.7989 79.9983C47.5758 82.0901 48.4864 87.4866 55.6934 85.9749C61.7157 84.6846 66.3211 82.8249 66.743 65.5491" stroke="black" stroke-width="5.3725"/>
<path d="M82.7366 54.8442C72.5764 56.9395 71.8382 53.4977 71.8382 53.4977C82.5714 37.5719 87.0608 17.3571 83.1866 12.4106C72.6257 -1.08938 54.3409 5.29851 54.035 5.46374L53.9366 5.48132C51.7033 5.03321 49.4327 4.79661 47.155 4.77468C42.5565 4.70437 39.069 5.98054 36.4182 7.98796C36.4182 7.98796 3.80027 -5.44875 5.31902 24.8876C5.64245 31.3423 14.5651 73.7548 25.2175 60.9227C29.1409 56.2048 32.9026 52.2426 32.9026 52.2426C34.7659 53.4837 37.0053 54.1165 39.3503 53.888L39.5331 53.7333C39.4794 54.341 39.5042 54.953 39.6069 55.5544C36.8647 58.62 37.6733 59.1579 32.1889 60.2864C26.6413 61.429 29.9038 63.4645 32.0272 63.9989C34.6077 64.6458 40.5772 65.5598 44.6132 59.9137L44.4514 60.5571C45.5272 61.4184 46.2796 66.1575 46.153 70.4536C46.0264 74.7497 45.9421 77.6958 46.7858 80.002C47.6296 82.3083 48.4733 87.4903 55.6803 85.9786C61.7026 84.6883 64.821 81.338 65.2604 75.7622C65.5698 71.7966 66.2659 72.3801 66.3151 68.8364L66.8776 67.1559C67.521 61.777 66.9831 60.0438 70.6921 60.8524L71.5956 60.9333C74.3272 61.0563 77.9026 60.4938 79.9979 59.52C84.5155 57.4247 87.1909 53.9231 82.7366 54.8442Z" fill="#336791"/>
<path d="M45.0475 57.8916C44.7662 67.8971 45.1178 77.9729 46.0952 80.3916C47.0725 82.8104 49.1713 87.5987 56.3819 86.0588C62.4041 84.7686 64.5979 82.269 65.5471 76.753L67.7725 59.1151M36.4061 7.73422C36.4061 7.73422 3.76703 -5.6111 5.28578 24.7252C5.60922 31.1799 14.5319 73.5924 25.1842 60.7604C29.0725 56.0741 32.5881 52.4073 32.5881 52.4073M54.0334 5.29789C52.9084 5.64945 72.1881 -1.75094 83.1498 12.2518C87.017 17.1983 82.5346 37.4131 71.8014 53.3389" stroke="white" stroke-width="1.79" stroke-linecap="round" stroke-linejoin="round"/>
<path d="M71.8049 53.331C71.8049 53.331 72.5081 56.7764 82.7034 54.674C87.1577 53.7529 84.4752 57.2545 79.9612 59.3498C76.2557 61.0724 67.9448 61.5119 67.8077 59.1389C67.4561 53.0041 72.1811 54.8674 71.8401 53.331C71.5307 51.9459 69.4143 50.5889 68.0221 47.1998C66.8022 44.2467 51.2877 21.5709 72.3252 24.9353C73.0987 24.7771 66.8409 4.89627 47.1534 4.60799C27.4659 4.31971 28.0881 28.8131 28.0881 28.8131" stroke="white" stroke-width="1.79" stroke-linecap="round" stroke-linejoin="bevel"/>
<path d="M39.539 55.4335C36.7968 58.4992 37.6054 59.0371 32.1211 60.1656C26.5734 61.3081 29.8359 63.3437 31.9593 63.8781C34.5398 64.5249 40.5093 65.439 44.5453 59.7894C45.7757 58.0667 44.5382 55.3245 42.8507 54.6285C42.0351 54.291 40.9453 53.8691 39.5461 55.437L39.539 55.4335Z" stroke="white" stroke-width="1.79" stroke-linejoin="round"/>
<path d="M39.3627 55.3814C39.0814 53.5778 39.9533 51.4368 40.8849 48.9267C42.2842 45.165 45.5115 41.4032 42.931 29.4607C41.008 20.5661 28.0951 27.6079 28.0951 28.8138C28.0951 30.0196 28.6787 34.931 27.8842 40.6439C26.84 48.104 32.6303 54.411 39.2959 53.7677" stroke="white" stroke-width="1.79" stroke-linecap="round" stroke-linejoin="round"/>
<path d="M36.2882 28.6338C36.2285 29.0451 37.0441 30.1455 38.1023 30.2932C39.1605 30.4408 40.064 29.583 40.1238 29.1682C40.1836 28.7533 39.3679 28.3033 38.3097 28.1557C37.2515 28.008 36.341 28.226 36.2882 28.6338Z" fill="white" stroke="white" stroke-width="0.5975"/>
<path d="M68.506 27.7939C68.5622 28.2053 67.7501 29.3057 66.6919 29.4533C65.6337 29.601 64.7231 28.7432 64.6704 28.3283C64.6177 27.9135 65.4263 27.4635 66.4845 27.3158C67.5427 27.1682 68.4532 27.3861 68.506 27.7939Z" fill="white" stroke="white" stroke-width="0.2975"/>
<path d="M72.2879 24.9434C72.4637 28.1777 71.5918 30.375 71.4793 33.8168C71.3176 38.816 73.8629 44.5395 70.0273 50.2699" stroke="white" stroke-width="1.79" stroke-linecap="round" stroke-linejoin="round"/>
</svg>
