<svg width="90" height="90" viewBox="0 0 90 90" fill="none" xmlns="http://www.w3.org/2000/svg">
<path d="M89.9925 62.672H89.7319C85.6394 62.672 81.3087 58.3414 81.3087 54.2488V53.9883H80.6798V54.2488C80.6798 58.3414 76.3492 62.672 72.2522 62.672H71.9961V63.3009H72.2522C76.3492 63.3009 80.6798 67.6316 80.6798 71.7286V71.9891H81.3087V71.7286C81.3087 67.6316 85.6394 63.3009 89.7319 63.3009H89.9925V62.672Z" fill="#00E1E1"/>
<path d="M17.9874 8.68372H17.7268C13.6343 8.68372 9.30367 4.35309 9.30367 0.256064V0H8.68372V0.256064C8.68372 4.35309 4.35309 8.68372 0.256064 8.68372H0V9.31265H0.256064C4.35309 9.31265 8.68372 13.6433 8.68372 17.7403V17.9964H9.31265V17.7403C9.31265 13.6433 13.6433 9.31265 17.7358 9.31265H17.9964V8.68372H17.9874Z" fill="#00E1E1"/>
<path d="M17.9874 26.6798H17.7268C13.6343 26.6798 9.30367 22.3492 9.30367 18.2522V17.9961H8.68372V18.2522C8.68372 22.3492 4.35309 26.6798 0.256064 26.6798H0V27.3087H0.256064C4.35309 27.3087 8.68372 31.6394 8.68372 35.7364V35.9925H9.31265V35.7364C9.31265 31.6394 13.6433 27.3087 17.7358 27.3087H17.9964V26.6798H17.9874Z" fill="#00E1E1"/>
<path d="M35.9831 26.6798H35.7225C31.63 26.6798 27.2994 22.3492 27.2994 18.2522V17.9961H26.6525V18.2522C26.6525 22.3492 22.3218 26.6798 18.2248 26.6798H17.9688V27.3087H18.2248C22.3218 27.3087 26.6525 31.6394 26.6525 35.7364V35.9925H27.2814V35.7364C27.2814 31.6394 31.612 27.3087 35.7046 27.3087H35.9651V26.6798H35.9831Z" fill="#00E1E1"/>
<path d="M17.9874 44.6759H17.7268C13.6343 44.6759 9.30367 40.3453 9.30367 36.2527V35.9922H8.68372V36.2527C8.68372 40.3453 4.35309 44.6759 0.256064 44.6759H0V45.3048H0.256064C4.35309 45.3048 8.68372 49.6355 8.68372 53.7325V53.9886H9.31265V53.7325C9.31265 49.6355 13.6433 45.3048 17.7358 45.3048H17.9964V44.6759H17.9874Z" fill="#00E1E1"/>
<path d="M35.9831 44.6759H35.7225C31.63 44.6759 27.2994 40.3453 27.2994 36.2527V35.9922H26.6525V36.2527C26.6525 40.3453 22.3218 44.6759 18.2248 44.6759H17.9688V45.3048H18.2248C22.3218 45.3048 26.6525 49.6355 26.6525 53.7325V53.9886H27.2814V53.7325C27.2814 49.6355 31.612 45.3048 35.7046 45.3048H35.9651V44.6759H35.9831Z" fill="#00E1E1"/>
<path d="M53.9807 44.6759H53.7202C49.6277 44.6759 45.297 40.3453 45.297 36.2527V35.9922H44.6681V36.2527C44.6681 40.3453 40.3375 44.6759 36.2404 44.6759H35.9844V45.3048H36.2404C40.3375 45.3048 44.6681 49.6355 44.6681 53.7325V53.9886H45.297V53.7325C45.297 49.6355 49.6277 45.3048 53.7202 45.3048H53.9807V44.6759Z" fill="#00E1E1"/>
<path d="M17.9874 62.672H17.7268C13.6343 62.672 9.30367 58.3414 9.30367 54.2488V53.9883H8.68372V54.2488C8.68372 58.3414 4.35309 62.672 0.256064 62.672H0V63.3009H0.256064C4.35309 63.3009 8.68372 67.6316 8.68372 71.7286V71.9891H9.31265V71.7286C9.31265 67.6316 13.6433 63.3009 17.7358 63.3009H17.9964V62.672H17.9874Z" fill="#00E1E1"/>
<path d="M35.9831 62.672H35.7225C31.63 62.672 27.2994 58.3414 27.2994 54.2488V53.9883H26.6525V54.2488C26.6525 58.3414 22.3218 62.672 18.2248 62.672H17.9688V63.3009H18.2248C22.3218 63.3009 26.6525 67.6316 26.6525 71.7286V71.9891H27.2814V71.7286C27.2814 67.6316 31.612 63.3009 35.7046 63.3009H35.9651V62.672H35.9831Z" fill="#00E1E1"/>
<path d="M71.9768 26.6798H71.7208C67.6238 26.6798 63.2931 22.3492 63.2931 18.2522V17.9961H62.6642V18.2522C62.6642 22.3492 58.3336 26.6798 54.2365 26.6798H53.9805V27.3087H54.2365C58.3336 27.3087 62.6642 31.6394 62.6642 35.7364V35.9925H63.2931V35.7364C63.2931 31.6394 67.6238 27.3087 71.7208 27.3087H71.9768V26.6798Z" fill="#00E1E1"/>
<path d="M71.9768 44.6759H71.7208C67.6238 44.6759 63.2931 40.3453 63.2931 36.2527V35.9922H62.6642V36.2527C62.6642 40.3453 58.3336 44.6759 54.2365 44.6759H53.9805V45.3048H54.2365C58.3336 45.3048 62.6642 49.6355 62.6642 53.7325V53.9886H63.2931V53.7325C63.2931 49.6355 67.6238 45.3048 71.7208 45.3048H71.9768V44.6759Z" fill="#00E1E1"/>
<path d="M71.9768 62.672H71.7208C67.6238 62.672 63.2931 58.3414 63.2931 54.2488V53.9883H62.6642V54.2488C62.6642 58.3414 58.3336 62.672 54.2365 62.672H53.9805V63.3009H54.2365C58.3336 63.3009 62.6642 67.6316 62.6642 71.7286V71.9891H63.2931V71.7286C63.2931 67.6316 67.6238 63.3009 71.7208 63.3009H71.9768V62.672Z" fill="#00E1E1"/>
<path d="M89.9925 26.6798H89.7319C85.6394 26.6798 81.3087 22.3492 81.3087 18.2522V17.9961H80.6798V18.2522C80.6798 22.3492 76.3492 26.6798 72.2522 26.6798H71.9961V27.3087H72.2522C76.3492 27.3087 80.6798 31.6394 80.6798 35.7364V35.9925H81.3087V35.7364C81.3087 31.6394 85.6394 27.3087 89.7319 27.3087H89.9925V26.6798Z" fill="#00E1E1"/>
<path d="M89.9925 8.68372H89.7319C85.6394 8.68372 81.3087 4.35309 81.3087 0.256064V0H80.6798V0.256064C80.6798 4.35309 76.3492 8.68372 72.2522 8.68372H71.9961V9.31265H72.2522C76.3492 9.31265 80.6798 13.6433 80.6798 17.7403V17.9964H81.3087V17.7403C81.3087 13.6433 85.6394 9.31265 89.7319 9.31265H89.9925V8.68372Z" fill="#00E1E1"/>
<path d="M89.9925 44.6759H89.7319C85.6394 44.6759 81.3087 40.3453 81.3087 36.2527V35.9922H80.6798V36.2527C80.6798 40.3453 76.3492 44.6759 72.2522 44.6759H71.9961V45.3048H72.2522C76.3492 45.3048 80.6798 49.6355 80.6798 53.7325V53.9886H81.3087V53.7325C81.3087 49.6355 85.6394 45.3048 89.7319 45.3048H89.9925V44.6759Z" fill="#00E1E1"/>
<path d="M89.9925 80.674H89.7319C85.6394 80.674 81.3087 76.3388 81.3087 72.2463V71.9902H80.6798V72.2463C80.6798 76.3388 76.3492 80.674 72.2522 80.674H71.9961V81.3119H72.2522C76.3492 81.3119 80.6798 85.6425 80.6798 89.7395V90.0001H81.3087V89.7395C81.3087 85.6425 85.6394 81.3119 89.7319 81.3119H89.9925V80.6874V80.674Z" fill="#00E1E1"/>
<path d="M17.9874 80.674H17.7268C13.6343 80.674 9.30367 76.3388 9.30367 72.2463V71.9902H8.68372V72.2463C8.68372 76.3388 4.35309 80.674 0.256064 80.674H0V81.3119H0.256064C4.35309 81.3119 8.68372 85.6425 8.68372 89.7395V90.0001H9.31265V89.7395C9.31265 85.6425 13.6433 81.3119 17.7358 81.3119H17.9964V80.6874L17.9874 80.674Z" fill="#00E1E1"/>
</svg>
