<svg width="90" height="90" viewBox="0 0 90 90" fill="none" xmlns="http://www.w3.org/2000/svg">
<path d="M38.3397 81.9525C38.2226 81.9525 38.103 81.9378 37.984 81.9068C37.2323 81.7112 36.7816 80.943 36.9774 80.1917L39.3212 71.193C39.5168 70.4413 40.285 69.9906 41.0362 70.1864C41.788 70.382 42.2386 71.1502 42.0428 71.9015L39.6991 80.9002C39.5344 81.5327 38.9643 81.9525 38.3397 81.9525Z" fill="#F8FAFC"/>
<path d="M51.64 81.9525C51.0155 81.9525 50.4447 81.533 50.2801 80.9002L47.9363 71.9014C47.7407 71.1497 48.1912 70.3821 48.9429 70.1863C49.694 69.9907 50.4622 70.4412 50.658 71.1929L53.0018 80.1917C53.1974 80.9434 52.7469 81.711 51.9952 81.9068C51.8769 81.9372 51.7578 81.9525 51.64 81.9525Z" fill="#F8FAFC"/>
<path d="M63.4199 88.9701H26.5996C25.8226 88.9701 25.1934 88.3409 25.1934 87.5639C25.1934 82.9179 28.9726 79.1387 33.6186 79.1387H56.4015C61.0469 79.1387 64.8261 82.9179 64.8261 87.5639C64.8261 88.3409 64.1961 88.9701 63.4199 88.9701ZM28.1839 86.1578H61.8349C61.2091 83.7414 59.01 81.9513 56.4009 81.9513H33.6186C31.0093 81.9513 28.8098 83.7412 28.1839 86.1578Z" fill="#F8FAFC"/>
<path d="M86.2498 72.9531H3.75002C1.68216 72.9531 0 71.2709 0 69.2031V13.8223C0 11.7546 1.68216 10.0723 3.75002 10.0723H19.6494C20.4264 10.0723 21.0557 10.7015 21.0557 11.4785C21.0557 12.2555 20.4264 12.8848 19.6494 12.8848H3.75002C3.23321 12.8848 2.81252 13.3055 2.81252 13.8223V69.2032C2.81252 69.72 3.23321 70.1407 3.75002 70.1407H86.25C86.7668 70.1407 87.1875 69.72 87.1875 69.2032V13.8223C87.1875 13.3055 86.7668 12.8848 86.25 12.8848H81.0768C80.2998 12.8848 79.6705 12.2555 79.6705 11.4785C79.6705 10.7015 80.2998 10.0723 81.0768 10.0723H86.25C88.3177 10.0723 90 11.7544 90 13.8223V69.2032C89.9998 71.2709 88.3177 72.9531 86.2498 72.9531Z" fill="#F8FAFC"/>
<path d="M88.5936 63.4707H1.40626C0.629267 63.4707 0 62.8415 0 62.0645C0 61.2875 0.629267 60.6582 1.40626 60.6582H88.5936C89.3706 60.6582 89.9999 61.2875 89.9999 62.0645C89.9999 62.8415 89.3706 63.4707 88.5936 63.4707Z" fill="#F8FAFC"/>
<path d="M81.0863 43.7127H43.8019C43.0249 43.7127 42.3957 43.0834 42.3957 42.3064C42.3957 41.5294 43.0249 40.9001 43.8019 40.9001H79.68V3.84557H32.4131V8.91219C32.4131 9.68919 31.7838 10.3185 31.0068 10.3185C30.2299 10.3185 29.6006 9.68919 29.6006 8.91219V2.43946C29.6006 1.66247 30.2299 1.0332 31.0068 1.0332H81.0863C81.8632 1.0332 82.4925 1.66247 82.4925 2.43946V42.3065C82.4925 43.0828 81.8627 43.7127 81.0863 43.7127Z" fill="#F8FAFC"/>
<path d="M48.2938 19.3245C48.1849 19.0386 48.0934 18.8048 48.0213 18.629C47.941 18.4339 47.8408 18.2493 47.7242 18.08C47.5906 17.8861 47.4142 17.726 47.1991 17.6048C46.9776 17.4794 46.707 17.416 46.3952 17.416C46.087 17.416 45.8188 17.4798 45.5972 17.6053C45.381 17.7278 45.204 17.8906 45.0698 18.0906C44.9527 18.2652 44.8424 18.4832 44.7429 18.7392C44.6515 18.9719 44.5736 19.1711 44.5096 19.3363L42.2357 25.1089C42.1396 25.3473 42.0687 25.5384 42.0259 25.6762C41.9749 25.8396 41.9492 26.0019 41.9492 26.159C41.9492 26.4702 42.074 26.7473 42.3207 26.9823C42.5626 27.2132 42.8475 27.3298 43.1679 27.3298C43.5517 27.3298 43.8417 27.2032 44.0299 26.9536C44.1694 26.7684 44.324 26.4445 44.5039 25.9622L44.842 25.0545H47.9628L48.3002 25.9416L48.3032 25.9493C48.3601 26.0876 48.4297 26.2504 48.5094 26.4333C48.602 26.6436 48.6899 26.8006 48.7778 26.912C48.8787 27.0398 49.0052 27.1424 49.1534 27.2168C49.3039 27.2923 49.4803 27.3304 49.6773 27.3304C50.0171 27.3304 50.3112 27.2085 50.552 26.9678C50.7928 26.727 50.9146 26.4509 50.9146 26.1474C50.9146 25.899 50.8167 25.5433 50.6152 25.0606L48.2938 19.3245ZM47.2121 22.9848H45.5745L46.386 20.723L47.2121 22.9848Z" fill="#17FFA6"/>
<path d="M61.412 22.0536C62.0138 21.5849 62.3185 20.948 62.3185 20.1582C62.3185 19.8588 62.2681 19.5693 62.1696 19.2986C62.0705 19.0278 61.9253 18.7771 61.7372 18.5539C61.5502 18.3324 61.3328 18.1468 61.0908 18.0026C60.8067 17.8303 60.482 17.712 60.1276 17.6521C59.7978 17.5964 59.4057 17.5684 58.9639 17.5684H56.0823C55.6012 17.5684 55.2356 17.6902 54.9954 17.931C54.7547 18.1718 54.6328 18.5416 54.6328 19.0302V25.7158C54.6328 26.1933 54.7506 26.5589 54.9832 26.8032C55.2205 27.0516 55.5903 27.1776 56.0824 27.1776H58.8006C59.2834 27.1776 59.7135 27.153 60.0791 27.105C60.4605 27.0545 60.8069 26.9649 61.1104 26.8383C61.6072 26.6203 62.0069 26.2776 62.2993 25.8206C62.5904 25.3659 62.7382 24.8485 62.7382 24.2842C62.7368 23.2773 62.2915 22.5278 61.412 22.0536ZM59.7332 20.787L59.7291 20.7947C59.6418 20.9558 59.5264 21.0566 59.3653 21.1129C59.1597 21.1843 58.8491 21.2206 58.4419 21.2206H57.1493V19.6368H58.2538C58.8538 19.6368 59.2951 19.7 59.5657 19.8255C59.6922 19.8842 59.8376 20.0019 59.8376 20.3957C59.8376 20.5427 59.8042 20.6674 59.7332 20.787ZM60.1955 24.1503C60.1955 24.5967 60.0285 25.1088 58.7272 25.1088H57.1493V23.2273H58.6662C59.2205 23.2273 59.6312 23.3105 59.8867 23.474C60.1001 23.6119 60.1955 23.8197 60.1955 24.1503Z" fill="#17FFA6"/>
<path d="M74.6349 23.1954C74.4128 22.9792 74.1428 22.8697 73.8334 22.8697C73.4666 22.8697 73.1876 22.9915 73.0036 23.2313C72.8659 23.4106 72.7523 23.6367 72.6667 23.8992C72.5103 24.3257 72.2812 24.6497 71.9841 24.863C71.69 25.0739 71.3179 25.1812 70.879 25.1812C70.473 25.1812 70.1173 25.0857 69.8214 24.8971C69.5296 24.7113 69.2981 24.4201 69.1335 24.031C68.9589 23.6186 68.8704 23.0847 68.8704 22.4443C68.8704 21.495 69.066 20.7633 69.4528 20.2681C69.8236 19.7934 70.31 19.5627 70.9393 19.5627C71.3284 19.5627 71.6553 19.6517 71.9101 19.8275C72.1785 20.0122 72.4187 20.3022 72.625 20.6895C72.7861 20.9936 72.935 21.2081 73.0802 21.3458C73.2636 21.5193 73.5209 21.6077 73.8448 21.6077C74.1543 21.6077 74.4202 21.4894 74.6352 21.2561C74.8432 21.0311 74.9487 20.7658 74.9487 20.4675C74.9487 20.0176 74.7753 19.5453 74.4337 19.0625C74.1021 18.5943 73.6233 18.1982 73.0121 17.8859C72.4015 17.5742 71.6997 17.416 70.9262 17.416C70.2928 17.416 69.6863 17.5308 69.1238 17.7576C68.5577 17.9862 68.0568 18.3231 67.6349 18.7601C67.2136 19.1967 66.8862 19.7274 66.6617 20.338C66.4396 20.941 66.3271 21.6301 66.3271 22.3847C66.3271 22.8482 66.3717 23.2936 66.459 23.7084C66.5475 24.1267 66.6823 24.5264 66.8598 24.8961C67.038 25.2669 67.2566 25.6085 67.5115 25.9115C67.7985 26.2466 68.1185 26.5221 68.4637 26.7289C68.8076 26.9357 69.1949 27.0893 69.6139 27.1865C70.0228 27.2814 70.4811 27.3295 70.975 27.3295C71.6394 27.3295 72.2335 27.22 72.7409 27.0038C73.2495 26.787 73.6755 26.4987 74.0077 26.1465C74.3352 25.799 74.5796 25.437 74.7349 25.0701C74.8924 24.6975 74.9727 24.3412 74.9727 24.0113C74.9736 23.6883 74.8598 23.4146 74.6349 23.1954Z" fill="#17FFA6"/>
<path d="M34.0887 19.7913C33.7014 19.7913 33.3241 19.6314 33.0563 19.3477L33.0457 19.3365C32.2301 18.4781 31.3008 17.3971 30.4296 16.2926C30.0727 15.8403 29.9351 15.6914 29.8466 15.6047C29.8272 15.5853 29.7991 15.559 29.764 15.5268C29.6117 15.6563 29.451 15.774 29.2811 15.8802C28.2206 16.5422 27.1495 16.5159 26.4411 16.4982L26.3942 16.4971C26.3742 16.4965 24.2626 16.449 22.0126 16.6042L21.9076 16.6113C21.2011 16.6593 20.533 16.7045 20.0601 16.9494C20.0303 17.0736 20.0167 17.3449 20.0073 17.5317C19.9921 17.8347 19.9757 18.1781 19.9071 18.5501C19.8304 18.969 19.5989 19.3247 19.2561 19.5508C18.928 19.767 18.5201 19.8408 18.1375 19.7529C17.8961 19.6966 17.5563 19.5549 17.2849 19.1916C16.7616 18.4966 16.6639 17.603 16.5988 17.0118L16.5964 16.9924C16.4563 15.7192 16.3592 14.0353 16.6914 13.2442C16.8736 12.8094 17.4215 11.6762 18.564 10.5717C20.7167 8.49167 24.0806 7.66661 25.0597 7.46391C26.4214 7.18154 27.7257 7.0813 28.9357 7.16567C29.7841 7.22432 30.5078 7.33147 31.1476 7.49316C32.0839 7.73041 32.8258 8.20092 33.294 8.8543C33.5318 9.18649 33.6742 9.51987 33.789 9.78827C33.8605 9.95584 33.9413 10.1452 33.9976 10.2054C34.1289 10.3461 34.3351 10.4925 34.5531 10.6479C34.8378 10.8506 35.1602 11.0803 35.4655 11.3915C36.1938 12.134 37.0187 13.3884 37.1482 14.681C37.2742 15.9303 36.7211 17.0112 36.2939 17.7156C36.2376 17.8082 36.0004 18.1773 35.7671 18.5183C35.2954 19.208 34.955 19.7066 34.236 19.7833C34.1878 19.7883 34.138 19.7913 34.0887 19.7913ZM35.0943 17.4094L35.099 17.4141C35.0973 17.4124 35.0961 17.4112 35.0943 17.4094ZM29.5478 12.2806C30.1021 12.2806 30.5369 12.5812 30.7653 12.7388C30.7653 12.7388 30.7928 12.7582 30.7957 12.76C31.289 13.1028 31.6453 13.4297 31.8141 13.5943C31.9999 13.7766 32.2102 14.0079 32.6385 14.5506C33.1243 15.1665 33.5708 15.702 33.9563 16.1478C34.1602 15.798 34.3893 15.3333 34.3519 14.9619C34.3079 14.5224 33.9247 13.8346 33.4601 13.3606C33.3294 13.227 33.1326 13.0869 32.924 12.9387C32.6175 12.7201 32.27 12.4729 31.9472 12.1278C31.5529 11.7071 31.3519 11.2372 31.2054 10.8944C31.1351 10.7297 31.0682 10.5745 31.0097 10.4924C30.9564 10.418 30.78 10.3013 30.4601 10.2204C29.9855 10.1003 29.423 10.0189 28.7433 9.97201C27.7893 9.90587 26.7429 9.98848 25.6331 10.2187C24.0746 10.542 21.8005 11.3583 20.5202 12.5952C19.8476 13.2456 19.4901 13.8948 19.3443 14.2048C20.167 13.9124 21.0119 13.8549 21.7185 13.8069L21.8211 13.7998C24.2058 13.6358 26.372 13.6844 26.4635 13.6868L26.5127 13.6879C27.0927 13.702 27.4649 13.7009 27.7936 13.4952C27.9723 13.3834 28.1293 13.2187 28.2594 13.0049C28.4703 12.6556 28.8196 12.4054 29.2185 12.3175C29.3315 12.2912 29.4418 12.2806 29.5478 12.2806Z" fill="#F8FAFC"/>
<path d="M26.7176 31.8193C26.1884 31.8193 25.5868 31.7683 24.9411 31.626C24.361 31.4977 22.8581 31.0699 21.3937 29.8705C20.6895 29.294 19.3998 28.0224 18.6679 25.9869C18.5296 25.6025 18.4172 25.1724 18.3322 24.7752C17.202 24.1489 16.3442 23.0115 16.0506 21.6839C15.6908 20.0573 16.2376 18.4677 17.5501 17.3216C18.1348 16.8107 19.0237 16.8711 19.534 17.4558C20.0449 18.0406 19.9845 18.9294 19.3998 19.4398C18.8631 19.9079 18.6603 20.4587 18.7968 21.0763C18.9381 21.7144 19.4232 22.2723 19.9763 22.4334C20.5106 22.5886 20.9032 23.044 20.9776 23.5959C21.018 23.8959 21.1346 24.5369 21.3139 25.0355C21.8354 26.4869 22.7893 27.3787 23.1754 27.695C24.1996 28.5335 25.2496 28.8142 25.5472 28.8798C26.6266 29.1176 27.5119 28.9618 27.8424 28.8839C28.7424 28.6712 29.3389 28.2617 29.6248 28.0647C29.8147 27.934 30.3139 27.5626 30.8266 26.9561C31.5718 26.0743 32.1255 24.859 32.4279 23.4417C32.548 22.8774 33.001 22.4438 33.5698 22.3484C33.7409 22.3197 34.1657 21.7684 34.2238 20.9679C34.2519 20.5805 34.2138 19.9032 33.6455 19.7204C32.906 19.4825 32.4995 18.6908 32.7373 17.9515C32.9751 17.212 33.7668 16.8054 34.5062 17.0432C36.1814 17.5816 37.1716 19.2018 37.0293 21.1712C36.9665 22.0372 36.6865 22.8915 36.2407 23.577C35.9014 24.0985 35.476 24.5068 34.9973 24.7782C34.5689 26.3473 33.8904 27.6886 32.9753 28.7719C32.2699 29.6074 31.5719 30.1395 31.2192 30.3826C30.8583 30.6304 29.9014 31.2885 28.4887 31.6219C28.1068 31.7108 27.4881 31.8193 26.7176 31.8193Z" fill="#F8FAFC"/>
<path d="M22.3262 34.5881C22.1165 34.5881 21.9032 34.5406 21.7023 34.441C21.0067 34.0958 20.7226 33.2521 21.0677 32.556C21.4029 31.881 21.6044 31.135 21.6208 30.5098C21.6285 30.2263 21.5998 30.1249 21.5229 29.8547C21.4978 29.7656 21.4714 29.6724 21.4456 29.5712C21.2523 28.8189 21.7058 28.0525 22.4575 27.859C23.2098 27.6657 23.9762 28.1192 24.1697 28.8709C24.1897 28.9482 24.2095 29.0186 24.2289 29.0859C24.3333 29.4533 24.4516 29.87 24.4328 30.583C24.3959 31.9787 23.8873 33.2004 23.5879 33.8045C23.3417 34.3009 22.8437 34.5881 22.3262 34.5881Z" fill="#F8FAFC"/>
<path d="M30.9716 34.8795C30.4818 34.8795 30.0054 34.6228 29.747 34.1664C29.2835 33.3484 28.7228 32.0624 28.6835 30.5834C28.6653 29.8709 28.7832 29.4555 28.8868 29.0887L28.9137 28.9931C29.1217 28.2449 29.8969 27.8066 30.6451 28.0146C31.3933 28.2226 31.8316 28.9978 31.6236 29.746L31.5932 29.8549C31.5171 30.1251 31.4882 30.2258 31.4953 30.51C31.5193 31.4077 31.8885 32.2397 32.1944 32.7794C32.577 33.455 32.3398 34.3134 31.664 34.696C31.445 34.8207 31.2065 34.8795 30.9716 34.8795Z" fill="#F8FAFC"/>
<path d="M44.3617 52.6839H8.94179C8.16715 52.6839 7.53788 52.0569 7.53553 51.2823C7.52729 48.7323 7.64621 42.355 8.93061 38.217C9.28339 37.0804 9.71349 36.1487 10.2841 35.2856C10.7617 34.5631 12.1374 32.748 14.5925 31.4993C16.839 30.3567 18.9865 30.1868 20.3928 30.2449C20.7297 30.259 21.0509 30.3936 21.2969 30.6245L26.5135 35.5218L32.0336 30.6C32.2761 30.3838 32.5861 30.2578 32.9107 30.2443C34.3157 30.1862 36.4625 30.3561 38.7103 31.4987C41.1659 32.7474 42.5418 34.5626 43.0193 35.285C43.5901 36.1481 44.0201 37.0798 44.3728 38.2165C45.6572 42.355 45.7762 48.7323 45.7679 51.2817C45.7656 52.0569 45.1369 52.6839 44.3617 52.6839ZM26.6073 49.8713H42.9456C42.8998 47.1673 42.6748 42.2343 41.687 39.0503C41.4116 38.1627 41.0988 37.48 40.6734 36.8361C40.3188 36.3 39.294 34.9505 37.4361 34.0061C35.9717 33.262 34.5609 33.0615 33.5143 33.0481L27.4247 38.4774C26.881 38.962 26.0571 38.9514 25.5263 38.4528L19.7688 33.0481C18.7236 33.064 17.3214 33.2661 15.8671 34.0061C14.0091 34.9506 12.9843 36.3 12.6298 36.8361C12.2044 37.48 11.8914 38.1627 11.6161 39.0503C10.6282 42.2331 10.4033 47.1673 10.3576 49.8708L26.6073 49.8713Z" fill="#F8FAFC"/>
<path d="M15.7998 52.683C15.0228 52.683 14.3936 52.0537 14.3936 51.2768V42.9453C14.3936 42.1683 15.0228 41.5391 15.7998 41.5391C16.5768 41.5391 17.2061 42.1683 17.2061 42.9453V51.2768C17.2061 52.0532 16.5762 52.683 15.7998 52.683Z" fill="#F8FAFC"/>
<path d="M38.0811 52.683C37.3041 52.683 36.6748 52.0537 36.6748 51.2768V42.9453C36.6748 42.1683 37.3041 41.5391 38.0811 41.5391C38.8581 41.5391 39.4873 42.1683 39.4873 42.9453V51.2768C39.4873 52.0532 38.8573 52.683 38.0811 52.683Z" fill="#F8FAFC"/>
<path d="M24.8551 52.6831C24.2879 52.6831 23.7536 52.3374 23.5403 51.7754L16.1897 32.4178C15.9137 31.6918 16.2794 30.8797 17.0054 30.6038C17.7314 30.3277 18.5435 30.6935 18.8194 31.4194L26.17 50.7771C26.446 51.5031 26.0803 52.3152 25.3543 52.5911C25.1903 52.6533 25.0209 52.6831 24.8551 52.6831Z" fill="#F8FAFC"/>
<path d="M28.4291 52.6828C28.2633 52.6828 28.0945 52.653 27.9299 52.5908C27.2039 52.3153 26.8389 51.5033 27.1142 50.7768L34.4648 31.4191C34.7408 30.6932 35.5522 30.3282 36.2788 30.6035C37.0048 30.8795 37.3698 31.6915 37.0945 32.4175L29.7439 51.7751C29.5306 52.3371 28.9962 52.6828 28.4291 52.6828Z" fill="#F8FAFC"/>
</svg>
